/* XPM */
static char *_1597_a1e964a7b8a68ec16d2984b2323e8b850e87cb408893526f4a4a3048bab9a85f[] = {
/* columns rows colors chars-per-pixel */
"32 58 4 1 ",
"  c #241724",
". c #E3511C",
"X c white",
"o c None",
/* pixels */
"................................",
"................................",
"..XXXXXXXXXXXXXXXXXXXXXXXXXXXX..",
"..XXXXXXXXXXXXXXXXXXXXXXXXXXXX..",
"..XXXXXXXXXXXXXXXXXXXXXXXXXXXX..",
"..XXXXXXXXXXXXXXXXXXXXXXXXXXXX..",
"..XXXoXXXXXXXXXXXXXXXXXXXXXXXX..",
"..XXoX XXXXXXXXXXXXXXXXXX XXXX..",
"..XXX   XXXXXXXXXXXXXXXX   XXX..",
"..XX     XXXXXXXXXXXXXX     XX..",
"..XX     XXXXXXXXXXXXXX     XX..",
"..XX     XXXXXXXXXXXXXX     XX..",
"..XX     XXXXXXXXXXXXXX     XX..",
"..XX     XXXXXXXXXXXXXX     XX..",
"..XX     XXXXXXXXXXXXXX     XX..",
"..XX     XXXXXXXXXXXXXX     XX..",
"..XX     XXXXXXXXXXXXXX     XX..",
"..XX     XXXXXXXXXXXXXX     XX..",
"..XX     XXXXXXXXXXXXXX     XX..",
"..XX     XXXXXXXXXXXXXX     XX..",
"..XX     XXXXXXXXXXXXXX     XX..",
"..XX     XXXXXXXXXXXXXX     XX..",
"..XX     XXXXXXXXXXXXXX     XX..",
"..XX     XXXXXXXXXXXXXX     XX..",
"..XX     XXXXXXXXXXXXXX     XX..",
"..XX     XXXXXXXXXXXXXX     XX..",
"..XXX   XX            XX   oXX..",
"..XXXX Xo              XX oXXX..",
"..XXXXXo                XXXXXX..",
"..XXXXXXX              XX oXXX..",
"..XXXXXXXX            XX   oXX..",
"..XXXXXXXXXXXXXXXXXXXXX     XX..",
"..XXXXXXXXXXXXXXXXXXXXX     XX..",
"..XXXXXXXXXXXXXXXXXXXXX     XX..",
"..XXXXXXXXXXXXXXXXXXXXX     XX..",
"..XXXXXXXXXXXXXXXXXXXXX     XX..",
"..XXXXXXXXXXXXXXXXXXXXX     XX..",
"..XXXXXXXXXXXXXXXXXXXXX     XX..",
"..XXXXXXXXXXXXXXXXXXXXX     XX..",
"..XXXXXXXXXXXXXXXXXXXXX     XX..",
"..XXXXXXXXXXXXXXXXXXXXX     XX..",
"..XXXXXXXXXXXXXXXXXXXXX     XX..",
"..XXXXXXXXXXXXXXXXXXXXX     XX..",
"..XXXXXXXXXXXXXXXXXXXXX     XX..",
"..XXXXXXXXXXXXXXXXXXXXX     XX..",
"..XXXXXXXXXXXXXXXXXXXXX     XX..",
"..XXXXXXXXXXXXXXXXXXXXX     XX..",
"..XXXXXXXXXXXXXXXXXXXXX     XX..",
"..XXXXXXXXXXXXXXXXXXXXX     XX..",
"..XXXXXXXXXXXXXXXXXXXXXX   XXX..",
"..XXXXXXXXXXXXXXXXXXXXXXX XoXX..",
"..XXXXXXXXXXXXXXXXXXXXXXXXoXXX..",
"..XXXXXXXXXXXXXXXXXXXXXXXXXXXX..",
"..XXXXXXXXXXXXXXXXXXXXXXXXXXXX..",
"..XXXXXXXXXXXXXXXXXXXXXXXXXXXX..",
"..XXXXXXXXXXXXXXXXXXXXXXXXXXXX..",
"................................",
"................................"
};
