/* XPM */
static char *_2608_bad913632166de2483254a9c6ae5374e0f2e8abe193e4e286184936939725ecd[] = {
/* columns rows colors chars-per-pixel */
"32 58 4 1 ",
"  c #241724",
". c #E3511C",
"X c white",
"o c None",
/* pixels */
"................................",
"................................",
"..XXXXXXXXXXXXXXXXXXXXXXXXXXXX..",
"..XXXXXXXXXXXXXXXXXXXXXXXXXXXX..",
"..XXXXXXXX            XXXXXXXX..",
"..XXXXXXX              XXXXXXX..",
"..XXXXXX                XXXXXX..",
"..XXXXXXX              XX XXXX..",
"..XXXXXXXX            Xo   XXX..",
"..XXXXXXXXXXXXXXXXXXXXX     XX..",
"..XXXXXXXXXXXXXXXXXXXXX     XX..",
"..XXXXXXXXXXXXXXXXXXXXX     XX..",
"..XXXXXXXXXXXXXXXXXXXXX     XX..",
"..XXXXXXXXXXXXXXXXXXXXX     XX..",
"..XXXXXXXXXXXXXXXXXXXXX     XX..",
"..XXXXXXXXXXXXXXXXXXXXX     XX..",
"..XXXXXXXXXXXXXXXXXXXXX     XX..",
"..XXXXXXXXXXXXXXXXXXXXX     XX..",
"..XXXXXXXXXXXXXXXXXXXXX     XX..",
"..XXXXXXXXXXXXXXXXXXXXX     XX..",
"..XXXXXXXXXXXXXXXXXXXXX     XX..",
"..XXXXXXXXXXXXXXXXXXXXX     XX..",
"..XXXXXXXXXXXXXXXXXXXXX     XX..",
"..XXXXXXXXXXXXXXXXXXXXX     XX..",
"..XXXXXXXXXXXXXXXXXXXXX     XX..",
"..XXXXXXXXXXXXXXXXXXXXX     XX..",
"..XXXXXXXXXXXXXXXXXXXXXX   oXX..",
"..XXXXXXXXXXXXXXXXXXXXXXX oXXX..",
"..XXXXXXXXXXXXXXXXXXXXXXXXXXXX..",
"..XXXXXXXXXXXXXXXXXXXXXXX oXXX..",
"..XXXXXXXXXXXXXXXXXXXXXX   oXX..",
"..XXXXXXXXXXXXXXXXXXXXX     XX..",
"..XXXXXXXXXXXXXXXXXXXXX     XX..",
"..XXXXXXXXXXXXXXXXXXXXX     XX..",
"..XXXXXXXXXXXXXXXXXXXXX     XX..",
"..XXXXXXXXXXXXXXXXXXXXX     XX..",
"..XXXXXXXXXXXXXXXXXXXXX     XX..",
"..XXXXXXXXXXXXXXXXXXXXX     XX..",
"..XXXXXXXXXXXXXXXXXXXXX     XX..",
"..XXXXXXXXXXXXXXXXXXXXX     XX..",
"..XXXXXXXXXXXXXXXXXXXXX     XX..",
"..XXXXXXXXXXXXXXXXXXXXX     XX..",
"..XXXXXXXXXXXXXXXXXXXXX     XX..",
"..XXXXXXXXXXXXXXXXXXXXX     XX..",
"..XXXXXXXXXXXXXXXXXXXXX     XX..",
"..XXXXXXXXXXXXXXXXXXXXX     XX..",
"..XXXXXXXXXXXXXXXXXXXXX     XX..",
"..XXXXXXXXXXXXXXXXXXXXX     XX..",
"..XXXXXXXXXXXXXXXXXXXXX     XX..",
"..XXXXXXXXXXXXXXXXXXXXXX   XXX..",
"..XXXXXXXXXXXXXXXXXXXXXXX XoXX..",
"..XXXXXXXXXXXXXXXXXXXXXXXXoXXX..",
"..XXXXXXXXXXXXXXXXXXXXXXXXXXXX..",
"..XXXXXXXXXXXXXXXXXXXXXXXXXXXX..",
"..XXXXXXXXXXXXXXXXXXXXXXXXXXXX..",
"..XXXXXXXXXXXXXXXXXXXXXXXXXXXX..",
"................................",
"................................"
};
