/* XPM */
static char *_2037_891b817e2c57cc5c7d01e1d735457189f176368e08d4551c7ed08a0f30e15dce[] = {
/* columns rows colors chars-per-pixel */
"64 64 3 1 ",
"  c #95CCA4",
". c #9FCFAC",
"X c #9FABCF",
/* pixels */
"            X.......................................X           ",
"            X.......................................X           ",
"            X.......................................X           ",
"            X.......................................X           ",
"            X.......................................X           ",
"            X.......................................X           ",
"            X.......................................X           ",
"            X.......................................X           ",
"            X.......................................X           ",
"            X.......................................X           ",
"             X.....................................X            ",
"             X.....................................X            ",
"XXXXXXXXXX   X.....................................X   XXXXXXXXX",
"..........XXXX.....................................XXXX.........",
"..............XXX...............................XXX.............",
"..............X  XX...........................XX  X.............",
"..............X    XX.......................XX    X.............",
"...............X     XX...................XX     X..............",
"...............X      XX.................XX      X..............",
"................X       X...............X       X...............",
"................X        X.............X        X...............",
".................X        X...........X        X................",
".................XX        X.........X        XX................",
"..................X         X.......X         X.................",
"...................X         X.....X         X..................",
"....................X        X.....X        X...................",
".....................X        X...X        X....................",
"......................X       X...X       X.....................",
".......................X      X...X      X......................",
"........................XX     X.X     XX.......................",
"..........................XXX  X.X  XXX.........................",
".............................XXX.XXX............................",
"................................X...............................",
".............................XXX.XXX............................",
"..........................XXX  X.X  XXX.........................",
"........................XX     X.X     XX.......................",
".......................X      X...X      X......................",
"......................X       X...X       X.....................",
".....................X        X...X        X....................",
"....................X        X.....X        X...................",
"...................X         X.....X         X..................",
"..................X         X.......X         X.................",
".................XX        X.........X        XX................",
".................X        X...........X        X................",
"................X        X.............X        X...............",
"................X       X...............X       X...............",
"...............X      XX.................XX      X..............",
"...............X     XX...................XX     X..............",
"..............X    XX.......................XX    X.............",
"..............X  XX...........................XX  X.............",
"..............XXX...............................XXX.............",
"..........XXXX.....................................XXXX.........",
"XXXXXXXXXX   X.....................................X   XXXXXXXXX",
"             X.....................................X            ",
"             X.....................................X            ",
"            X.......................................X           ",
"            X.......................................X           ",
"            X.......................................X           ",
"            X.......................................X           ",
"            X.......................................X           ",
"            X.......................................X           ",
"            X.......................................X           ",
"            X.......................................X           ",
"            X.......................................X           "
};
