/* XPM */
static char *_5596_e06e88e4f3a5ffee98ba4d658300453256da30c78e7b6907b19f013e0cfb7127[] = {
/* columns rows colors chars-per-pixel */
"64 64 3 1 ",
"  c #CC9A93",
". c #9FCFAC",
"X c #9FABCF",
/* pixels */
"............X.......................................X...........",
"............X.......................................X...........",
"............X.......................................X...........",
"............X.......................................X...........",
"............X.......................................X...........",
"............X.......................................X...........",
"............X.......................................X...........",
"............X.......................................X...........",
"............X.......................................X...........",
"............X.......................................X...........",
".............X.....................................X............",
".............X.....................................X............",
"XXXXXXXXXX...X.....................................X...XXXXXXXXX",
"..........XXXX.....................................XXXX.........",
"..............XXX...............................XXX.............",
"..............X  XX...........................XX  X.............",
"..............X    XX.......................XX    X.............",
"...............X     XX...................XX     X..............",
"...............X      XX.................XX      X..............",
"................X       X...............X       X...............",
"................X        X.............X        X...............",
".................X        X...........X        X................",
".................XX        X.........X        XX................",
"..................X         X.......X         X.................",
"...................X         X.....X         X..................",
"....................X        X.....X        X...................",
".....................X        X...X        X....................",
"......................X       X...X       X.....................",
".......................X      X...X      X......................",
"........................XX     X.X     XX.......................",
"..........................XXX  X.X  XXX.........................",
".............................XXX.XXX............................",
"................................X...............................",
".............................XXX.XXX............................",
"..........................XXX  X.X  XXX.........................",
"........................XX     X.X     XX.......................",
".......................X      X...X      X......................",
"......................X       X...X       X.....................",
".....................X        X...X        X....................",
"....................X        X.....X        X...................",
"...................X         X.....X         X..................",
"..................X         X.......X         X.................",
".................XX        X.........X        XX................",
".................X        X...........X        X................",
"................X        X.............X        X...............",
"................X       X...............X       X...............",
"...............X      XX.................XX      X..............",
"...............X     XX...................XX     X..............",
"..............X    XX.......................XX    X.............",
"..............X  XX...........................XX  X.............",
"..............XXX...............................XXX.............",
"..........XXXX.....................................XXXX.........",
"XXXXXXXXXX...X.....................................X...XXXXXXXXX",
".............X.....................................X............",
".............X.....................................X............",
"............X.......................................X...........",
"............X.......................................X...........",
"............X.......................................X...........",
"............X.......................................X...........",
"............X.......................................X...........",
"............X.......................................X...........",
"............X.......................................X...........",
"............X.......................................X...........",
"............X.......................................X..........."
};
