/* XPM */
static char *_7815_0ec802cbe20b8278828207266fe6211169e1c35d5f830c57c19940df46a87d9d[] = {
/* columns rows colors chars-per-pixel */
"64 64 2 1 ",
"  c #D1ABAB",
". c #9FABCF",
/* pixels */
"            .                                       .           ",
"            .                                       .           ",
"            .                                       .           ",
"            .                                       .           ",
"            .                                       .           ",
"            .                                       .           ",
"            .                                       .           ",
"            .                                       .           ",
"            .                                       .           ",
"            .                                       .           ",
"             .                                     .            ",
"             .                                     .            ",
"..........   .                                     .   .........",
"          ....                                     ....         ",
"              ...                               ...             ",
"              .  ..                           ..  .             ",
"              .    ..                       ..    .             ",
"               .     ..                   ..     .              ",
"               .      ..                 ..      .              ",
"                .       .               .       .               ",
"                .        .             .        .               ",
"                 .        .           .        .                ",
"                 ..        .         .        ..                ",
"                  .         .       .         .                 ",
"                   .         .     .         .                  ",
"                    .        .     .        .                   ",
"                     .        .   .        .                    ",
"                      .       .   .       .                     ",
"                       .      .   .      .                      ",
"                        ..     . .     ..                       ",
"                          ...  . .  ...                         ",
"                             ... ...                            ",
"                                .                               ",
"                             ... ...                            ",
"                          ...  . .  ...                         ",
"                        ..     . .     ..                       ",
"                       .      .   .      .                      ",
"                      .       .   .       .                     ",
"                     .        .   .        .                    ",
"                    .        .     .        .                   ",
"                   .         .     .         .                  ",
"                  .         .       .         .                 ",
"                 ..        .         .        ..                ",
"                 .        .           .        .                ",
"                .        .             .        .               ",
"                .       .               .       .               ",
"               .      ..                 ..      .              ",
"               .     ..                   ..     .              ",
"              .    ..                       ..    .             ",
"              .  ..                           ..  .             ",
"              ...                               ...             ",
"          ....                                     ....         ",
"..........   .                                     .   .........",
"             .                                     .            ",
"             .                                     .            ",
"            .                                       .           ",
"            .                                       .           ",
"            .                                       .           ",
"            .                                       .           ",
"            .                                       .           ",
"            .                                       .           ",
"            .                                       .           ",
"            .                                       .           ",
"            .                                       .           "
};
