/* XPM */
static char *_6089_008ff2aa4c93f80c6f5d446118225f40008f686eadefd20e626ff4d162ccf357[] = {
/* columns rows colors chars-per-pixel */
"64 64 8 1 ",
"  c black",
". c gray1",
"X c #2E0810",
"o c #4A0C18",
"O c #697D20",
"+ c #DE1039",
"@ c white",
"# c None",
/* pixels */
"################################################################",
"################################################################",
"################################################################",
"################################################################",
"################################################################",
"################################################################",
"################################################################",
"################################ ###############################",
"################################ #############.#################",
"################################ ############# #################",
"################################ ############# #################",
"################################ ############# #################",
"################################ ############# #################",
"################################ ############# #################",
"###############################   ##########   #################",
"############################### X ########## X #################",
"############################### X  ########  X #################",
"############################### XX ######## X  #################",
"############################### XX  ######  X ##################",
"############################### XXX ###### XX ##################",
"############################### XXX      # XX ##################",
"###############################     ooooo   X ##################",
"#############################   ooooooooooo   ##################",
"############################  ooooooooooooooo ##################",
"############################ oooooooo   oooo   #################",
"###########################  ooooooo +++ oo +++ #############   ",
"###   ##################### ooooooo +++++  +++++ ######         ",
"### ####################### ooooooo +++ +  +++ + #####  oooo    ",
"### ####################### ooooooo +++++  +++++ ###   ooooo    ",
"###  ###################### oooooooo +++ oo +++      ooooooo  ##",
"#### ###################### ooooooooo   oooo   ooooooooooooo  ##",
"####  ###################### ooooooooooooooooooooooooooooooo  ##",
"##### ###################### oooooooooooooooooooooooooooooooo ##",
"#####  #########     ####### ooooooooooooooooooooooooooooooo  ##",
"######  #        ooO    #### oooooooooo   oooooooooooooooo   ###",
"#######   ooOOOooooOOoo      oooooooooo #   ooooooooo      #####",
"#####   ooooOOOooooOOooOOO    ooooooooo ###           @#@@@#####",
"##### ooooooOOOooooOoooOOOooo ooooooooo  ###@@@#@@@#@@@#@@@#####",
"####  ooooooOOOooooooooOOOoooo ooooooooo ###@@@#@@@#@@##@@######",
"#### oooooooOOoooooooooOOooooo  oooooooo ####@##@@@#@@###@######",
"###  oooooooOOoooooooooOOoooooo  ooooooo ####@###@###@###@######",
"### ooooooooOOoooooooooOOooooooo  ooooooo #######@###@###@######",
"##  ooooooooOOoooooooooOOooooooo    ooooo ###@###@###@###@######",
"## oooooooooOOoooooooooOooooooooo # ooooo  #@@@###@######@######",
"## oooooooooOooooooooooOooooooooo ## ooooo  @@@##@@#############",
"## oooooooooOooooooooooOooooooooo ##  oooooo   #@@@#############",
"## ooooooooooooooooooooOoooooooo  ### oooooooo   @@#############",
"# oooooooooooooooooooooooooooooo ####  ooooooooo   #############",
"#  oooooooooooooooOooooooooooooo #####  ooooooooo   ############",
"## ooooooOooooooooOOoooooooooooo ######           ##############",
"## ooooooOooooooooOOooooooooOoo ################################",
"### oooooOOoooooooOOooooooooOoo ################################",
"### oooooOOoooooooOOooooooooOOo ################################",
"###  ooooOOoooooooOOOoooooooOO  ################################",
"#### ooooOOOooooooOOOoooooooOO #################################",
"##### oooOOOooooooOOOoooooooO      #############################",
"######  oOOOooooooOOOOooooo   ####   ###########################",
"#######                       ######  ##########################",
"###### ### ##################  ######  #########################",
"###### ### ################### #######  ########################",
"###### ### ################### ######## ########################",
"##### #### ################### ########  #######################",
"####  #### ################### ######### #######################",
"###  ####  ################### #########  ######################"
};
