/* XPM */
static char *_8452_010487883b675d15827c5e81e785bd657947d71a6ce32e79e30d14d58bb716a7[] = {
/* columns rows colors chars-per-pixel */
"64 64 3 1 ",
"  c #60B577",
". c #95CCA4",
"X c #9FCFAC",
/* pixels */
".XXXXXXXXXXXXXXXXXXXXXXXXXXXXXXXXXXXXX.XXXXXXXXXXXXXXXXXXXXXXXXX",
"XXXXXXXXXXXXXXXXXXXXXXXXXXXXXXXXXXXXX.XXXXXXXXXXXXXXXXXXXXXXXXXX",
"XXXXXXXXXXXXXXXXXXXXXXXXXXXXXXXXXXXXX.XXXXXXXXXXXXXXXXXXXXXXXXXX",
"XXXXXXXXXX.XXXXXXXXXXXXXXXXXXXXXXXXX.XXXXXXXXXXXXXXXXXXXXXXXXXXX",
"XXXXXXXXX..XXXXXXXXXXXXXXXXXXXXXXXX.XXXXXXXXXXXXXXXXXXXXXXXXXXXX",
"XXXXXXXXX.XXXXXXXXXXXXXXXXXXXXXXXX.XXXXXXXXXXXXXXXXXXXXXXXXXXXXX",
"XXXXXXXX.XXXXXXXXXXXXXXXXXXXXXXXX.XXXXXXXXXXXXXXXXXXXXXXXXXXXXXX",
"XXXXXXXXXXXXXXXXXXXXXXXXXXXXXXXXX.XXXXXXXXXXXXXXXXXXXXXXXXXXXXXX",
"XXXXXXXXXXXXXXXXXXXXXXXXXXXXXXXXX.XXXXXXXXXXXXXXXXXXXXXXXXXXXXXX",
"XXXXXXXXXXXXXXXXXXXXXXXXXXXXXXXXXXXXXXXXXXXXXXXXXXXXXXXXXXXXXXXX",
"XXXXXXXXXXXXXXXXX.XXXXXXXXXXXXXXXXXXXXXXXXXXXXXXXXX  XXXXXXXXXXX",
"XXXXXXXXXXXXXXXXXX.XXXXXXXXXXXXXXXXXXXXXXXXXXXXXXXX XXXXXXXXXXXX",
"XXXXXXXXXXXXXXXXXX.XXXXXXXXXXXXXXXXXXXXXXXXXXXXXXX XXXXXXXXXXXXX",
"XXXXXXXXXXXXXXXXXX..XXXXXXXXXXXXXXXXXXXXXXXXXXXXX XXXXXXXXXXXXXX",
"XXXXXXXXXXX XXXXXXXXXXXXXXXXXXXXXXXXXXXXXXXXXXXXX XXXXXXXXXXXXXX",
"XXXXXXXXXXXX XXXXXXXXXXXXXXXXXXXXXXXXXXXXXXXXXXXX XXXXXXXXXXXXXX",
"XXXXXXXXXXXXX XXXXXXXXXXXXXXXXXXXXXXXXXXXXXXXXXX XXXXXXXXXXXXXXX",
"XXXXXXXXXXXXX XXXXXXXXXXXXXXXXXXXXXXXXXXXXXXXXXXXXXXXXXXXXXXXXX.",
"XXXXXXXXXXXXX  XXXXXXXXXXXXXXXXXXXXXXXXXXXXXXXXXXXXXXXXXXXXXXX.X",
"XXXXXXXXXXXXXX XXXXXXXXXXXXX.XXXXXXXXXXXXXXXXXXXXXXXXXXXXXXXX..X",
"XXXXXXXXXXXXXX XXXXXXXXXXXXX.XXXXXXXXXXXXXXXXXXXXXXXXXXXXXXXXXXX",
"XXXXXXXXXXXXXXX XXXXXXXXXXXX.XXXXXXXXXXX.XXXXXXXXXXXXXXXXXXXXXXX",
"XXXXXXX.XXXXXXX XXXXXXXXXXXXX.XXXXXXXXXX.XXXXXXXXXXXXXXXXXXXXXXX",
"XXXXXXX..XXXXXX XXXXXXXXXXXXX.XXXXXXXXXX.XXXXXXXXXXXXXXXXXXXXXXX",
"XXXXXXXXX.XXXXX  XXXXXXXXXXXX.XXXXXXXXXX.XXXXXXXXXXXXXXXXXXXXXXX",
"XXXXXXXXX..XXXXXXXXXXXXXXXXXXX.XXXXXXXXX.XXXXXXXXXXXXXXXXXXXXXXX",
"XXXXXXXXXX.XXXXXXXXXXXXXXXXXXX.XXXXXXXXX.XXXXXXXXXXXXXXXXXXXXXXX",
"XXXXXXXXXX.XXXXXXXXXXXXXXXXXXX.XXXXXXXXXXXXXXXXXXXXXXXXXXXXXXXXX",
"XXXXXXXXXX.XXXXXXXXXXXXXXXXXXXXXXXXXXXXXXXXXXXXXXXXXXXXXXXXXXXXX",
"XXXXXXXXXXX.XXXXXXXXXXXXXXXXXXXXXXXXXXXXXXXXXXXXXXXXXXXXXXXXXXXX",
"XXXXXXXXXXXXXXXXXXXXXXXXXXXXXXXXXXXXXXXXXXXXXXXXXXXXXXXXX.XXXXXX",
"XXXXXXXXXXXXXXXXXXXXXXXXXXXXXXXXXXXXXXXXXXXXXXXXXXXXXXXX.XXXXXXX",
"XXXXXXXXXXXXXXXXXXXXXXXXXXXXXXXXXXXXXXXXXXXXXXXXXXXXXXX.XXXXXXXX",
"XXXXXXXXXXXXXXXXXXXXXXXXXXXXXXXXXXXXXXXXXXXXXXXXXXXXXXX.XXXXXXXX",
"XXXXXXXXXXXXXXXXXXXXXX.XXXXXXXXXXXXXXXXXXXXXXXXXXXXXXX.XXXXXXXXX",
"XXXXXXXXXXXXXXXXXXXXXX.XXXXXXXXXXXXXXXXXXXXXXXXXXXXXX.XXXXXXXXXX",
"XXXXX.XXXXXXXXXXXXXXXX.XXXXXXXXXXXXXXXXXXXXXXXXXXXXXXXXXXXXXXXXX",
"XXXXXX.XXXXXXXXXXXXXXX.XXXXXXXXXXXXXXX XXXXXXXXXXXXXXXXXXXXXXXXX",
"XXXXXX.XXXXXXXXXXXXXXX.XXXXXXXXXXXXXXX XXXXXXXXXXXXXXXXXXXXXXXXX",
"XXXXXX.XXXXXXXXXXXXXXX.XXXXXXXXXXXXXXX XXXXXXXXXXXXXXXXXXXXXXXXX",
"XXXXXXX.XXXXXXXXXXXXXX.XXXXXXXXXXXXXXX XXXXXXXXXXXXXXXXXXXXXXXXX",
"XXXXXXX.XXXXXXXXXXXXXX.XXXXXXXXXXXXXXX XXXXXXXXXXXXXXXXXXXXXXXXX",
"XXXXXXXX.XXXXXXXXXXXXX.XXXXXXXXXXXXXXX XXXXXXXXXXXXXXXXXXXX.XXXX",
"XXXXXXXX.XXXXXXXXXXXXX.XXXXXXXXXXXXXXXXXXXXX..XXXXXXXXXXXXX.XXXX",
"XXXXXXXX.XXXXXXXXXXXXXX.XXXXXXXXXXXXXXXXXXXX.XXXXXXXXXXXXX.XXXXX",
"XXXXXXXXXXXXXXXXXXXXXXX.XXXXXXXXXXXXXXXXXXX.XXXXXXXXXXXXXX.XXXXX",
"XXXXXXXXXXXXXXXXXXXXXXX.XXXXXXXXXXXXXXXXXXX.XXXXXXXXXXXXXXXXXXXX",
"XXXXXXXXXXXXXXXXXXXXXXX.XXXXXXXXXXXXXXXXXX.XXXXXXXXXXXXXXXXXXXXX",
"XXXXXXXXXXXXXXXXXXXXXXXX.XXXXXXXXXXXXXXXXX.XXXXXXXXXXXXXXXXXXXXX",
"XXXXXXXXXXXXXXXXXXXXXXXX.XXXXXXXXXXXXXXXXX.XXXXXXXXXXXXXXXXXXXXX",
"XXXXXXXXXXXXXXXXXXXXXXXX.XXXXXXXXXXXXXXXXX.XXXXXXXXXXXXXXXXXXXXX",
"XXXXXXXXXXXXXXXXXXXXXXXXXXXXXXXXXXXXXXXXXXXXXXXXXXXXXXXXX.XXXXXX",
"XXXXXXXXXXXXXXXXXXXXXXXXXXXXXXXXXXXXXXXXXXXXXXXXXXXXXXXX..XXXXXX",
"XXXXXXXXXXXXXXXX XXXXXXXXXXXXXXXXXXXXXXXXXXXXXXXXXXXXXX.XXXXXXXX",
"XXXXXXXXXX..XXXX  XXXXXXXXXXXXXXXXXXXXXXXXXXXXXXXXXXXXX.XXXXXXXX",
"XXXXXXXXX..XXXXXX XXXXXXXXXXXXXXXXXXXXXXXXXXXXXXXXXXXX.XXXXXXXXX",
"XXXXXXXX..XXXXXXXX XXXXXXXXXXXXXXXXXXXXXXXXXXXXXXXXXX..XXXXXXXXX",
"XXXXXXXX.XXXXXXXXX  XXXXXXXXXXXXXXXXXXXXXXXXXXXXXXXXX.XXXXXXXXXX",
"XXXXXXX.XXXXXXXXXXXXXXXXXXXXXXXXXXXXXXXXXXXXXXXXXXXXX.XXXXXXXXXX",
"XXXXXXXXXXXXXXXXXXXXXXXXXXXXXXXXXXXXXXXXXXXXXXXXXXXXXXXXXXXXXXXX",
"XXXXXXXXXXXXXXXXXXXXXXXXXXXXXXXXXXXXXXXXXXXXXXXXXXXXXXXXXXXXXXXX",
"XXXXXXXXXXXXXXXXXXXXXXXXXXXXXXXXXXXXXXXXXXXXXXXXXXXXXXXXXXXXXXXX",
"XXXXXXXXXXXXXXXXXXXXXXXXXXXXXXXXXXXXXXXXXXXXXXXXXXXXXXXXXXXXXXXX",
"XXXXXXXXXXXXXXXXXXXXXXXXXXXXXXXXXXXXXXXXXXXXXXXXXXXXXXXXXXXXXXXX"
};
