/* XPM */
static char *_224_c8a4290be982f040c01a689b28f9f0202adfd5de934504c3e59eb2f2e2e72ac7[] = {
/* columns rows colors chars-per-pixel */
"64 64 7 1 ",
"  c black",
". c #AD3975",
"X c #A892A8",
"o c #BAA7BA",
"O c #C2B1C2",
"+ c white",
"@ c None",
/* pixels */
"@@@@@@@@@@@@@@@@@@@@@@@@@@@@@@@@@@@@@@@@@@@@@@@@@@@@@@@@@@@@@@@@",
"@@@@@@@@@@@@@@@@@@@@@@@@@@@@@@@@@@@@@@@@@@@@@@@@@@@@@@@@@@@@@@@@",
"@@@@@@@@@@@@@@@@@@@@@@@@@@@@@@@@@@@@@@@@@@@@@@@@@@@@@@@@@@@@@@@@",
"@@@@@@@@@@@@@@@@@@@@@@@@@@@@@@@@@@@@@@@@@@@@@@@@@@@@@@@@@@@@@@@@",
"@@@@@@@@@@@@@@@@@@@@@@@@@@@@@@@@@@@@@@@@@@@@@@@@@@@@@@@@@@@@@@@@",
"@@@@@@@@@@@@@@@@@@@@  @@@@@@     @@@@@@@@@@@@@@@@@@@@@@@@@@@@@@@",
"@@@@@@@@@@@@@@@@@@  X @      XXX @@@@@@@@@@@@@@@@@@@@@@@@@@@@@@@",
"@@@@@@@@@@@@@@@@@@ X   OOOOO XXX @@@@@@@@@@@@@@@@@@@@@@@@@@@@@@@",
"@@@@@@@@@@@@@@@@@@   OOOOOOO  XX   @@@@@@@@@@@@@@@@@@@@@@@@@@@@@",
"@@@@@@@@@@@@@@@@@@ OOOOOOOOOO XX O  @@@@@@@@@@@@@@@@@@@@@@@@@@@@",
"@@@@@@@@@@@@@@@@@   OOOO   OO  X OO @@@@@@@@@@@@@@@@@@@@@@@@@@@@",
"   @@@@@@@@@@@@@ +++ OO +++ OO X OO  @@@@@@@@@@@@@@@@@@@@@@@@@@@",
"         @@@@@@ +++++  +++++ O   OOO @@@@@@@@@@@@@@@@@@@@@@@@@@@",
"    OOOO  @@@@@ +++++  +++++ OO  OOO @@@@@@@@@@@@@@@@@@@@@@@@@@@",
"    OOOOO   @@@ ++ ++  ++ ++ OO  OOO @@@@@@@@@@@@@@@@@@@@@@@@@@@",
"@@  OOOOOOO      +++ OO +++ OOOOOOOO @@@@@@@@@@@@@@@@@@@@@@@@@@@",
"@@  OOOOOOOOOOOOO   OOOO   OOOOOOOOO @@@@@@@@@@@@@@@@@@@@@@@@@@@",
"@@  OOOOOOOOOOOOOOOOOOOOOOOOOOOOOOO @@@@@@@@@@@@@@@@@@@@@@   @@@",
"@@ OOOOOOOOOOOOOOOOOOOOOOOOOOOOOOOO @@@@@@@@@@@@@@@@@@@@@@ @  @@",
"@@  OOOOOOOOOOOOOOOOOOOOOOOOOOOOOOO @@@@@@@     @@@@@@@@   @@ @@",
"@@@   OOOOOOOOOOOOOOOO   OOOOOOOOOO @@@@    ooo        @ @@@@  @",
"@@@@@      OOOOOOOOO   @ OOOOOOOOOO      ooooooooooooo    @@@@ @",
"@@@@@+++@+           @@@ OOOOOOOOO   ooooooooooooooooooo   @@@  ",
"@@@@@+++@+++@+++@+++@@@  OOOOOOOOO ooooooooooooooo...ooooo @@@@@",
"@@@@@@++  ++ +++ +++    OOOOOOOOO ooooooooooooooo.....oooo  @@@@",
"@@@@@@+OOO++O+++OO+OOOOOOOOOOOOO  ooooooooooooooo.....ooooo @@@@",
"@@@@@@ OOO+OOO+OOOOOOOOOOOOOOOO  oooooooooooooooo.....ooooo  @@@",
"@@@@@@  OOOOOOOOOOOOOOOOOOOOOO  oooooooooooooooooo...ooo.ooo @@@",
"@@@@@@@   OOOOOOOOOOOOO         ooooooooooooooooooooooo...oo  @@",
"@@@@@@@@@    OOOOO      @@@@@@ ooooooooooooooooooooooooo.oooo @@",
"@@@@@@@@@@@@       @@@@@@@@@@@ oooooooooooooooooooooooooooooo @@",
"@@@@@@@@@@@@@@@@@@@@@@@@@@@@@@ oooooooooooooooooooooooooooooo @@",
"@@@@@@@@@@@@@@@@@@@@@@@@@@@@@@  ooooooooooooooooooooooooooooo @@",
"@@@@@@@@@@@@@@@@@@@@@@@@@@@@@@@ oooooooooooooooooooooooooooooo @",
"@@@@@@@@@@@@@@@@@@@@@@@@@@@@@@@ ooooooooooooooooooooooooooooo  @",
"@@@@@@@@@@@@@@@@@@@@@@@@@@@@@@@ ooooooooooooooooooooooooooooo @@",
"@@@@@@@@@@@@@@@@@@@@@@@@@@@@@@@@ oooooooooooooooooooooooooooo @@",
"@@@@@@@@@@@@@@@@@@@@@@@@@@@@@@@@ ooooooooooooooooooooooooooo @@@",
"@@@@@@@@@@@@@@@@@@@@@@@@@@@@@@@@ ooooooooooooooooooooooooooo @@@",
"@@@@@@@@@@@@@@@@@@@@@@@@@@@@@@@@  ooooooooooooooooooooooooo  @@@",
"@@@@@@@@@@@@@@@@@@@@@@@@@@@@@@@@@ ooooooooooooooooooooooooo @@@@",
"@@@@@@@@@@@@@@@@@@@@@@@@@@@@@@@@@  ooooooooooooooooooooooo @@@@@",
"@@@@@@@@@@@@@@@@@@@@@@@@@@@@@@@@@    ooooooooooooooooooo  @@@@@@",
"@@@@@@@@@@@@@@@@@@@@@@@@@@@@@@@@@                         @@@@@@",
"@@@@@@@@@@@@@@@@@@@@@@@@@@@@@@@@ @ @@@@@@@@@@@@@@@@@@@ @@ @@@@@@",
"@@@@@@@@@@@@@@@@@@@@@@@@@@@@@@@@ @ @@@@@@@@@@@@@@@@@@@ @@ @@@@@@",
"@@@@@@@@@@@@@@@@@@@@@@@@@@@@@@@ @@ @@@@@@@@@@@@@@@@@@  @@ @@@@@@",
"@@@@@@@@@@@@@@@@@@@@@@@@@@@@@@@ @@ @@@@@@@@@@@@@@@@@@ @@@  @@@@@",
"@@@@@@@@@@@@@@@@@@@@@@@@@@@@@@ @@@ @@@@@@@@@@@@@@@@@@ @@@@ @@@@@",
"@@@@@@@@@@@@@@@@@@@@@@@@@@@@@@ @@@ @@@@@@@@@@@@@@@@@  @@@@ @@@@@",
"@@@@@@@@@@@@@@@@@@@@@@@@@@@@@@ @@@ @@@@@@@@@@@@@@@@@ @@@@@ @@@@@",
"@@@@@@@@@@@@@@@@@@@@@@@@@@@@@@ @@@ @@@@@@@@@@@@@@@@@ @@@@@ @@@@@",
"@@@@@@@@@@@@@@@@@@@@@@@@@@@@@@@@@@@@@@@@@@@@@@@@@@@@@@@@@@@@@@@@",
"@@@@@@@@@@@@@@@@@@@@@@@@@@@@@@@@@@@@@@@@@@@@@@@@@@@@@@@@@@@@@@@@",
"@@@@@@@@@@@@@@@@@@@@@@@@@@@@@@@@@@@@@@@@@@@@@@@@@@@@@@@@@@@@@@@@",
"@@@@@@@@@@@@@@@@@@@@@@@@@@@@@@@@@@@@@@@@@@@@@@@@@@@@@@@@@@@@@@@@",
"@@@@@@@@@@@@@@@@@@@@@@@@@@@@@@@@@@@@@@@@@@@@@@@@@@@@@@@@@@@@@@@@",
"@@@@@@@@@@@@@@@@@@@@@@@@@@@@@@@@@@@@@@@@@@@@@@@@@@@@@@@@@@@@@@@@",
"@@@@@@@@@@@@@@@@@@@@@@@@@@@@@@@@@@@@@@@@@@@@@@@@@@@@@@@@@@@@@@@@",
"@@@@@@@@@@@@@@@@@@@@@@@@@@@@@@@@@@@@@@@@@@@@@@@@@@@@@@@@@@@@@@@@",
"@@@@@@@@@@@@@@@@@@@@@@@@@@@@@@@@@@@@@@@@@@@@@@@@@@@@@@@@@@@@@@@@",
"@@@@@@@@@@@@@@@@@@@@@@@@@@@@@@@@@@@@@@@@@@@@@@@@@@@@@@@@@@@@@@@@",
"@@@@@@@@@@@@@@@@@@@@@@@@@@@@@@@@@@@@@@@@@@@@@@@@@@@@@@@@@@@@@@@@",
"@@@@@@@@@@@@@@@@@@@@@@@@@@@@@@@@@@@@@@@@@@@@@@@@@@@@@@@@@@@@@@@@"
};
