/* XPM */
static char *_567_ae61c39c530579920bab99fdaa7a81aa887798244a187e8b2c7f9de590993be7[] = {
/* columns rows colors chars-per-pixel */
"64 64 8 1 ",
"  c black",
". c #241724",
"X c #AD3975",
"o c #A892A8",
"O c #BAA7BA",
"+ c #C2B1C2",
"@ c white",
"# c None",
/* pixels */
"################################################################",
"################################################################",
"################################################################",
"################################################################",
"################################################################",
"################################################################",
"################################################################",
"################################################################",
"################################################################",
"################################################################",
"################################################################",
"################################################################",
"################################################################",
"################################################################",
"################################################################",
"################################################################",
"################################################################",
"################################################################",
"################################################################",
"################################################################",
"################################################################",
"################################################################",
"################################################################",
"################################################################",
"################################################################",
"################################################################",
"################################################################",
"################################################################",
"################################################################",
"################################################################",
"################################################################",
"################################################################",
"################################################################",
"################################################################",
"################################################################",
"################################################################",
"################################################################",
"################################################################",
"################################################################",
"###########################################     ################",
"########################################    OOO        #########",
"############################    ####     OOOOOOOOOOOOO   #######",
"###########################  oo      ooo OOOOOOOOOOOOOOO   #####",
"###########################    +++++  oo OOOOOOOOOXXXOOO   #####",
"##########################   ++++++++ oo   OOOOOOXXXXXOOO   ####",
"########################## ++++++++++  o +  OOOOOXXXXXOOOO  ####",
"#########################   ++++   +++ o ++ OOOOOXXXXXOOOO   ###",
"########   #############  +  ++  +  ++   ++  OOOOOXXXOOOXO O ###",
"########         ######  +++    +++  ++ ++++ OOOOOOOOOOXXX O  ##",
"########    ++++  ##### +++++  +++++ +++++++ OOOOOOOOOOOX  OO ##",
"########    +++++   ### ++++    +++  +++++++ OOOOOOOOOOO  OOO ##",
"##########  +++++++       +  ++  +  ++++++++ OOOOOOOOOO  OOOO ##",
"##########  +++++++++++++   ++++   +++++++++ OOOOOOOOOOOOOOOO ##",
"##########  +++++++++++++++++++++++++++++++ OOOOOOOOOOOOOOOOOO #",
"########## ++++++++++++++++++++++++++++++++ OOOOOOOOOOOOOOOOO  #",
"##########  +++++++++++++++++++++++++++++++ OOOOOOOOOOOOOOOOO ##",
"###########   ++++++++++++++++   ++++++++++ OOOOOOOOOOOOOOOOO ##",
"#############      +++++++++   ++++++++++++ OOOOOOOOOOOOOOOO ###",
"#################@         . +++++++++++++  OOOOOOOOOOOOOOOO ###",
"#################@@## ++++++++++++++++++++ OOOOOOOOOOO  OOO  ###",
"#####################   +++++++++++++++++ OOOOOOOOOOO    OO ####",
"#######################  +++++++++++++++ OOOOOOOOOOO  OO   #####",
"########################   ++++++++++++ OOOOOOOOOOO  OOO  ######",
"##########################                                ######"
};
