/* XPM */
static char *_0228_995b82c2c70df8ee0fd05851241ddf7be7006dd43afb3ee97952e7e18d107cb8[] = {
/* columns rows colors chars-per-pixel */
"64 64 221 2 ",
"   c black",
".  c #351817",
"X  c #2D1717",
"o  c #3C261A",
"O  c #381E21",
"+  c #3B2426",
"@  c #501B0E",
"#  c #472919",
"$  c #572916",
"%  c #56341C",
"&  c #4F200F",
"*  c #64341C",
"=  c #6C3418",
"-  c #75351A",
";  c #682B12",
":  c #452A25",
">  c #472928",
",  c #4D3328",
"<  c #5D3422",
"1  c #583A27",
"2  c #4A2F36",
"3  c #4D3639",
"4  c #533334",
"5  c #573A39",
"6  c #532B25",
"7  c #682B27",
"8  c #6A3524",
"9  c #663925",
"0  c #753A28",
"q  c #643730",
"w  c #733E35",
"e  c #5B422C",
"r  c #564522",
"t  c #5A4338",
"y  c #67422A",
"u  c #774626",
"i  c #654837",
"p  c #774835",
"a  c #76553A",
"s  c #6D513D",
"d  c #563D42",
"f  c #7A3D46",
"g  c #5D4647",
"h  c #614D41",
"j  c #7A4A44",
"k  c #6C5547",
"l  c #795A45",
"z  c #6A5459",
"x  c #715654",
"c  c #664F57",
"v  c #6E5A61",
"b  c #796667",
"n  c #853B32",
"m  c #9C3324",
"M  c #88441E",
"N  c #A74E1E",
"B  c #834D2A",
"V  c #884625",
"C  c #944B2B",
"Z  c #964A26",
"A  c #89522A",
"S  c #94522C",
"D  c #98572C",
"F  c #894737",
"G  c #964A39",
"H  c #85563A",
"J  c #9C5C32",
"K  c #965838",
"L  c #A85B2D",
"P  c #A34D31",
"I  c #A45D34",
"U  c #AA5938",
"Y  c #B75737",
"T  c #B34E38",
"R  c #99623A",
"E  c #AA642E",
"W  c #B56328",
"Q  c #AC6333",
"!  c #A5623B",
"~  c #AD643B",
"^  c #AE693C",
"/  c #A76436",
"(  c #B46A35",
")  c #B56B3C",
"_  c #B86737",
"`  c #BA713A",
"'  c #D1512E",
"]  c #C95638",
"[  c #D35D37",
"{  c #C36C3B",
"}  c #C76B36",
"|  c #D96B3B",
" . c #C5753B",
".. c #CC733B",
"X. c #C87538",
"o. c #D4753B",
"O. c #DA753E",
"+. c #D37C3D",
"@. c #DA7C3B",
"#. c #D17236",
"$. c #E57E3F",
"%. c #985746",
"&. c #915155",
"*. c #8B514A",
"=. c #AA5947",
"-. c #B85B48",
";. c #B55E54",
":. c #8C6C54",
">. c #AC6A43",
",. c #A86847",
"<. c #BB6B45",
"1. c #B86746",
"2. c #B87248",
"3. c #A96A51",
"4. c #BB6B54",
"5. c #B26853",
"6. c #A97355",
"7. c #BB7351",
"8. c #B77758",
"9. c #826C62",
"0. c #9A6567",
"q. c #866D72",
"w. c #897477",
"e. c #AF736E",
"r. c #C55F57",
"t. c #C46B45",
"y. c #CB6B45",
"u. c #CB6649",
"i. c #CC6C4D",
"p. c #C56647",
"a. c #D5684C",
"s. c #C97A44",
"d. c #C3744C",
"f. c #C97647",
"g. c #DB7344",
"h. c #D37E41",
"j. c #D77847",
"k. c #C76A57",
"l. c #D76B57",
"z. c #C87956",
"x. c #D67355",
"c. c #DB7554",
"v. c #D47459",
"b. c #DA7A5A",
"n. c #D87B57",
"m. c #E47443",
"M. c #E57945",
"N. c #EC7F45",
"B. c #EA7746",
"V. c #E46E53",
"C. c #E47C54",
"Z. c #E77D5A",
"A. c #EA7957",
"S. c #F27755",
"D. c #EB7547",
"F. c #DA7662",
"G. c #CE6E60",
"H. c #E97C62",
"J. c #D1813D",
"K. c #E0803D",
"L. c #AD8C6E",
"P. c #CD8143",
"I. c #CF824E",
"U. c #D48443",
"Y. c #DC8245",
"T. c #D48249",
"R. c #DB834A",
"E. c #D9894E",
"W. c #DC835C",
"Q. c #D98655",
"!. c #C3805D",
"~. c #E38343",
"^. c #EA834C",
"/. c #E2884C",
"(. c #E98749",
"). c #F38B4B",
"_. c #F18649",
"`. c #F2914E",
"'. c #EB845A",
"]. c #E78758",
"[. c #F48454",
"{. c #F68C54",
"}. c #F58B5C",
"|. c #F2855A",
" X c #E69157",
".X c #F59254",
"XX c #F69B56",
"oX c #F6925D",
"OX c #F69B5E",
"+X c #F6A159",
"@X c #CD936D",
"#X c #F58D61",
"$X c #EA9769",
"%X c #F69462",
"&X c #F69B62",
"*X c #F79D6C",
"=X c #E68A65",
"-X c #F5A264",
";X c #F6A46D",
":X c #F7AB6B",
">X c #E5A47A",
",X c #F4A874",
"<X c #F6B07D",
"1X c #4064AD",
"2X c #887D80",
"3X c #9A8688",
"4X c #A89697",
"5X c #B28D89",
"6X c #BBA596",
"7X c #B9AAA6",
"8X c #D68880",
"9X c #D7B597",
"0X c #F6B688",
"qX c #EBAB87",
"wX c #CFB0AE",
"eX c #EFB7A8",
"rX c #C9B8C1",
"tX c #D4C9C1",
"yX c #E9D1D0",
"uX c #F5DFE2",
"iX c None",
/* pixels */
"iXiXiXiXiXiXiXiXiXiXiXiXiXiXiXiXiXiXiXiXiXiXiXiXiXiXiXiXiXiXiXiXiXiXiXiXiXiXiXiXiXiXiXiXiXiXiXiXiXiXiXiXiXiXiXiXiXiXiXiXiXiXiXiX",
"iXiXiXiXiXiXiXiXiXiXiXiXiXiXiXiXiXiXiXiXiXiXiXiXiXiXiXiXiXiXiXiXiXiXiXiXiXiXiXiXiXiXiXiXiXiXiXiXiXiXiXiXiXiXiXiXiXiXiXiXiXiXiXiX",
"iXiXiXiXiXiXiXiXiXiXiXiXiXiXiXiXiXiXiXiXiXiXiXiXiXiXiXiXiXiXiXiXiXiXiXiXiXiXiXiXiXiXiXiXiXiXiXiXiXiXiXiXiXiXiXiXiXiXiXiXiXiXiXiX",
"iXiXiXiXiXiXiXiXiXiXiXiXiXiXiXiXiXiXiXiXiXiXiXiXiXiX2Xd d 2 c w.3Xv z rXiXiXiXiXiXiXiXiXiXiXiXiXiXiXiXiXiXiXiXiXiXiXiXiXiXiXiXiX",
"iXiXiXiXiXiXiXiXiXiXiXiXiXiXiXiXiXiXiXiXiXiXiXiXrX2 d 2X2X2X3X4X4Xv b L.4X3XiXiXiXiXiXiXiXiXiXiXiXiXiXiXiXiXiXiXiXiXiXiXiXiXiXiX",
"iXiXiXiXiXiXiXiXiXiXiXiXiXiXiXiXiXiXiXiXiXiXiXuXO z d . v d g d g 3 g 9.6X9.x tXiXiXiXiXiXiXiXiXiXiXiXiXiXiXiXiXiXiXiXiXiXiXiXiX",
"iXiXiXiXiXiXiXiXiXiXiXiXiXiXiXiXiXiXiXiXiXiXiX+ > d d O O 2 2 d 3 o # t y 9.k h 7XiXiXiXiXiXiXiXiXiXiXiXiXiXiXiXiXiXiXiXiXiXiXiX",
"iXiXiXiXiXiXiXiXiXiXiXiXiXiXiXiXiXiXiXiXiXiXc 4 d 5 6 > > 4 4 q , e 1 r i k r o g iXiXiXiXiXiXiXiXiXiXiXiXiXiXiXiXiXiXiXiXiXiXiX",
"iXiXiXiXiXiXiXiXiXiXiXiXiXiXiXiXiXiXiXiXiXiX4 4 5 4 4 > t i i a k s l a l s r h v 7XiXiXiXiXiXiXiXiXiXiXiXiXiXiXiXiXiXiXiXiXiXiX",
"iXiXiXiXiXiXiXiXiXiXiXiXiXiXiXiXiXiXiXiXiXc j B p w p q i p a H H R 6.6.,.L.L.7XL.v yXiXiXiXiXiXiXiXiXiXiXiXiXiXiXiXiXiXiXiXiXiX",
"iXiXiXiXiXiXiXiXiXiXiXiXiXiXiXiXiXiXiXiXw.a 3.k.4.z.5.p u ,.>.>.^ 2.I.@X@X>X9X9Xb t + iXiXiXiXiXiXiXiXiXiXiXiXiXiXiXiXiXiXiXiXiX",
"iXiXiXiXiXiXiXiXiXiXiXiXiXiXiXiXiXiXiXiX4 5.k.l.b.C.b.1.,.I.W.'. XQ.,X X<X0X>XL.:.t X L.iXiXiXiXiXiXiXiXiXiXiXiXiXiXiXiXiXiXiXiX",
"iXiXiXiXiXiXiXiXiXiXiXiXiXiXiXiXiXiXiXiX*.@Xv.c.C.A.Z.C.|.[.{.oX}.,X0X0X,X<X>X@Xl r + : iXiXiXiXiXiXiXiXiXiXiXiXiXiXiXiXiXiXiXiX",
"iXiXiXiXiXiXiXiXiXiXiXiXiXiXiXiXiXiXiXiX0.z.v.b.C.Z.Z.A.{.S.[.{.*X<X0X0X,X<X,XL.l r # # iXiXiXiXiXiXiXiXiXiXiXiXiXiXiXiXiXiXiXiX",
"iXiXiXiXiXiXiXiXiXiXiXiXiXiXiXiXiXiXiX4Xe.x.i.b.'.^.[.[.[.{.{.oX;X;X,X,X-X;X>XL.L.r # . 4XiXiXiXiXiXiXiXiXiXiXiXiXiXiXiXiXiXiXiX",
"iXiXiXiXiXiXiXiXiXiXiXiXiXiXiXiXiXiXiXj k.v.x.C.'.|.}.|.}..XOX&X&X-XOXOXOXQ.I.8.:.a o , t iXiXiXiXiXiXiXiXiXiXiXiXiXiXiXiXiXiXiX",
"iXiXiXiXiXiXiXiXiXiXiXiXiXiXiXiXiXiXiX*.k.v.b.Z.}.}.#X%X%XOX-XOXOXOX.X.X XR.s.8.R y , + 4 iXiXiXiXiXiXiXiXiXiXiXiXiXiXiXiXiXiXiX",
"iXiXiXiXiXiXiXiXiXiXiXiXiXiXiXiXiXiXiX*.k.v.C.'.#X}.%X}.oX&X:X&X+X.X.X.X(.o.2.>.R p , : d iXiXiXiXiXiXiXiXiXiXiXiXiXiXiXiXiXiXiX",
"iXiXiXiXiXiXiXiXiXiXiXiXiXiXiXiXiXiXiX&.k.v.Z.|.}.}.#XoX%X-X:X+XXX`.).).Y.f.) D B y . . q.iXiXiXiXiXiXiXiXiXiXiXiXiXiXiXiXiXiXiX",
"iXiXiXiXiXiXiXiXiXiXiXiXiXiXiXiXiXiXiX&.k.v.Z.[.}.}.oX%X%X-X:X+XXX).).~.O...L S p y # X 3XiXiXiXiXiXiXiXiXiXiXiXiXiXiXiXiXiXiXiX",
"iXiXiXiXiXiXiXiXiXiXiXiXiXiXiXiXiXiXiXe.k.F.Z.|.}.%X%X%X%X&X:X+X`.).).~.o.} ) R u % # . w.iXiXiXiXiXiXiXiXiXiXiXiXiXiXiXiXiXiXiX",
"iXiXiXiXiXiXiXiXiXiXiXiXiXiXiXiXiXiXiX2X=.v.F.#X%X&X&X%X%X-X-XXX`.).).K.O._ / A a $ # 6 x iXiXiXiXiXiXiXiXiXiXiXiXiXiXiXiXiXiXiX",
"iXiXiXiXiXiXiXiXiXiXiXiXiXiXiXiXiXiXiX0.n F 7.=X$X%X%XoXoX&X-X.X`.).).K.o.} E A * % # 6 iXiXiXiXiXiXiXiXiXiXiXiXiXiXiXiXiXiXiXiX",
"iXiXiXiXiXiXiXiXiXiXiXiXiXiXiXiXiXiXiXf 8 $ w %.Q.%X%X'.]. X-X X+.J.Y.K.+.} L A y r q p iXiXiXiXiXiXiXiXiXiXiXiXiXiXiXiXiXiXiXiX",
"iXiXiXiXiXiXiXiXiXiXiXiXiXiXiXiXiXiXuX*.G ,.M S d.#X#XC.y.%.K B E L ..#.o.} E u % y i q iXiXiXiXiXiXiXiXiXiXiXiXiXiXiXiXiXiXiXiX",
"iXiXiXiXiXiXiXiXiXiXiXiXiXiXiXiXiXiXwXn 5.n.b.t.d.'.}.'.t.~ S J / ) _ } } #.( u 9 1 x j iXiXiXiXiXiXiXiXiXiXiXiXiXiXiXiXiXiXiXiX",
"iXiXiXiXiXiXiXiXiXiXiXiXiXiXiXiXiXiXe.=.F %.7.p.Y c.C.'.g.y.s.Q. .{ { { #.#.( u < % @ 7 iXiXiXiXiXiXiXiXiXiXiXiXiXiXiXiXiXiXiXiX",
"iXiXiXiXiXiXiXiXiXiXiXiXiXiXiXiXiXiXe.=.F & n 1.f.p.'.^.g.} { Q.E. .W ..X.#.( B 9 < ; %.wXiXiXiXiXiXiXiXiXiXiXiXiXiXiXiXiXiXiXiX",
"iXiXiXiXiXiXiXiXiXiXiXiXiXiXiXiXiXiXe.k.-.1.p.v.y.y.}.D.g...Y A <.( W +.+.#.} u % 9 p m 8XiXiXiXiXiXiXiXiXiXiXiXiXiXiXiXiXiXiXiX",
"iXiXiXiXiXiXiXiXiXiXiXiXiXiXiXiXiXiX5.l.T T u.x.u.m.[.m.m.g.Y P N } #.~.o.#.} B < 8 C T qXiXiXiXiXiXiXiXiXiXiXiXiXiXiXiXiXiXiXiX",
"iXiXiXiXiXiXiXiXiXiXiXiXiXiXiXiXiXiX8.a.l.V.V.a.i.C.S.B.D.m.| =X(.o.M.~.o.O._ A < 0 m u.eXiXiXiXiXiXiXiXiXiXiXiXiXiXiXiXiXiXiXiX",
"iXiXiXiXiXiXiXiXiXiXiXiXiXiXiXiXiXiX4.l.V.V.V.u.p.a.M.N.$.| #X| N.N.$.~.o.o.W u 9 - P u.eXiXiXiXiXiXiXiXiXiXiXiXiXiXiXiXiXiXiXiX",
"iXiXiXiXiXiXiXiXiXiXiXiXiXiXiXiXiXiX;.V.V.S.V.p.p.g.m.N.^.m.S.{.{.{._.$.@.#.( u y V C ' eXiXiXiXiXiXiXiXiXiXiXiXiXiXiXiXiXiXiXiX",
"iXiXiXiXiXiXiXiXiXiXiXiXiXiXiXiXiXiXr.F.S.S.p.1.v.#Xm.| O.m.OXoXOX{._.K.h.#.( 9 < 0 T [ yXiXiXiXiXiXiXiXiXiXiXiXiXiXiXiXiXiXiXiX",
"iXiXiXiXiXiXiXiXiXiXiXiXiXiXiXiXiXiXr.l.S.u.k.;.H.'.m.m.m.#.R.-XoX{._.K.Y.} D 9 $ G [ H.iXiXiXiXiXiXiXiXiXiXiXiXiXiXiXiXiXiXiXiX",
"iXiXiXiXiXiXiXiXiXiXiXiXiXiXiXiXiXiXr.r.l.,.w 6 k.i.i.].n.f.j.{..X).$.$.o. .Z % $ U [ G.iXiXiXiXiXiXiXiXiXiXiXiXiXiXiXiXiXiXiXiX",
"iXiXiXiXiXiXiXiXiXiXiXiXiXiXiXiXiXiX;.4.-.q # o @ u 8 * = H ^ {.)._.$.K.#. .I V ; L | iXiXiXiXiXiXiXiXiXiXiXiXiXiXiXiXiXiXiXiXiX",
"iXiXiXiXiXiXiXiXiXiXiXiXiXiXiXiXiXiX4.1.F 4 > o o a , # $ y u U._.~.@.@..._ Q L Z y.| iXiXiXiXiXiXiXiXiXiXiXiXiXiXiXiXiXiXiXiXiX",
"iXiXiXiXiXiXiXiXiXiXiXiXiXiXiXiXiXiXe.k.0 > 6 # $ G $ # # r r D j.@.@.+.X._ Q E I Q.a.iXiXiXiXiXiXiXiXiXiXiXiXiXiXiXiXiXiXiXiXiX",
"iXiXiXiXiXiXiXiXiXiXiXiXiXiXiXiXiXiX5X7.0 q < 8 n -.G - = B * u  .+.@.+. .( Q Q / %.S iXiXiXiXiXiXiXiXiXiXiXiXiXiXiXiXiXiXiXiXiX",
"iXiXiXiXiXiXiXiXiXiXiXiXiXiXiXiXiXiX5X8.,.K $ 9 $ @ 0 7 %.%.%.* E P.J.J.` ( / Q I iXiXiXiXiXiXiXiXiXiXiXiXiXiXiXiXiXiXiXiXiXiXiX",
"iXiXiXiXiXiXiXiXiXiXiXiXiXiXiXiXiXiXiX8.Q.1.,.@X* # @ @ @ @ @ A W U.U. .( ^ ~ ( K iXiXiXiXiXiXiXiXiXiXiXiXiXiXiXiXiXiXiXiXiXiXiX",
"iXiXiXiXiXiXiXiXiXiXiXiXiXiX          :.7.z.z.=.-.F.v.-.u.u.#Xs.E.P.P.` ^ ( ) ) * iXiXiXiXiXiXiXiXiXiXiXiXiXiXiXiXiXiXiXiXiXiXiX",
"iXiXiXiXiXiXiXiXiXiX          ' ' ' ' ' 8.z.d.1.F.b.i.c.c.c.C.T.U.P.P.E ( ( ) J           iXiXiXiXiXiXiXiXiXiXiXiXiXiXiXiXiXiXiX",
"iXiXiXiXiXiXiXiXiX    ' ' ' ' ' ' ' '   3.z.2.1.x.b.Z.#XC.j./.J.P.P. .^ ) ` ^ B ' ' ' '       iXiXiXiXiXiXiXiXiXiXiXiXiXiXiXiXiX",
"iXiXiXiXiXiXiXiX    ' ' '               6.8.7.=.d.d.z.=XR.Y.j.U.U.U.( ) ) 2.! -   ' ' ' ' '       iXiXiXiXiXiXiXiXiXiXiXiXiXiXiX",
"iXiXiXiXiXiXiX    ' '       iXiXiXiX  ' :.>.d.f.<.z.Q.Q.R.~.+.E.X. .( ~ U I A '           ' ' '     iXiXiXiXiXiXiXiXiXiXiXiXiXiX",
"iXiXiXiXiXK.K.K.    K.  iXiXiXiXiX    ' ' R d.x.t.f.I./.].~.U.T.U. .Q / =.C - ' '   iXiX      ' '     iXiXiXiXiXiXiXiXiXiXiXiXiX",
"iXiXiXiXiXK.iXK.iXK.K.K.iXiXiXiXiX  ' ' ' %.7.<.T.T. X/./.R.U.P.s.( I I Z V C ' '   iXiXiXiX    '     K.K.K.iXiXiXiXiXiXiXiXiXiX",
"iXiXiXiXiXK.iXK.iXK.K.K.K.iXiXiXiX  ' ' ' K 7.<.T.E. X~./.T.s.` 2.L J Z Z Z ' ' '   iXiXiXiXiX  K.  K.K.iXK.K.iXiXiXiXiXiXiXiXiX",
"iXiXiXiXiXiXiXK.K.iXK.iXK.iXiXiXiX  ' ' ' u 5.2.T. X XE.E.P.` 2./ D C M Z ' ' ' '   iXiXiXiXiXiXiXK.iXK.iXiXK.iXiXiXiXiXiXiXiXiX",
"iXiXiXiXiXiXiXiXiXiXiXiXiXiXiXiXiX  ' ' ' ' H 5.d.s.I.P.s.E ` ~ D A Z ' ' ' ' ' '   iXiXiXiXiXiXiXK.iXiXK.iXiXiXiXiXiXiXiXiXiXiX",
"iXiXiXiXiXiXiXiXiXiXiXiXiXiXiXiXiX    ' ' ' 9 K ! ,.>.2.D E f.J S S ' ' ' ' ' '     iXiXiXiXiXiXiXK.K.iXiXiXiXiXiXiXiXiXiXiXiXiX",
"iXiXiXiXiXiXiXiXiXiXiXiXiXiXiXiXiXiX  ' ' ' ' F u B V Z <.d.Q A ' ' ' ' ' ' ' '   iXiXiXiXiXiXiXiXiXiXiXiXiXiXiXiXiXiXiXiXiXiXiX",
"iXiXiXiXiXiXiXiXiXiXiXiXiXiXiXiXiXiX    ' ' ' ' K ! 1.<.<./ D ' ' ' ' ' ' ' '     iXiXiXiXiXiXiXiXiXiXiXiXiXiXiXiXiXiXiXiXiXiXiX",
"iXiXiXiXiXiXiXiXiXiXiXiX                    ' ' ' C J K S ' ' ' ' ' ' ' ' '           iXiXiXiXiXiXiXiXiXiXiXiXiXiXiXiXiXiXiXiXiX",
"iXiXiXiXiXiXiXiXiXiXiX    1X1X1X1X1X1X1X1X      ' ' ' ' ' ' ' ' ' ' ' ' '   1X1X1X1X      iXiXiXiXiXiXiXiXiXiXiXiXiXiXiXiXiXiXiX",
"iXiXiXiXiXiXiXiXiXiX    1X1X1X1X          1X1X1X      ' ' ' ' ' ' ' ' '           1X1X1X      iXiXiXiXiXiXiXiXiXiXiXiXiXiXiXiXiX",
"iXiXiXiXiXiXiXiXiX    1X1X        iXiXiXiX      1X1X      ' '             iXiXiX        1X1X  iXiXiXiXiXiXiXiXiXiXiXiXiXiXiXiXiX",
"iXiXiXiXiXiXiXiXiX  1X1X    iXiXiXiXiXiXiXiXiXiX      1X        iXiXiXiXiXiXiXiXiXiXiX    1X    iXiXiXiXiXiXiXiXiXiXiXiXiXiXiXiX",
"iXiXiXiXiXiXiXiXiX  1X    iXiXiXiXiXiXiXiXiXiXiXiXiXiXiXiXiXiXiXiXiXiXiXiXiXiXiXiXiXiXiX  1X1X  iXiXiXiXiXiXiXiXiXiXiXiXiXiXiXiX",
"iXiXiXiXiXiXiX          iXiXiXiXiXiXiXiXiXiXiXiXiXiXiXiXiXiXiXiXiXiXiXiXiXiXiXiXiXiXiXiX              iXiXiXiXiXiXiXiXiXiXiXiXiX",
"iXiXiXiXiX              iXiXiXiXiXiXiXiXiXiXiXiXiXiXiXiXiXiXiXiXiXiXiXiXiXiXiXiXiXiXiXiX                iXiXiXiXiXiXiXiXiXiXiXiX",
"iXiXiXiXiX              iXiXiXiXiXiXiXiXiXiXiXiXiXiXiXiXiXiXiXiXiXiXiXiXiXiXiXiXiXiXiXiX                iXiXiXiXiXiXiXiXiXiXiXiX"
};
