/* XPM */
static char *_21_04e12ea46b2a85acfd84ce000b5469f439eab6b8bee28d80ac3c5b4645fed210[] = {
/* columns rows colors chars-per-pixel */
"32 58 4 1 ",
"  c #241724",
". c #E3511C",
"X c white",
"o c None",
/* pixels */
"................................",
"................................",
"..XXXXXXXXXXXXXXXXXXXXXXXXXXXX..",
"..XXXXXXXXXXXXXXXXXXXXXXXXXXXX..",
"..XXXXXXXX            XXXXXXXX..",
"..XXXXXXX              XXXXXXX..",
"..XXXXXX                XXXXXX..",
"..XXXXXXX              XX XXXX..",
"..XXXXXXXX            Xo   XXX..",
"..XXXXXXXXXXXXXXXXXXXXX     XX..",
"..XXXXXXXXXXXXXXXXXXXXX     XX..",
"..XXXXXXXXXXXXXXXXXXXXX     XX..",
"..XXXXXXXXXXXXXXXXXXXXX     XX..",
"..XXXXXXXXXXXXXXXXXXXXX     XX..",
"..XXXXXXXXXXXXXXXXXXXXX     XX..",
"..XXXXXXXXXXXXXXXXXXXXX     XX..",
"..XXXXXXXXXXXXXXXXXXXXX     XX..",
"..XXXXXXXXXXXXXXXXXXXXX     XX..",
"..XXXXXXXXXXXXXXXXXXXXX     XX..",
"..XXXXXXXXXXXXXXXXXXXXX     XX..",
"..XXXXXXXXXXXXXXXXXXXXX     XX..",
"..XXXXXXXXXXXXXXXXXXXXX     XX..",
"..XXXXXXXXXXXXXXXXXXXXX     XX..",
"..XXXXXXXXXXXXXXXXXXXXX     XX..",
"..XXXXXXXXXXXXXXXXXXXXX     XX..",
"..XXXXXXXXXXXXXXXXXXXXX     XX..",
"..XXXXXXXX            XX   oXX..",
"..XXXXXXX              XX oXXX..",
"..XXXXXX                XXXXXX..",
"..XXXX Xo              XXXXXXX..",
"..XXX   XX            XXXXXXXX..",
"..XX     XXXXXXXXXXXXXXXXXXXXX..",
"..XX     XXXXXXXXXXXXXXXXXXXXX..",
"..XX     XXXXXXXXXXXXXXXXXXXXX..",
"..XX     XXXXXXXXXXXXXXXXXXXXX..",
"..XX     XXXXXXXXXXXXXXXXXXXXX..",
"..XX     XXXXXXXXXXXXXXXXXXXXX..",
"..XX     XXXXXXXXXXXXXXXXXXXXX..",
"..XX     XXXXXXXXXXXXXXXXXXXXX..",
"..XX     XXXXXXXXXXXXXXXXXXXXX..",
"..XX     XXXXXXXXXXXXXXXXXXXXX..",
"..XX     XXXXXXXXXXXXXXXXXXXXX..",
"..XX     XXXXXXXXXXXXXXXXXXXXX..",
"..XX     XXXXXXXXXXXXXXXXXXXXX..",
"..XX     XXXXXXXXXXXXXXXXXXXXX..",
"..XX     XXXXXXXXXXXXXXXXXXXXX..",
"..XX     XXXXXXXXXXXXXXXXXXXXX..",
"..XX     XXXXXXXXXXXXXXXXXXXXX..",
"..XX     XXXXXXXXXXXXXXXXXXXXX..",
"..XXX   XX            XXXXXXXX..",
"..XXXX XX              XXXXXXX..",
"..XXXXXX                XXXXXX..",
"..XXXXXoX              oXXXXXX..",
"..XXXXXXoX            oXXXXXXX..",
"..XXXXXXXXXXXXXXXXXXXXXXXXXXXX..",
"..XXXXXXXXXXXXXXXXXXXXXXXXXXXX..",
"................................",
"................................"
};
