/* XPM */
static char *_6282_8c392e893db3173084c0f4ec7f570c2e658f83e884ad88fd000e1fa192129162[] = {
/* columns rows colors chars-per-pixel */
"32 58 4 1 ",
"  c #241724",
". c #E3511C",
"X c white",
"o c None",
/* pixels */
"................................",
"................................",
"..XXXXXXXXXXXXXXXXXXXXXXXXXXXX..",
"..XXXXXXXXXXXXXXXXXXXXXXXXXXXX..",
"..XXXXXXXX            XXXXXXXX..",
"..XXXXXXX              XXXXXXX..",
"..XXXoXX                XXXXXX..",
"..XXoX XX              XXXXXXX..",
"..XXX   XX            XXXXXXXX..",
"..XX     XXXXXXXXXXXXXXXXXXXXX..",
"..XX     XXXXXXXXXXXXXXXXXXXXX..",
"..XX     XXXXXXXXXXXXXXXXXXXXX..",
"..XX     XXXXXXXXXXXXXXXXXXXXX..",
"..XX     XXXXXXXXXXXXXXXXXXXXX..",
"..XX     XXXXXXXXXXXXXXXXXXXXX..",
"..XX     XXXXXXXXXXXXXXXXXXXXX..",
"..XX     XXXXXXXXXXXXXXXXXXXXX..",
"..XX     XXXXXXXXXXXXXXXXXXXXX..",
"..XX     XXXXXXXXXXXXXXXXXXXXX..",
"..XX     XXXXXXXXXXXXXXXXXXXXX..",
"..XX     XXXXXXXXXXXXXXXXXXXXX..",
"..XX     XXXXXXXXXXXXXXXXXXXXX..",
"..XX     XXXXXXXXXXXXXXXXXXXXX..",
"..XX     XXXXXXXXXXXXXXXXXXXXX..",
"..XX     XXXXXXXXXXXXXXXXXXXXX..",
"..XX     XXXXXXXXXXXXXXXXXXXXX..",
"..XXX   XX            XXXXXXXX..",
"..XXXX Xo              XXXXXXX..",
"..XXXXXo                XXXXXX..",
"..XXXX Xo              XX oXXX..",
"..XXX   XX            XX   oXX..",
"..XX     XXXXXXXXXXXXXX     XX..",
"..XX     XXXXXXXXXXXXXX     XX..",
"..XX     XXXXXXXXXXXXXX     XX..",
"..XX     XXXXXXXXXXXXXX     XX..",
"..XX     XXXXXXXXXXXXXX     XX..",
"..XX     XXXXXXXXXXXXXX     XX..",
"..XX     XXXXXXXXXXXXXX     XX..",
"..XX     XXXXXXXXXXXXXX     XX..",
"..XX     XXXXXXXXXXXXXX     XX..",
"..XX     XXXXXXXXXXXXXX     XX..",
"..XX     XXXXXXXXXXXXXX     XX..",
"..XX     XXXXXXXXXXXXXX     XX..",
"..XX     XXXXXXXXXXXXXX     XX..",
"..XX     XXXXXXXXXXXXXX     XX..",
"..XX     XXXXXXXXXXXXXX     XX..",
"..XX     XXXXXXXXXXXXXX     XX..",
"..XX     XXXXXXXXXXXXXX     XX..",
"..XX     XXXXXXXXXXXXXX     XX..",
"..XXX   XX            XX   XXX..",
"..XXXX XX              XX XoXX..",
"..XXXXXX                XXoXXX..",
"..XXXXXoX              oXXXXXX..",
"..XXXXXXoX            oXXXXXXX..",
"..XXXXXXXXXXXXXXXXXXXXXXXXXXXX..",
"..XXXXXXXXXXXXXXXXXXXXXXXXXXXX..",
"................................",
"................................"
};
