/* XPM */
static char *_2090_1ee1cf74ecc1da6bcd64e709ec730d225a666367bacdd48c63436ec5e7ceb403[] = {
/* columns rows colors chars-per-pixel */
"64 64 2 1 ",
"  c #95CCA4",
". c #9FCFAC",
/* pixels */
"             .......................................            ",
"             .......................................            ",
"             .......................................            ",
"             .......................................            ",
"             .......................................            ",
"             .......................................            ",
"             .......................................            ",
"             .......................................            ",
"             .......................................            ",
"             .......................................            ",
"              .....................................             ",
"              .....................................             ",
"              .....................................             ",
"..........    .....................................    .........",
"..............   ...............................   .............",
"..............     ...........................     .............",
"..............       .......................       .............",
"...............        ...................        ..............",
"...............         .................         ..............",
"................         ...............         ...............",
"................          .............          ...............",
".................          ...........          ................",
".................           .........           ................",
"..................           .......           .................",
"...................           .....           ..................",
"....................          .....          ...................",
".....................          ...          ....................",
"......................         ...         .....................",
".......................        ...        ......................",
"........................        .        .......................",
"..........................      .      .........................",
".............................   .   ............................",
"................................ ...............................",
".............................   .   ............................",
"..........................      .      .........................",
"........................        .        .......................",
".......................        ...        ......................",
"......................         ...         .....................",
".....................          ...          ....................",
"....................          .....          ...................",
"...................           .....           ..................",
"..................           .......           .................",
".................           .........           ................",
".................          ...........          ................",
"................          .............          ...............",
"................         ...............         ...............",
"...............         .................         ..............",
"...............        ...................        ..............",
"..............       .......................       .............",
"..............     ...........................     .............",
"..............   ...............................   .............",
"..........    .....................................    .........",
"              .....................................             ",
"              .....................................             ",
"              .....................................             ",
"             .......................................            ",
"             .......................................            ",
"             .......................................            ",
"             .......................................            ",
"             .......................................            ",
"             .......................................            ",
"             .......................................            ",
"             .......................................            ",
"             .......................................            "
};
