/* XPM */
static char *_4895_498bf4ea67cbc37b2d8606dee47966f64350a43bb7d1eef8f18c3b16a14bc9c7[] = {
/* columns rows colors chars-per-pixel */
"64 64 2 1 ",
"  c #CF9F9F",
". c #D1ABAB",
/* pixels */
"............ ....................................... ...........",
"............ ....................................... ...........",
"............ ....................................... ...........",
"............ ....................................... ...........",
"............ ....................................... ...........",
"............ ....................................... ...........",
"............ ....................................... ...........",
"............ ....................................... ...........",
"............ ....................................... ...........",
"............ ....................................... ...........",
"............. ..................................... ............",
"............. ..................................... ............",
"............. ..................................... ............",
"............. ..................................... ............",
".............. ................................... .............",
".............. ................................... .............",
".............. ................................... .............",
"............... ................................. ..............",
"............... ................................. ..............",
"................ ............................... ...............",
"................ ............................... ...............",
"................. ............................. ................",
".................  ...........................  ................",
".................. ........................... .................",
"................... ......................... ..................",
".................... ....................... ...................",
"..................... ..................... ....................",
"...................... ................... .....................",
"....................... ................. ......................",
"........................  .............  .......................",
"..........................   .......   .........................",
".............................   .   ............................",
"................................ ...............................",
".............................   .   ............................",
"..........................   .......   .........................",
"........................  .............  .......................",
"....................... ................. ......................",
"...................... ................... .....................",
"..................... ..................... ....................",
".................... ....................... ...................",
"................... ......................... ..................",
".................. ........................... .................",
".................  ...........................  ................",
"................. ............................. ................",
"................ ............................... ...............",
"................ ............................... ...............",
"............... ................................. ..............",
"............... ................................. ..............",
".............. ................................... .............",
".............. ................................... .............",
".............. ................................... .............",
"............. ..................................... ............",
"............. ..................................... ............",
"............. ..................................... ............",
"............. ..................................... ............",
"............ ....................................... ...........",
"............ ....................................... ...........",
"............ ....................................... ...........",
"............ ....................................... ...........",
"............ ....................................... ...........",
"............ ....................................... ...........",
"............ ....................................... ...........",
"............ ....................................... ...........",
"............ ....................................... ..........."
};
