/* XPM */
static char *_1047_13ff1e97924e036129ce05eac9fc379d7f4cab632a048b97a646bf30c828ce77[] = {
/* columns rows colors chars-per-pixel */
"64 64 175 2 ",
"   c #1E0400",
".  c #230602",
"X  c #290500",
"o  c #2E0D05",
"O  c #270A08",
"+  c #2D0D0A",
"@  c #260B00",
"#  c #320D04",
"$  c #3B0C02",
"%  c #310E0A",
"&  c #340300",
"*  c #2C1105",
"=  c #2D110A",
"-  c #2F190F",
";  c #261105",
":  c #331104",
">  c #32110C",
",  c #361808",
"<  c #2D0E10",
"1  c #310E11",
"2  c #2D1210",
"3  c #331413",
"4  c #361E1A",
"5  c #391918",
"6  c #381B17",
"7  c #3A221C",
"8  c #392320",
"9  c #4F1500",
"0  c #531C00",
"q  c #5B1D00",
"w  c #451F16",
"e  c #4B230C",
"r  c #5E2600",
"t  c #562C00",
"y  c #582C00",
"u  c #522300",
"i  c #4C3407",
"p  c #5E390C",
"a  c #4C2311",
"s  c #4C251C",
"d  c #442615",
"f  c #522D19",
"g  c #622301",
"h  c #672B00",
"j  c #6D2F01",
"k  c #7F3B00",
"l  c #4B2A22",
"z  c #562D27",
"x  c #4F332F",
"c  c #52322D",
"v  c #5B342D",
"b  c #583C28",
"n  c #552E30",
"m  c #4D3430",
"M  c #523333",
"N  c #523A37",
"B  c #613629",
"V  c #643A2C",
"C  c #603725",
"Z  c #643E36",
"A  c #623F39",
"S  c #7D4E01",
"D  c #5F4533",
"F  c #6A4028",
"G  c #6F4C29",
"H  c #624036",
"J  c #6C4434",
"K  c #61423C",
"L  c #775135",
"P  c #785135",
"I  c #75602D",
"U  c #5A4746",
"Y  c #624542",
"T  c #634846",
"R  c #775C58",
"E  c #9E5514",
"W  c #BC6307",
"Q  c #A96111",
"!  c #B76413",
"~  c #AB7D15",
"^  c #825C3B",
"/  c #D67C1E",
"(  c #CE7B2D",
")  c #D77E20",
"_  c #A27A5F",
"`  c #8D7D79",
"'  c #907775",
"]  c #9A7D72",
"[  c #BC8423",
"{  c #F68A04",
"}  c #FB8904",
"|  c #FD870C",
" . c #F48C0D",
".. c #FD8909",
"X. c #F48602",
"o. c #FD940A",
"O. c #F79A08",
"+. c #FB9C0E",
"@. c #EA8B1B",
"#. c #F48A14",
"$. c #FC8B10",
"%. c #F1881F",
"&. c #F89917",
"*. c #FFA715",
"=. c #FFAD1A",
"-. c #FDB61D",
";. c #FFB91D",
":. c #E48828",
">. c #EE8E28",
",. c #E78421",
"<. c #F08423",
"1. c #F19122",
"2. c #FFB421",
"3. c #F6B923",
"4. c #FDB921",
"5. c #FDBB2F",
"6. c #EFB13F",
"7. c #F6BD30",
"8. c #F3B53A",
"9. c #B29F5E",
"0. c #AF8365",
"q. c #B3866A",
"w. c #B29F60",
"e. c #BB9273",
"r. c #C59978",
"t. c #CCA27A",
"y. c #D0A37D",
"u. c #FFDF73",
"i. c #FFEA7C",
"p. c #FFE475",
"a. c #998E8E",
"s. c #B29988",
"d. c #A99592",
"f. c #BBA7A9",
"g. c #BFB2B0",
"h. c #D6AA88",
"j. c #DDB490",
"k. c #E2BB9B",
"l. c #D3BFA3",
"z. c #CFBEBD",
"x. c #FECB97",
"c. c #F7CC9B",
"v. c #FECB9A",
"b. c #FDC799",
"n. c #FEE985",
"m. c #FFEB8B",
"M. c #D7C5A9",
"N. c #F6CAA1",
"B. c #FCCDA1",
"V. c #F4C7A4",
"C. c #F7D1A0",
"Z. c #FCD1A3",
"A. c #FFD4A8",
"S. c #FFD8AC",
"D. c #E5CAB2",
"F. c #FDDCB2",
"G. c #FFE4BC",
"H. c #FFE9BF",
"J. c #CFC3C6",
"K. c #DACACE",
"L. c #E2CDD2",
"P. c #E2D3D5",
"I. c #E5DCDB",
"U. c #FBE6C6",
"Y. c #FEEBC6",
"T. c #FBE5CA",
"R. c #FEEBCA",
"E. c #FEF0C7",
"W. c #F6E0DC",
"Q. c #FFF2D3",
"!. c #F7EAEA",
"~. c #FFF9F7",
"^. c #FFFEFE",
"/. c #F9F1F0",
"(. c None",
/* pixels */
"(.(.(.(.(.(.(.(.(.(.(.(.(.(.(.(.(.(.(.(.(.(.(.(.(.(.(.(.(.(.(.(.(.(.(.(.(.(.(.(.(.(.(.(.(.(.(.(.(.(.(.(.(.(.(.(.(.(.(.(.(.(.(.(.",
"(.(.(.(.(.(.(.(.(.(.(.(.(.(.(.(.(.(.(.(.(.(.(.(.(.(.(.(.(.(.(.(.(.(.(.(.(.(.(.(.(.(.(.(.(.(.(.(.(.(.(.(.(.(.(.(.(.(.(.(.(.(.(.(.",
"(.(.(.(.(.(.(.(.(.(.(.(.(.(.(.(.(.(.(.(.(.(.(.(.(.(.(.(.(.(.(.(.(.(.(.(.(.(.(.(.(.(.(.(.(.(.(.(.(.(.(.(.(.(.(.(.(.(.(.(.(.(.(.(.",
"(.(.(.(.(.(.(.(.(.(.(.(.(.(.(.(.(.(.(.(.(.(.(.(.(.(.(.(.(.(.(.(.(.(.(.(.(.(.(.(.(.(.(.(.(.(.(.(.(.(.(.(.(.(.(.(.(.(.(.(.(.(.(.(.",
"(.(.(.(.(.(.(.(.(.(.(.(.(.(.(.(.(.(.(.(.(.(.(.(.(.(.(.(.(.(.(.(.(.(.(.(.(.(.(.(.(.(.(.(.(.(.(.(.(.(.(.(.(.(.(.(.(.(.(.(.(.(.(.(.",
"(.(.(.(.(.(.(.(.(.(.(.(.(.(.(.(.(.(.(.(.(.(.(.(.(.(.(.(.(.(.(.(.(.(.(.(.(.(.(.(.(.(.(.(.(.(.(.(.(.(.(.(.(.(.(.(.(.(.(.(.(.(.(.(.",
"(.(.(.(.(.(.(.(.(.(.(.(.(.(.(.(.(.(.(.(.(.(.(.(.(.(.(.(.(.(.(.(.(.(.(.(.(.(.(.(.(.(.(.(.(.(.(.(.(.(.(.(.(.(.(.(.(.(.(.(.(.(.(.(.",
"(.(.(.(.(.(.(.(.(.(.(.(.(.(.(.(.(.(.(.(.(.(.(.(.(.(.(.(.(.(.(.(.(.(.(.(.(.(.(.(.(.(.(.(.(.(.(.(.(.(.(.(.(.(.(.(.(.(.(.(.(.(.(.(.",
"(.(.(.(.(.(.(.(.(.(.(.(.(.(.(.(.(.(.(.(.(.(.(.(.(.(.(.(.(.(.(.(.(.(.(.(.(.(.(.(.(.(.(.(.(.(.(.(.(.(.(.(.(.(.(.(.(.(.(.(.(.(.(.(.",
"(.(.(.(.(.(.(.(.(.(.(.(.(.(.(.(.(.(.(.(.(.(.P.O > % > > > 5 (.(.(.(.(.(.(.(.(.(.(.(.(.(.(.(.(.(.(.(.(.(.(.(.(.(.(.(.(.(.(.(.(.(.",
"(.(.(.(.(.(.(.(.(.(.(.(.(.(.(.(.o % * 2 K.- >   D.Y.Y.R.] % > J.^.~.8 O % + ` (.(.(.(.(.(.(.(.(.(.(.(.(.(.(.(.(.(.(.(.(.(.(.(.(.",
"(.(.(.(.(.(.(.(.(.(.(.(.(.(.o * % c l ; > o s.R.U.Y.Y.R.Y.Q.= + R O o s v : * O (.(.(.(.(.(.(.(.(.(.(.(.(.(.(.(.(.(.(.(.(.(.(.(.",
"(.(.(.(.(.(.(.(.(.(.(.(.(.+ @ R.Y.Y.Y.U.M.M.R.Y.Y.Y.Y.Y.Y.Y.Y.+ o b Y.Y.Y.Y.R.> = R d.(.(.(.(.(.(.(.(.(.(.(.(.(.(.(.(.(.(.(.(.(.",
"(.(.(.(.(.(.(.(.(.(.(.(.% , R.R.Y.Y.Y.Y.Y.Y.Y.Y.Y.Y.Y.Y.Y.Y.Y.R.M.Y.Y.Y.Y.Y.R.R.= > > + Y (.(.(.(.(.(.(.(.(.(.(.(.(.(.(.(.(.(.(.",
"(.(.(.(.(.(.(.(.(.(.(.4 + R.R.Y.Y.Y.Y.Y.Y.Y.Y.Y.Y.Y.Y.Y.Y.Y.Y.Y.R.Y.Y.Y.Y.Y.Y.Y.R.R.R.D > ' (.(.(.(.(.(.(.(.(.(.(.(.(.(.(.(.(.(.",
"(.(.(.(.(.(.(.(.(.(.(.> V Y.Y.R.Y.Y.Y.Y.Y.H.Y.Y.Y.Y.Y.Y.Y.Y.Y.Y.Y.Y.Y.Y.Y.Y.Y.Y.Y.Y.E.F.f o ^.(.^.(.(.(.(.(.(.(.(.(.(.(.(.(.(.(.",
"(.(.(.(.(.(.(.(.(.(.(.+ 0.F.Y.R.Y.Y.Y.Y.Y.Y.Y.Y.Y.Y.Y.Y.Y.Y.Y.Y.U.Y.Y.Y.Y.Y.Y.R.c.v.v.v.t.> !.(.^.(.(.(.(.(.(.(.(.(.(.(.(.(.(.(.",
"(.(.(.(.(.(.(.(.(.(.(.> _ v.B.Y.Y.Y.Y.Y.U.G.Y.Y.Y.Y.Y.Y.Y.Y.Y.Z.x.F.Y.Y.Y.Y.Y.v.v.x.x.x.e.= /.(.^.(.(.(.(.(.(.(.(.(.(.(.(.(.(.(.",
"(.(.(.(.(.(.(.(.(.(.(.= s v.v.v.v.C.B.c.x.v.H.Y.Y.Y.Y.Y.Y.Y.Z.v.v.x.b.Z.Z.v.v.x.v.v.x.x., + ^.(.(.(.(.(.(.(.(.(.(.(.(.(.(.(.(.(.",
"(.(.(.(.(.(.(.(.(.(.(.U , A.v.v.v.x.v.v.v.x.x.c.G.Y.Y.Y.S.b.v.b.B.c.x.v.v.v.c.e h.A.S.o = W.(.(.(.(.(.(.(.(.(.(.(.(.(.(.(.(.(.(.",
"(.(.(.(.(.(.(.(.(.(.(.(.% # v.v.v.v.v.v.v.v.v.x.v.v.x.v.v.v.x.x.F * d 0.e.^ X > * = * = $ + + O + < + + + 3 I.(.(.(.(.(.(.(.(.(.",
"(.(.(.(.(.(.(.(.(.(.(.(.(.= # j.v.B.v.x.x.v.N.q.v.v.v.c.x.x.x.x.J 3 # 1 > = # >.>.W ,.= d 9.9.9.w.w.w.w.I 3 = f.(.(.(.(.(.(.(.(.",
"(.(.(.(.(.(.(.(.(.(.(.(.(.~.; + $ c.x.v.x.c.L % > @ @ > F v.x.x.J + #.#.#. .$.} ....X.+ z i.i.n.i.i.i.i.m.m.i * I.(.(.(.(.(.(.(.",
"(.(.(.(.(.(.(.(.(.(.(.(.(.(.(.(.% b.x.x.x.v.P # Q g q : C v.v.x.J o } } ..}  .........% a 4.4.4.4.4.;.;.4.7.m.% 6 (.(.(.(.(.(.(.",
"(.(.(.(.(.(.(.(.(.(.(.(.(.(.(.(.# v.x.v.v.v.P : } } } $ a v.v.v.w # ;.;.;.4.2.} } ....% > t y y y y y t 8.4.3.p + (.(.(.(.(.(.(.",
"(.(.(.(.(.(.(.(.(.(.(.(.(.(.(.(.o v.v.x.v.v.P : =.o.o.j > r.B.r.3 g ;.;.;.;.;.X.......# > % + % % + + + [ ;.;.S o (.(.(.(.(.(.(.",
"(.(.(.(.(.(.(.(.(.(.(.(.(.(.(.(.* x.x.v.v.v.L # 3.;.;. .0 > = o 9 | 4.4.;.;.4.} ......% m (.(.(.(.(.(.% [ 4.;.S % (.(.(.(.(.(.(.",
"(.(.(.(.(.(.(.(.(.(.(.(.(.(.(.(.# x.v.x.x.x.L : ;.;.;.+...%.( @.} O.;.;.;.;.4.........o c (.(.(.(.(.(.3 [ ;.;.S o (.(.(.(.(.(.(.",
"(.(.(.(.(.(.(.(.(.(.(.(.(.(.(.(.: c.x.v.v.v.L : 4.;.;.;.} ....} ..;.;.;.;.;.4.} ......% c (.(.(.(.(.(.> [ ;.;.S # (.(.(.(.(.(.(.",
"(.(.(.(.(.(.(.(.(.(.(.(.(.(.(.(.* v.v.x.v.v.G : 4.;.;.;.;.;.-.;.4.;.;.;.;.;.;.X.......# c (.(.(.(.(.(.3 [ ;.;.S + (.(.(.(.(.(.(.",
"(.(.(.(.(.(.(.(.(.(.(.(.(.(.(.(.% k.x.v.v.v.@ & 4.;.;.;.;.;.;.;.;.;.;.;.;.;.;.X.......% c (.(.(.(.(.(.> [ ;.;.S # (.(.(.(.(.(.(.",
"(.(.(.(.(.(.(.(.(.(.(.(.(.(.(.(.o = e.v.B., % :.2.4.;.;.;.;.;.;.;.;.;.;.;.;.;.} ......+ c (.(.(.(.(.(.3 [ ;.;.S = (.(.(.(.(.(.(.",
"(.(.(.(.(.(.(.(.(.(.(.(.(.(.(.(.+ $ + + # # ! X.;.;.;.;.;.;.;.;.;.;.;.;.;.;.;.} ......o n (.(.(.(.(.(.> [ ;.;.S * (.(.(.(.(.(.(.",
"(.(.(.(.(.(.(.(.(.(.(.(.(.(.(.(.# | <./ )  .| -.-.;.;.;.;.;.;.;.;.;.;.;.;.;.;.} ......o c (.(.(.(.(.(.3 [ ;.;.S * (.(.(.(.(.(.(.",
"(.(.(.(.(.(.(.(.(.(.(.(.(.(.(.(.# &.........*.4.;.;.;.;.;.;.;.;.;.;.;.;.;.;.;.X...} ..o c (.(.(.(.(.(.> [ ;.;.S + (.(.(.(.(.(.(.",
"(.(.(.(.(.(.(.(.(.(.(.(.(.(.(.(.O n.m.u.p.3.4.;.;.;.;.;.;.;.;.;.;.;.;.;.;.;.;.} ..| ..o c (.(.(.(.(.(.3 [ ;.;.S o (.(.(.(.(.(.(.",
"(.(.(.(.(.(.(.(.(.(.(.(.(.(.(.(.o m.m.m.m.3.;.4.4.;.;.;.;.;.;.;.;.;.;.;.;.;.;.} ......o c (.(.(.(.(.(.3 [ ;.;.S = (.(.(.(.(.(.(.",
"(.(.(.(.(.(.(.(.(.(.(.(.(.(.(.(.o m.m.m.m.3.;.4.;.;.;.;.;.;.;.;.;.;.;.;.;.;.;.{ ..} ..+ c (.(.(.(.(.(.> [ ;.;.S o (.(.(.(.(.(.(.",
"(.(.(.(.(.(.(.(.(.(.(.(.(.(.(.(.o m.m.m.m.3.;.;.;.;.;.;.;.;.;.;.;.;.;.;.;.;.;.{ ......o c (.(.(.(.(.K % ( ;.;.S o (.(.(.(.(.(.(.",
"(.(.(.(.(.(.(.(.(.(.(.(.(.(.(.(.# m.m.m.m.3.;.;.;.;.;.;.;.;.;.;.;.;.;.;.;.;.;.X.......+ c (.(.(.2 > > u 3.;.;.k + (.(.(.(.(.(.(.",
"(.(.(.(.(.(.(.(.(.(.(.(.(.(.(.(.o m.m.m.m.3.4.;.;.;.;.;.;.;.;.;.;.;.;.;.;.;.;.} ......# x L.  3 # ~ 5.4.;.{ ..g o (.(.(.(.(.(.(.",
"(.(.(.(.(.(.(.(.(.(.(.(.(.(.(.(.o m.m.m.m.3.;.;.;.;.;.;.;.;.;.;.;.;.;.;.;.;.;.} ..} | # * 3 & [ 4.;.=.{ X.$.E > l (.(.(.(.(.(.(.",
"(.(.(.(.(.(.(.(.(.(.(.(.(.(.(.(.o m.m.m.m.3.;.;.;.;.;.;.;.;.;.;.;.;.;.;.;.;.;.X.......+ , 6.;.;.+.....1.j > = 7 (.(.(.(.(.(.(.(.",
"(.(.(.(.(.(.(.(.(.(.(.(.(.(.(.(.: n.m.m.m.3.;.4.;.;.;.;.;.;.;.;.;.;.;.;.;.;.;.} ......o a ;.+...| @.q > # N (.(.(.(.(.(.(.(.(.(.",
"(.(.(.(.(.(.(.(.(.(.(.(.(.(.(.(.+ m.m.m.m.3.;.4.4.4.4.;.4.4.4.4.;.;.4.4.;.4.4.......| o a ..| 1.$ = = N (.(.(.(.(.(.(.(.(.(.(.(.",
"(.(.(.(.(.(.(.(.(.(.(.(.(.(.(.(.o m.m.m.m.3.;.4.;.;.;.;.;.;.;.2.;.;.;.4.;.;.4. .....| % e ! # O . z.(.(.(.(.(.(.(.(.(.(.(.(.(.(.",
"(.(.(.(.(.(.(.(.(.(.(.(.(.(.(.(.+ o % O O O * + + O + % O + + O O + + + O + O = + o o + > > + z.(.(.(.(.(.(.(.(.(.(.(.(.(.(.(.(.",
"(.(.(.(.(.(.(.(.(.(.(.(.(.(.(.(.+ U Y T T D A H Z H Z H Z H A D H H K H H H H v B B B 3 5 (.(.(.(.(.(.(.(.(.(.(.(.(.(.(.(.(.(.(.",
"(.(.(.(.(.(.(.(.(.(.(.(.(.(.(.(.= ^.^.^.^.R.E.U.Y.Y.E.U.Y.Y.Y.Y.U.E.Y.Y.Y.Y.Y.v.v.v.v.% n (.(.(.(.(.(.(.(.(.(.(.(.(.(.(.(.(.(.(.",
"(.(.(.(.(.(.(.(.(.(.(.(.(.(.(.(.+ ^.^.^.^.R.Y.Y.Y.Y.Y.Y.Y.R.Y.Y.Y.Y.Y.Y.Y.Y.Y.v.v.v.v.% n (.(.(.(.(.(.(.(.(.(.(.(.(.(.(.(.(.(.(.",
"(.(.(.(.(.(.(.(.(.(.(.(.(.(.(.(.+ ^.^.^.^.R.Y.Y.Y.Y.E.U.Y.Y.Y.Y.Y.E.Y.Y.Y.Y.Y.v.v.v.v.+ M (.(.(.(.(.(.(.(.(.(.(.(.(.(.(.(.(.(.(.",
"(.(.(.(.(.(.(.(.(.(.(.(.(.(.(.(.+ ^.^.^.^.Y.Y.Y.Y.U.E.Y.Y.Y.Y.Y.Y.U.Y.Y.Y.Y.Y.v.v.v.v.O M (.(.(.(.(.(.(.(.(.(.(.(.(.(.(.(.(.(.(.",
"(.(.(.(.(.(.(.(.(.(.(.(.(.(.(.(.% P.^.^.^.R.Y.Y.Y.Y.Y.Y.Y.Y.Y.Y.Y.Y.Y.Y.Y.Y.Y.v.v.v.B.+ ` (.(.(.(.(.(.(.(.(.(.(.(.(.(.(.(.(.(.(.",
"(.(.(.(.(.(.(.(.(.(.(.(.(.(.(.(.O = a.~.~.T.U.U.U.R.U.U.T.U.U.Y.T.U.U.U.U.U.Y.V.V.y.: = (.(.(.(.(.(.(.(.(.(.(.(.(.(.(.(.(.(.(.(.",
"(.(.(.(.(.(.(.(.(.(.(.(.(.(.(.(.(.7 % > + O = + O + > + + % % + + + = = + + = = + > . (.(.(.(.(.(.(.(.(.(.(.(.(.(.(.(.(.(.(.(.(.",
"(.(.(.(.(.(.(.(.(.(.(.(.(.(.(.(.(.(.(.(.^.(.(.(.(.(.(.(.(.(.(.(.(.(.(.(.(.(.(.(.(.(.(.(.(.(.(.(.(.(.(.(.(.(.(.(.(.(.(.(.(.(.(.(.",
"(.(.(.(.(.(.(.(.(.(.(.(.(.(.(.(.(.(.(.(.(.(.(.(.(.(.(.(.(.(.(.(.(.(.(.(.(.(.(.(.(.(.(.(.(.(.(.(.(.(.(.(.(.(.(.(.(.(.(.(.(.(.(.(.",
"(.(.(.(.(.(.(.(.(.(.(.(.(.(.(.(.(.(.(.(.(.(.(.(.(.(.(.(.(.(.(.(.(.(.(.(.(.(.(.(.(.(.(.(.(.(.(.(.(.(.(.(.(.(.(.(.(.(.(.(.(.(.(.(.",
"(.(.(.(.(.(.(.(.(.(.(.(.(.(.(.(.(.(.(.(.(.(.(.(.(.(.(.(.(.(.(.(.(.(.(.(.(.(.(.(.(.(.(.(.(.(.(.(.(.(.(.(.(.(.(.(.(.(.(.(.(.(.(.(.",
"(.(.(.(.(.(.(.(.(.(.(.(.(.(.(.(.(.(.(.(.(.(.(.(.(.(.(.(.(.(.(.(.(.(.(.(.(.(.(.(.(.(.(.(.(.(.(.(.(.(.(.(.(.(.(.(.(.(.(.(.(.(.(.(.",
"(.(.(.(.(.(.(.(.(.(.(.(.(.(.(.(.(.(.(.(.(.(.(.(.(.(.(.(.(.(.(.(.(.(.(.(.(.(.(.(.(.(.(.(.(.(.(.(.(.(.(.(.(.(.(.(.(.(.(.(.(.(.(.(.",
"(.(.(.(.(.(.(.(.(.(.(.(.(.(.(.(.(.(.(.(.(.(.(.(.(.(.(.(.(.(.(.(.(.(.(.(.(.(.(.(.(.(.(.(.(.(.(.(.(.(.(.(.(.(.(.(.(.(.(.(.(.(.(.(.",
"(.(.(.(.(.(.(.(.(.(.(.(.(.(.(.(.(.(.(.(.(.(.(.(.(.(.(.(.(.(.(.(.(.(.(.(.(.(.(.(.(.(.(.(.(.(.(.(.(.(.(.(.(.(.(.(.(.(.(.(.(.(.(.(.",
"(.(.(.(.(.(.(.(.(.(.(.(.(.(.(.(.(.(.(.(.(.(.(.(.(.(.(.(.(.(.(.(.(.(.(.(.(.(.(.(.(.(.(.(.(.(.(.(.(.(.(.(.(.(.(.(.(.(.(.(.(.(.(.(."
};
