/* XPM */
static char *_1_464a50c6dd64a7557194fb1012f16e8dd441cc852c956f6a1be04e0b6b400af1[] = {
/* columns rows colors chars-per-pixel */
"64 64 156 2 ",
"   c #1E0400",
".  c #230602",
"X  c #290500",
"o  c #260B00",
"O  c #2E0C05",
"+  c #270A08",
"@  c #2D0E0A",
"#  c #340300",
"$  c #320D04",
"%  c #3A0C03",
"&  c #310E0A",
"*  c #2D1105",
"=  c #2D120A",
"-  c #2F190F",
";  c #261105",
":  c #331103",
">  c #32110C",
",  c #39170A",
"<  c #331905",
"1  c #2D0E10",
"2  c #2E1110",
"3  c #341413",
"4  c #361E1A",
"5  c #391918",
"6  c #3A221C",
"7  c #4F1500",
"8  c #531C00",
"9  c #5B1D00",
"0  c #4B230C",
"q  c #522300",
"w  c #5E2600",
"e  c #562C00",
"r  c #582C00",
"t  c #4C3407",
"y  c #5E390C",
"u  c #4C2311",
"i  c #4C251C",
"p  c #442615",
"a  c #522D19",
"s  c #612201",
"d  c #672B00",
"f  c #6D2F01",
"g  c #7F3B00",
"h  c #4B2D24",
"j  c #562B20",
"k  c #552F2E",
"l  c #4F332F",
"z  c #53322D",
"x  c #58322C",
"c  c #552E30",
"v  c #4D3430",
"b  c #523333",
"n  c #523A37",
"m  c #603725",
"M  c #653C2D",
"N  c #7D4E01",
"B  c #5F4533",
"V  c #6A4028",
"C  c #6F4C29",
"Z  c #6C4434",
"A  c #60433F",
"S  c #775135",
"D  c #785135",
"F  c #75602D",
"G  c #564444",
"H  c #604343",
"J  c #795F5B",
"K  c #755954",
"L  c #9E5514",
"P  c #BC6307",
"I  c #A96111",
"U  c #BC6611",
"Y  c #825C3B",
"T  c #DC7F1F",
"R  c #CE7B2D",
"E  c #D77E20",
"W  c #8F7D7E",
"Q  c #8B7D73",
"!  c #907775",
"~  c #9A7D72",
"^  c #BC8423",
"/  c #F68A04",
"(  c #FB8904",
")  c #FD870C",
"_  c #F48C0D",
"`  c #FD8909",
"'  c #FD940A",
"]  c #FC9A0E",
"[  c #EA8B1B",
"{  c #F48A14",
"}  c #FC8B10",
"|  c #F1881F",
" . c #FE9C10",
".. c #F2951E",
"X. c #FFA715",
"o. c #FFAD1A",
"O. c #FDB61D",
"+. c #FFB91D",
"@. c #EE8E28",
"#. c #F19122",
"$. c #FFB420",
"%. c #F6B923",
"&. c #FDB921",
"*. c #FDBB2F",
"=. c #EFB13F",
"-. c #F6BD30",
";. c #F3B53A",
":. c #B29E5E",
">. c #AF8267",
",. c #B3866A",
"<. c #B29F60",
"1. c #BC9474",
"2. c #C69975",
"3. c #C4987A",
"4. c #D0A37D",
"5. c #FFE475",
"6. c #FFEA7C",
"7. c #B29988",
"8. c #A99592",
"9. c #BBA7A9",
"0. c #D6AA88",
"q. c #DDB490",
"w. c #E2BB9B",
"e. c #D3BFA3",
"r. c #FDCB97",
"t. c #F7CE99",
"y. c #FECB9A",
"u. c #FEE985",
"i. c #FEEB8A",
"p. c #D7C5A9",
"a. c #F4C7A4",
"s. c #F5C9A2",
"d. c #FCCDA1",
"f. c #F7D1A0",
"g. c #FBD2A3",
"h. c #FFD4A8",
"j. c #FFD8AC",
"k. c #E5CAB2",
"l. c #FFDCB0",
"z. c #FEE9BF",
"x. c #FEE2B9",
"c. c #CFC3C6",
"v. c #DACACE",
"b. c #E2CDD2",
"n. c #E2D3D5",
"m. c #E5DCDB",
"M. c #FBE6C6",
"N. c #FEEBC6",
"B. c #FBE5CA",
"V. c #FEEBCB",
"C. c #FEF0C7",
"Z. c #F6E0DC",
"A. c #FFF2D3",
"S. c #FFF9F7",
"D. c #FFFEFE",
"F. c None",
/* pixels */
"F.F.F.F.F.F.F.F.F.F.F.F.F.F.F.F.F.F.F.F.F.F.F.F.F.F.F.F.F.F.F.F.F.F.F.F.F.F.F.F.F.F.F.F.F.F.F.F.F.F.F.F.F.F.F.F.F.F.F.F.F.F.F.F.",
"F.F.F.F.F.F.F.F.F.F.F.F.F.F.F.F.F.F.F.F.F.F.F.F.F.F.F.F.F.F.F.F.F.F.F.F.F.F.F.F.F.F.F.F.F.F.F.F.F.F.F.F.F.F.F.F.F.F.F.F.F.F.F.F.",
"F.F.F.F.F.F.F.F.F.F.F.F.F.F.F.F.F.F.F.F.F.F.F.F.F.F.F.F.F.F.F.F.F.F.F.F.F.F.F.F.F.F.F.F.F.F.F.F.F.F.F.F.F.F.F.F.F.F.F.F.F.F.F.F.",
"F.F.F.F.F.F.F.F.F.F.F.F.F.F.F.F.F.F.F.F.F.F.F.F.F.F.F.F.F.F.F.F.F.F.F.F.F.F.F.F.F.F.F.F.F.F.F.F.F.F.F.F.F.F.F.F.F.F.F.F.F.F.F.F.",
"F.F.F.F.F.F.F.F.F.F.F.F.F.F.F.F.F.F.F.F.F.F.F.F.F.F.F.F.F.F.F.F.F.F.F.F.F.F.F.F.F.F.F.F.F.F.F.F.F.F.F.F.F.F.F.F.F.F.F.F.F.F.F.F.",
"F.F.F.F.F.F.F.F.F.F.F.F.F.F.F.F.F.F.F.F.F.F.F.F.F.F.F.F.F.F.F.F.F.F.F.F.F.F.F.F.F.F.F.F.F.F.F.F.F.F.F.F.F.F.F.F.F.F.F.F.F.F.F.F.",
"F.F.F.F.F.F.F.F.F.F.F.F.F.F.F.F.F.F.F.F.F.F.F.F.F.F.F.F.F.F.F.F.F.F.F.F.F.F.F.F.F.F.F.F.F.F.F.F.F.F.F.F.F.F.F.F.F.F.F.F.F.F.F.F.",
"F.F.F.F.F.F.F.F.F.F.F.F.F.F.F.F.F.F.F.F.F.F.F.F.F.F.F.F.F.F.F.F.F.F.F.F.F.F.F.F.F.F.F.F.F.F.F.F.F.F.F.F.F.F.F.F.F.F.F.F.F.F.F.F.",
"F.F.F.F.F.F.F.F.F.F.F.F.F.F.F.F.F.F.F.F.F.F.F.F.F.F.F.F.F.F.F.F.F.F.F.F.F.F.F.F.F.F.F.F.F.F.F.F.F.F.F.F.F.F.F.F.F.F.F.F.F.F.F.F.",
"F.F.F.F.F.F.F.F.F.F.F.F.F.F.F.F.F.F.F.F.F.F.F.F.F.F.F.F.F.F.F.F.F.F.F.F.F.F.F.F.F.F.F.F.F.F.F.F.F.F.F.F.F.F.F.F.F.F.F.F.F.F.F.F.",
"F.F.F.F.F.F.F.F.F.F.F.F.F.F.F.F.F.F.F.F.F.F.F.F.F.F.F.F.F.F.F.F.F.F.F.F.F.F.F.F.F.F.F.F.F.F.F.F.F.F.F.F.F.F.F.F.F.F.F.F.F.F.F.F.",
"F.F.F.F.F.F.F.F.F.F.F.F.F.F.F.F.F.F.F.F.F.F.F.F.F.F.F.F.F.F.F.F.F.F.F.F.F.F.F.F.F.F.F.F.F.F.F.F.F.F.F.F.F.F.F.F.F.F.F.F.F.F.F.F.",
"F.F.F.F.F.F.F.F.F.F.F.F.F.F.F.F.F.F.F.F.F.F.F.F.F.F.F.F.F.F.F.F.F.F.F.F.F.F.F.F.F.F.F.F.F.F.F.F.F.F.F.F.F.F.F.F.F.F.F.F.F.F.F.F.",
"F.F.F.F.F.F.F.F.F.F.F.F.F.F.F.F.F.F.F.F.F.F.n.+ > & , > @ 5 F.F.F.F.F.F.F.F.F.F.F.F.F.F.F.F.F.F.F.F.F.F.F.F.F.F.F.F.F.F.F.F.F.F.",
"F.F.F.F.F.F.F.F.F.F.F.F.F.F.F.F.F.F.O = v.- >   k.N.N.V.~ @ 3 c.D.+ & & Q F.F.F.F.F.F.F.F.F.F.F.F.F.F.F.F.F.F.F.F.F.F.F.F.F.F.F.",
"F.F.F.F.F.F.F.F.F.F.F.F.F.F.F.F.O * & x > @ 7.V.B.N.M.V.N.A.= @ K i x & > + F.F.F.F.F.F.F.F.F.F.F.F.F.F.F.F.F.F.F.F.F.F.F.F.F.F.",
"F.F.F.F.F.F.F.F.F.F.F.F.F.F.F.@ o A.N.N.p.e.V.N.N.N.N.N.N.N.N.$ $ N.N.N.V.= = J 8.F.F.F.F.F.F.F.F.F.F.F.F.F.F.F.F.F.F.F.F.F.F.F.",
"F.F.F.F.F.F.F.F.F.F.F.F.F.F.& < V.B.N.N.N.M.N.N.N.N.N.N.N.N.N.V.p.N.N.N.V.V.= = > & H F.F.F.F.F.F.F.F.F.F.F.F.F.F.F.F.F.F.F.F.F.",
"F.F.F.F.F.F.F.F.F.F.F.F.F.4 @ V.N.N.N.V.N.N.N.N.N.N.N.N.N.N.N.N.N.N.N.N.V.V.C.V.V.A > ! F.F.F.F.F.F.F.F.F.F.F.F.F.F.F.F.F.F.F.F.",
"F.F.F.F.F.F.F.F.F.F.F.F.F.> M N.V.N.N.N.N.N.N.N.N.N.N.N.N.N.N.N.N.N.N.N.N.N.M.N.C.j.a O D.F.F.F.F.F.F.F.F.F.F.F.F.F.F.F.F.F.F.F.",
"F.F.F.F.F.F.F.F.F.F.F.F.F.> i r.y.y.d.t.r.y.z.N.N.N.N.N.N.V.g.r.y.g.g.t.y.r.y.y.r.r.< = D.F.F.F.F.F.F.F.F.F.F.F.F.F.F.F.F.F.F.F.",
"F.F.F.F.F.F.F.F.F.F.F.F.F.G , h.y.y.y.y.r.r.r.r.x.N.N.N.j.y.y.r.g.y.y.y.y.0 0.g.j.O > Z.F.F.F.F.F.F.F.F.F.F.F.F.F.F.F.F.F.F.F.F.",
"F.F.F.F.F.F.F.F.F.F.F.F.F.F.> O y.y.y.r.y.r.r.y.y.y.r.r.y.y.r.r.Z ,.1.Y X & * O @ O % O @ = @ @ @ 3 m.F.F.F.F.F.F.F.F.F.F.F.F.F.",
"F.F.F.F.F.F.F.F.F.F.F.F.F.F.F.= $ q.y.d.y.y.s.,.t.y.y.t.r.y.r.r.Z 2 & @ $ @.@.I [ = p :.:.<.<.:.F 3 = 9.F.F.F.F.F.F.F.F.F.F.F.F.",
"F.F.F.F.F.F.F.F.F.F.F.F.F.F.F.S.+ O $ r.r.r.S > : O X > M r.r.r.Z { { { ) ` ` ` / @ j u.6.6.6.6.i.i.t = m.F.F.F.F.F.F.F.F.F.F.F.",
"F.F.F.F.F.F.F.F.F.F.F.F.F.F.F.F.F.F.& y.y.y.S $ I s 8 $ m y.r.r.Z ( ( ` _ ` ` ` ` & u &.&.&.&.&.&.-.i.& 5 F.F.F.F.F.F.F.F.F.F.F.",
"F.F.F.F.F.F.F.F.F.F.F.F.F.F.F.F.F.F.$ y.r.y.D : ` ` ` % u y.y.r.u $.+.&.+.( ` ( ) $ > e r r r r ;.&.%.y @ F.F.F.F.F.F.F.F.F.F.F.",
"F.F.F.F.F.F.F.F.F.F.F.F.F.F.F.F.F.F.O y.y.r.D $ o.' ' d > 3.g.2.2 O.+.+.&.( ( ( ) @ , & 1 & @ @ ^ +.+.N O F.F.F.F.F.F.F.F.F.F.F.",
"F.F.F.F.F.F.F.F.F.F.F.F.F.F.F.F.F.F.* r.y.y.S : +.+.+._ q = = * 7 +.+.+.+./ ` ` ` @ v F.F.F.F.> ^ +.+.N > F.F.F.F.F.F.F.F.F.F.F.",
"F.F.F.F.F.F.F.F.F.F.F.F.F.F.F.F.F.F.* r.y.y.S $ +.+.+. .` | R [ ` +.+.+.&.` ` ` ` & b F.F.F.F.& ^ +.+.N O F.F.F.F.F.F.F.F.F.F.F.",
"F.F.F.F.F.F.F.F.F.F.F.F.F.F.F.F.F.F.$ r.y.y.D : +.+.+.+.` ` ` / ` +.+.+.+.( ` ` ` @ z F.F.F.F.3 ^ +.+.N & F.F.F.F.F.F.F.F.F.F.F.",
"F.F.F.F.F.F.F.F.F.F.F.F.F.F.F.F.F.F.* y.y.y.C < &.+.+.&.+.+.O.O.&.+.+.+.+./ ` ` ` & z F.F.F.F.& ^ +.+.N O F.F.F.F.F.F.F.F.F.F.F.",
"F.F.F.F.F.F.F.F.F.F.F.F.F.F.F.F.F.F.> w.d.t.X # +.+.+.+.+.+.+.+.+.+.+.+.+./ ( ( ) O z F.F.F.F.3 ^ +.+.N @ F.F.F.F.F.F.F.F.F.F.F.",
"F.F.F.F.F.F.F.F.F.F.F.F.F.F.F.F.F.F.O ` E } ( $.+.+.+.+.+.+.+.+.+.+.+.+.+./ ` ` ) O z F.F.F.F.& ^ +.+.N O F.F.F.F.F.F.F.F.F.F.F.",
"F.F.F.F.F.F.F.F.F.F.F.F.F.F.F.F.F.F.O ..` ` X.+.+.+.+.+.+.+.+.+.+.+.+.+.+.( ` ( ` @ z F.F.F.F.3 ^ +.+.N = F.F.F.F.F.F.F.F.F.F.F.",
"F.F.F.F.F.F.F.F.F.F.F.F.F.F.F.F.F.F.O u.5.%.&.$.+.+.+.+.+.+.+.+.+.+.+.+.+.( ` ` ` O z F.F.F.F.> ^ +.+.N O F.F.F.F.F.F.F.F.F.F.F.",
"F.F.F.F.F.F.F.F.F.F.F.F.F.F.F.F.F.F.O i.i.%.&.+.+.+.+.+.+.+.+.+.+.+.+.+.+./ ( ( ) O z F.F.F.F.1 ^ +.+.N + F.F.F.F.F.F.F.F.F.F.F.",
"F.F.F.F.F.F.F.F.F.F.F.F.F.F.F.F.F.F.: i.i.%.+.&.+.+.+.+.+.+.+.+.+.+.+.+.+./ ` ` ) $ z F.F.F.F.1 ^ +.O.N O F.F.F.F.F.F.F.F.F.F.F.",
"F.F.F.F.F.F.F.F.F.F.F.F.F.F.F.F.F.F.O i.i.%.+.+.+.+.+.+.+.+.+.+.+.+.+.+.+.( ` ( ` @ x F.F.F.B 1 R +.+.N @ F.F.F.F.F.F.F.F.F.F.F.",
"F.F.F.F.F.F.F.F.F.F.F.F.F.F.F.F.F.F.O i.i.%.+.+.+.+.+.+.+.+.+.+.+.+.+.+.+.( ` ` ) $ b F.F.F., q %.O.+.N O F.F.F.F.F.F.F.F.F.F.F.",
"F.F.F.F.F.F.F.F.F.F.F.F.F.F.F.F.F.F.O i.i.%.+.+.+.+.+.+.+.+.+.+.+.+.+.+.+.( ( ( ` @ z b.  & *.&.+./ ` s O F.F.F.F.F.F.F.F.F.F.F.",
"F.F.F.F.F.F.F.F.F.F.F.F.F.F.F.F.F.F.O i.i.%.+.+.+.+.+.+.+.+.+.+.+.+.+.+.+.( ( ` ` & O 1 O ^ o._ / } L > h F.F.F.F.F.F.F.F.F.F.F.",
"F.F.F.F.F.F.F.F.F.F.F.F.F.F.F.F.F.F.O i.i.%.+.+.+.+.+.+.+.+.+.+.+.+.+.+.+./ ` ` ` & , =.$.+.` #.f $ = 6 F.F.F.F.F.F.F.F.F.F.F.F.",
"F.F.F.F.F.F.F.F.F.F.F.F.F.F.F.F.F.F.: i.i.%.+.+.+.+.+.+.+.+.+.+.+.+.+.+.+.( ` ` ` = u +. .( w > & n F.F.F.F.F.F.F.F.F.F.F.F.F.F.",
"F.F.F.F.F.F.F.F.F.F.F.F.F.F.F.F.F.F.@ i.i.%.&.&.%.+.+.+.&.+.&.&.+.+.+.+.%./ ` ` ) O u ) ) #.> n F.F.F.F.F.F.F.F.F.F.F.F.F.F.F.F.",
"F.F.F.F.F.F.F.F.F.F.F.F.F.F.F.F.F.F.o i.i.%.+.+.%.O.%.+.+.+.+.+.+.+.+.+.%.` ` ) ) & 0 U : > F.F.F.F.F.F.F.F.F.F.F.F.F.F.F.F.F.F.",
"F.F.F.F.F.F.F.F.F.F.F.F.F.F.F.F.F.F.= D.D.V.C.N.N.N.N.N.C.N.N.N.N.N.N.C.N.t.y.y.y.& x F.F.F.F.F.F.F.F.F.F.F.F.F.F.F.F.F.F.F.F.F.",
"F.F.F.F.F.F.F.F.F.F.F.F.F.F.F.F.F.F.+ D.D.V.N.N.N.N.N.N.N.N.N.N.M.N.N.N.z.y.y.y.y.O c F.F.F.F.F.F.F.F.F.F.F.F.F.F.F.F.F.F.F.F.F.",
"F.F.F.F.F.F.F.F.F.F.F.F.F.F.F.F.F.F.@ D.D.V.N.N.N.N.N.N.N.N.N.N.N.N.N.N.N.y.y.y.y.$ b F.F.F.F.F.F.F.F.F.F.F.F.F.F.F.F.F.F.F.F.F.",
"F.F.F.F.F.F.F.F.F.F.F.F.F.F.F.F.F.F.@ D.D.V.N.N.N.N.N.N.N.N.N.N.N.N.N.N.V.y.r.r.r.+ b F.F.F.F.F.F.F.F.F.F.F.F.F.F.F.F.F.F.F.F.F.",
"F.F.F.F.F.F.F.F.F.F.F.F.F.F.F.F.F.F.@ n.D.V.M.N.N.N.N.N.N.N.N.N.N.N.N.N.N.y.y.y.g.@ W F.F.F.F.F.F.F.F.F.F.F.F.F.F.F.F.F.F.F.F.F.",
"F.F.F.F.F.F.F.F.F.F.F.F.F.F.F.F.F.F.+ = S.B.M.M.M.M.M.V.B.M.M.M.M.M.M.M.M.s.a.4.$ - F.F.D.F.F.F.F.F.F.F.F.F.F.F.F.F.F.F.F.F.F.F.",
"F.F.F.F.F.F.F.F.F.F.F.F.F.F.F.F.F.F.F.6 & = @ @ @ O @ @ @ @ & @ @ @ @ @ = = @ >   F.F.F.F.F.F.F.F.F.F.F.F.F.F.F.F.F.F.F.F.F.F.F.",
"F.F.F.F.F.F.F.F.F.F.F.F.F.F.F.F.F.F.F.F.F.F.F.F.F.F.F.F.F.F.F.F.F.F.F.F.F.F.F.F.F.F.F.F.F.F.F.F.F.F.F.F.F.F.F.F.F.F.F.F.F.F.F.F.",
"F.F.F.F.F.F.F.F.F.F.F.F.F.F.F.F.F.F.F.F.F.F.F.F.F.F.F.F.F.F.F.F.F.F.F.F.F.F.F.F.F.F.F.F.F.F.F.F.F.F.F.F.F.F.F.F.F.F.F.F.F.F.F.F.",
"F.F.F.F.F.F.F.F.F.F.F.F.F.F.F.F.F.F.F.F.F.F.F.F.F.F.F.F.F.F.F.F.F.F.F.F.F.F.F.F.F.F.F.F.F.F.F.F.F.F.F.F.F.F.F.F.F.F.F.F.F.F.F.F.",
"F.F.F.F.F.F.F.F.F.F.F.F.F.F.F.F.F.F.F.F.F.F.F.F.F.F.F.F.F.F.F.F.F.F.F.F.F.F.F.F.F.F.F.F.F.F.F.F.F.F.F.F.F.F.F.F.F.F.F.F.F.F.F.F.",
"F.F.F.F.F.F.F.F.F.F.F.F.F.F.F.F.F.F.F.F.F.F.F.F.F.F.F.F.F.F.F.F.F.F.F.F.F.F.F.F.F.F.F.F.F.F.F.F.F.F.F.F.F.F.F.F.F.F.F.F.F.F.F.F.",
"F.F.F.F.F.F.F.F.F.F.F.F.F.F.F.F.F.F.F.F.F.F.F.F.F.F.F.F.F.F.F.F.F.F.F.F.F.F.F.F.F.F.F.F.F.F.F.F.F.F.F.F.F.F.F.F.F.F.F.F.F.F.F.F.",
"F.F.F.F.F.F.F.F.F.F.F.F.F.F.F.F.F.F.F.F.F.F.F.F.F.F.F.F.F.F.F.F.F.F.F.F.F.F.F.F.F.F.F.F.F.F.F.F.F.F.F.F.F.F.F.F.F.F.F.F.F.F.F.F.",
"F.F.F.F.F.F.F.F.F.F.F.F.F.F.F.F.F.F.F.F.F.F.F.F.F.F.F.F.F.F.F.F.F.F.F.F.F.F.F.F.F.F.F.F.F.F.F.F.F.F.F.F.F.F.F.F.F.F.F.F.F.F.F.F.",
"F.F.F.F.F.F.F.F.F.F.F.F.F.F.F.F.F.F.F.F.F.F.F.F.F.F.F.F.F.F.F.F.F.F.F.F.F.F.F.F.F.F.F.F.F.F.F.F.F.F.F.F.F.F.F.F.F.F.F.F.F.F.F.F.",
"F.F.F.F.F.F.F.F.F.F.F.F.F.F.F.F.F.F.F.F.F.F.F.F.F.F.F.F.F.F.F.F.F.F.F.F.F.F.F.F.F.F.F.F.F.F.F.F.F.F.F.F.F.F.F.F.F.F.F.F.F.F.F.F.",
"F.F.F.F.F.F.F.F.F.F.F.F.F.F.F.F.F.F.F.F.F.F.F.F.F.F.F.F.F.F.F.F.F.F.F.F.F.F.F.F.F.F.F.F.F.F.F.F.F.F.F.F.F.F.F.F.F.F.F.F.F.F.F.F."
};
