/* XPM */
static char *_4398_bf3b7c6b8f5377da800f18ba8c7eeafce701c029731ff36df86ebcfa6f398271[] = {
/* columns rows colors chars-per-pixel */
"64 64 233 2 ",
"   c black",
".  c #010000",
"X  c #010100",
"o  c #010101",
"O  c #020201",
"+  c #010102",
"@  c #030102",
"#  c #010202",
"$  c #000203",
"%  c #010203",
"&  c #020202",
"*  c gray1",
"=  c #050101",
"-  c #060101",
";  c #070101",
":  c #040102",
">  c #040203",
",  c #070202",
"<  c #040401",
"1  c #010305",
"2  c #020305",
"3  c #010306",
"4  c #050304",
"5  c #010405",
"6  c #030404",
"7  c #010406",
"8  c #020507",
"9  c #030507",
"0  c #040404",
"q  c gray2",
"w  c #050707",
"e  c #070707",
"r  c #090101",
"t  c #0B0101",
"y  c #090201",
"u  c #080202",
"i  c #0A0302",
"p  c #0E0202",
"a  c #0F0202",
"s  c #080702",
"d  c #0F0404",
"f  c #070802",
"g  c #080A02",
"h  c #080B02",
"j  c #0D0A02",
"k  c #0F0F07",
"l  c #03060A",
"z  c #070B0B",
"x  c #03080C",
"c  c #03080D",
"v  c #04090E",
"b  c #04090F",
"n  c #040A0F",
"m  c gray3",
"M  c #090909",
"N  c #0F080B",
"B  c #0D0A0C",
"V  c #090E0E",
"C  c gray5",
"Z  c #110202",
"A  c #120202",
"S  c #130303",
"D  c #190303",
"F  c #1C0404",
"G  c #1F0505",
"H  c #100D02",
"J  c #11080C",
"K  c #101504",
"L  c #181404",
"P  c #1C1704",
"I  c #040B12",
"U  c #050C13",
"Y  c #050D16",
"T  c #0D0F10",
"R  c #1D0D13",
"E  c #031115",
"W  c #08131F",
"Q  c gray7",
"!  c gray8",
"~  c #111A1A",
"^  c #121B1B",
"/  c #191919",
"(  c #200404",
")  c #290504",
"_  c #280605",
"`  c #2A0605",
"'  c #2B0605",
"]  c #2B0706",
"[  c #2C0605",
"{  c #2D0606",
"}  c #2E0606",
"|  c #310505",
" . c #310606",
".. c #330606",
"X. c #3E0707",
"o. c #3E0807",
"O. c #28131C",
"+. c #192004",
"@. c #192005",
"#. c #1B2308",
"$. c #28280B",
"%. c #322A07",
"&. c #3E3309",
"*. c #081624",
"=. c #081727",
"-. c #08192A",
";. c #09192A",
":. c #0A1D31",
">. c #0B1F33",
",. c #0B2036",
"<. c #0C2138",
"1. c #202020",
"2. c gray15",
"3. c #343434",
"4. c gray22",
"5. c #420908",
"6. c #5B0C0B",
"7. c #700D0B",
"8. c #720E0D",
"9. c #730F0D",
"0. c #403508",
"q. c #484815",
"w. c #5A5A19",
"e. c #7C650E",
"r. c #61611B",
"t. c #7B7B23",
"y. c #0D2640",
"u. c #0F2C48",
"i. c #103051",
"p. c #113354",
"a. c #123456",
"s. c #133557",
"d. c #14385C",
"f. c #15395E",
"g. c #153D64",
"h. c #153F68",
"j. c #17426D",
"k. c #17436E",
"l. c #17446F",
"z. c #174571",
"x. c #184572",
"c. c #184672",
"v. c #184673",
"b. c #414141",
"n. c gray29",
"m. c gray35",
"M. c #6F6F6F",
"N. c #8F0F0E",
"B. c #A01111",
"V. c #A41011",
"C. c #AD1212",
"Z. c #BF1313",
"A. c #B81514",
"S. c #C01313",
"D. c #C51514",
"F. c #D21415",
"G. c #D31616",
"H. c #DD1516",
"J. c #DD1716",
"K. c #DE1617",
"L. c #DE1717",
"P. c #E11717",
"I. c #E31616",
"U. c #E51616",
"Y. c #EE1717",
"T. c #E91817",
"R. c #ED1817",
"E. c #EA1718",
"W. c #EC1718",
"Q. c #F31718",
"!. c #F71718",
"~. c #F31818",
"^. c #F51818",
"/. c #F61818",
"(. c #F81818",
"). c #F81819",
"_. c #F91919",
"`. c #FA1818",
"'. c #FA1819",
"]. c #FB1819",
"[. c #FA1919",
"{. c #FB1919",
"}. c #FC1919",
"|. c #9D8011",
" X c #B49412",
".X c #B99717",
"XX c #BA9812",
"oX c #BD9B12",
"OX c #BD9A13",
"+X c #BC9914",
"@X c #A0A02E",
"#X c #A5A52E",
"$X c #AEAE31",
"%X c #B5B533",
"&X c #C6A216",
"*X c #CBA513",
"=X c #C9A315",
"-X c #CCA616",
";X c #D7B016",
":X c #A0CF16",
">X c #F5C817",
",X c #F6C816",
"<X c #F6C916",
"1X c #F8CA15",
"2X c #FDCE16",
"3X c #FECF16",
"4X c #CDCD3A",
"5X c #D5D53D",
"6X c #E3E33F",
"7X c #E4E43E",
"8X c #E5E53F",
"9X c #F2F242",
"0X c #FDFD45",
"qX c #FDFD46",
"wX c #DE6393",
"eX c #E46697",
"rX c #E66798",
"tX c #1BCEFC",
"yX c #1CCFFD",
"uX c gray51",
"iX c gray61",
"pX c #9D9D9D",
"aX c #A2A2A2",
"sX c gray65",
"dX c #A7A7A7",
"fX c gray70",
"gX c gray74",
"hX c #9EF8F8",
"jX c #A1FCFC",
"kX c #A1FDFD",
"lX c gray99",
"zX c #FDFDFD",
"xX c None",
/* pixels */
"xXxXxXxXxXxXxXxXxXxXxXxXxXxXxXxXxXxXxXxXxXxXxXxXxXxXxXxX    xXxXxXxXxXxXxXxXxXxXxXxXxXxXxXxXxXxXxXxXxXxXxXxXxXxXxXxXxXxXxXxXxXxX",
"xXxXxXxXxXxXxXxXxXxXxXxXxXxXxXxXxXxXxXxXxXxXxXxXxXxX  ] }.}.  xXxXxXxXxXxXxXxXxXxXxXxXxXxXxXxXxXxXxXxXxXxXxXxXxXxXxXxXxXxXxXxXxX",
"xXxXxXxXxXxXxXxXxXxXxXxXxXxXxXxXxXxXxXxXxXxXxXxXxX  {.}.}.}.}. .xXxXxXxXxXxXxXxXxXxXxXxXxXxXxXxXxXxXxXxXxXxXxXxXxXxXxXxXxXxXxXxX",
"xXxXxXxXxXxXxXxXxXxXxXxXxXxXxXxXxXxXxXxXxXxXxXxX  }.}.}.}.}.}.}.D xXxXxXxXxXxXxXxXxXxXxXxXxXxXxXxXxXxXxXxXxXxXxXxXxXxXxXxXxXxXxX",
"xXxXxXxXxXxXxXxXxXxXxXxXxXxXxXxXxXxXxXxXxXxXxX  }.}.}.}.}.}.}.}.}.) xXxXxXxXxXxXxXxXxXxXxXxXxXxXxXxXxXxXxXxXxXxXxXxXxXxXxXxXxXxX",
"xXxXxXxXxXxXxXxXxXxXxXxXxXxXxXxXxXxXxXxXxXxX                          xXxXxXxXxXxXxXxXxXxXxXxXxXxXxXxXxXxXxXxXxXxXxXxXxXxXxXxXxX",
"xXxXxXxXxXxXxXxXxXxXxXxXxXxXxXxXxXxXxXxXxX    lXlXyXyXzXzXyXyXlXlXyXyX* xXxXxXxXxXxXxXxXxXxXxXxXxXxXxXxXxXxXxXxXxXxXxXxXxXxXxXxX",
"xXxXxXxXxXxXxXxXxXxXxXxXxXxXxXxXxXxXxXxXxX                              xXxXxXxXxXxXxXxXxXxXxXxXxXxXxXxXxXxXxXxXxXxXxXxXxXxXxXxX",
"xXxXxXxXxXxXxXxXxXxXxXxXxXxXxXxXxXxXxXxX    lXyXyXzXlXyXyXzXzXtXyXzXzX    xXxXxXxXxXxXxXxXxXxXxXxXxXxXxXxXxXxXxXxXxXxXxXxXxXxXxX",
"xXxXxXxXxXxXxXxXxXxXxXxXxXxXxXxXxXxXxXiX                                E   xXxXxXxXxXxXxXxXxXxXxXxXxXxXxXxXxXxXxXxXxXxXxXxXxXxX",
"xXxXxXxXxXxXxXxXxXxXxXxXxXxXxXxXxXxXxX    yXyXxXlXyXyXzXzXyXyXlXlXyXyXlXzXo xXxXxXxXxXxXxXxXxXxXxXxXxXxXxXxXxXxXxXxXxXxXxXxXxXxX",
"xXxXxXxXxXxXxXxXxXxXxXxXxXxXxXxXxXxX3.yXyXzXzX                          yXyX  xXxXxXxXxXxXxXxXxXxXxXxXxXxXxXxXxXxXxXxXxXxXxXxXxX",
"xXxXxXxXxXxXxXxXxXxXxXxXxXxXxXxXxXxX5         E.}.}.}.}.}.}.}.}.}.}.}.}.      xXxXxXxXxXxXxXxXxXxXxXxXxXxXxXxXxXxXxXxXxXxXxXxXxX",
"xXxXxXxXxXxXxXxXxXxXxXxXxXxXxXxXxXgXy }.}.}.}.}.}.}.}.}.}.}.}.}.}.}.}.}.}.}.}.  xXxXxXxXxXxXxXxXxXxXxXxXxXxXxXxXxXxXxXxXxXxXxXxX",
"xXxXxXxXxXxXxXxXxXxXxXxXxXxXxXxXxX  }.}.}.}.}.}.}.}.}.}.p         }.}.}.}.}.}.  xXxXxXxXxXxXxXxXxXxXxXxXxXxXxXxXxXxXxXxXxXxXxXxX",
"xXxXxXxXxXxXxXxXxXxXxXxXxXxXxXxXxX  }.}.}.}.}.}.}.}.}.*.v.kXkXkXv.  }.}.}.}.}.P.  xXxXxXxXxXxXxXxXxXxXxXxXxXxXxXxXxXxXxXxXxXxXxX",
"xXxXxXxXxXxXxXxXxXxXxXxXxXxXxXxX  }.}.}.}.}.}.}.}.}.  v.jXkXkXkXkXv.  }.}.}.}.}.M xXxXxXxXxXxXxXxXxXxXxXxXxXxXxXxXxXxXxXxXxXxXxX",
"xXxXxXxXxXxXxXxXxXxXxXxXxXxXxXxX  }.}.}.}.}.}.}.}.}.2 v.kXkXkXkXkXv.  }.}.}.}.}.  xXxXxXxXxXxXxXxXxXxXxXxXxXxXxXxXxXxXxXxXxXxXxX",
"xXxXxXxXxXxXxXxXxXxXxXxXxXxXxXxX  }.}.}.}.}.}.}.}.}.  v.kXkXkXkXkXv.  }.}.}.}.}.  xXxXxXxXxXxXxXxXxXxXxXxXxXxXxXxXxXxXxXxXxXxXxX",
"xXxXxXxXxXxXxXxXxXxXxXxXxXxXxX  }.}.}.}.}.}.}.}.}.}.  v.kXkXkXkXkXv.  }.}.}.}.}.}.  xXxXxXxXxXxXxXxXxXxXxXxXxXxXxXxXxXxXxXxXxXxX",
"xXxXxXxXxXxXxXxXxXxXxXxXxXxXxX  }.}.}.}.}.}.}.}.}.}.  l.kXkXkXkXkX% x }.}.}.}.}.}.& xXxXxXxXxXxXxXxXxXxXxXxXxXxXxXxXxXxXxXxXxXxX",
"xXxXxXxXxXxXxXxXxXxXxXxXxXxXxX. }.}.}.}.}.}.}.}.}.}.}.  b kXkXkXv.  W.}.}.}.}.}.}.  xXxXxXxXxXxXxXxXxXxXxXxXxXxXxXxXxXxXxXxXxXxX",
"xXxXxXxXxXxXxXxXxXxXxXxXxXxXxX  }.}.}.}.}.}.}.}.}.}.}.[.  v.v.v.  | }.}.}.}.}.}.}.  xXxXxXxXxXxXxXxXxXxXxXxXxXxXxXxXxXxXxXxXxXxX",
"xXxXxXxXxXxXxXxXxXxXxXxXxXxX  ^.}.}.}.}.}.}.}.}.}.}.}.}.}.  l $ /.}.}.}.}.}.}.}.}.t xXxXxXxXxXxXxXxXxXxXxXxXxXxXxXxXxXxXxXxXxXxX",
"xXxXxXxXxXxXxXxXxXxXxXxXxX    }.}.}.}.}.}.}.}.}.}.}.}.}.}.}.}.}.}.}.}.}.}.}.}.}.}.o.C xXxXxXxXxXxXxXxXxXxXxXxXxXxXxXxXxXxXxXxXxX",
"xXxXxXxXxXxXxXxXxXxXxXxX1.}.  }.{.}.}.}.}.}.}.}.}.}.}.}.}.  }.}.}.}.}.{.}.}.}.}.}.u.}.  xXxXxXxXxXxXxXxXxXxXxXxXxXxXxXxXxXxXxXxX",
"xXxXxXxXxXxXxXxXxXxXxXdX  }.  v.v.v.v.v.v.v.v.v.v.v.v.v.v.`   v.v.v.v.v.v.v.v.v.v.  }.}.6.xXxXxXxXxXxXxXxXxXxXxXxXxXxXxXxXxXxXxX",
"xXxXxXxXxXxXxXxXxXxXxX  }.}.        ~ 8 ,.                A }.                      }.}.}.  xXxXxXxXxXxXxXxXxXxXxXxXxXxXxXxXxXxX",
"xXxXxXxXxXxXxXxXxXxXX.}.}.}.  rXrX  kXkXkXN rXrX  kXkXkXkX  }.  kXkX  rXrXrX  kXkX  }.}.}.}.e xXxXxXxXxXxXxXxXxXxXxXxXxXxXxXxXxX",
"xXxXxXxXxXxXxXxXxXb.}.}.}.}.  rXrX  kXkXkXO.rXrX  kXkXkXkX@ }.}.  kX  rXrXrX  kXkX  }.}.}.}.}.  xXxXxXxXxXxXxXxXxXxXxXxXxXxXxXxX",
"xXxXxXxXxXxXxXxXxX  }.}.}.}.  rXrX  kXkXkX  rXrX  kXkXkXkX: }.}.  kX  wXrXrX  kXkX  }.}.}.}.}.  xXxXxXxXxXxXxXxXxXxXxXxXxXxXxXxX",
"xXxXxXxXxXxXxXxX  }.}.}.}.}.                      R B J   6 }.}.                    }.}.}.}.}.}.A xXxXxXxXxXxXxXxXxXxXxXxXxXxXxX",
"xXxXxXxXxXxXxXxX  }.}.}.}.}.  hXkX  rXrXrX  kXkX4 rXrXrXrX= }.}.  rX  kXkXkX  rXrX  }.}.}.}.}.}.  xXxXxXxXxXxXxXxXxXxXxXxXxXxXxX",
"xXxXxXxXxXxXxX, }.}.}.}.}.}.}.  kX  rXrXrX  kXkXT rXrXrXrXt }.}.    ^ kXkXkX  rXeX  }.}.}.}.}.}.}.' xXxXxXxXxXxXxXxXxXxXxXxXxXxX",
"xXxXxXxXxXxX  }.}.}.}.}.}.}.}.                            ; }.}.}.  &               }.}.}.}.}.}.}.  xXxXxXxXxXxXxXxXxXxXxXxXxXxX",
"xXxXxXxXxXxX  }.}.}.}.}.}.}.}.  lXlXlXlXlXlXlXlXlXlXlXlXlX[ }.}.}.  lXlXlXlXlXlX  _.}.}.}.}.}.}.}.}.0 xXxXxXxXxXxXxXxXxXxXxXxXxX",
"xXxXxXxXxXxXi }.}.}.}.}.}.}.}.                              }.}.}.          F   S                   G xXxXxXxXxXxXxXxXxXxXxXxXxX",
"xXxXxXxXxXxX  }.}.}.}.}.}.      } }.}.}.}.}.}.}.}.}.}.}.}.}.  }.}.  {.}.}.}.}.}.  xXxXxXxXxXxXxXxXxXxXxXxXxXxXxXxXxXxXxXxXxXxXxX",
"xXxXxXxXxXxX  }.    o Q   xXxXxX/ }.}.}.}.}.}.}.}.}.}.}.}.}.}.  }.  }.}.}.}.}./.  xXxXxXxXxXxXxXxXxXxXxXxXxXxXxXxXxXxXxXxXxXxXxX",
"xXxXxXxXxXxX    xXxXxXxXxXxXxXxXxXq }.}.}.}.}.}.}.}.}.}.}.}.}.}.    }.}.}.}.!.  xXxXxXxXxXxXxXxXxXxXxXxXxXxXxXxXxXxXxXxXxXxXxXxX",
"xXxXxXxXxXxXxXxXxXxXxXxXxXxXxXxXxX      }.}.}.}.}.}.}.}.}.}.}.}.}.}.}.      +.xXxXxXxXxXxXxXxXxXxXxXxXxXxXxXxXxXxXxXxXxXxXxXxXxX",
"xXxXxXxXxXxXxXxXxXxXxXxXxXxXxXxXxX  kXkX  z       }.}.].'.(.Q.  a     kX  :X  xXxXxXxXxXxXxXxXxXxXxXxXxXxXxXxXxXxXxXxXxXxXxXxXxX",
"xXxXxXxXxXxXxXxXxXxXxXxXxXxXxXxXxXxX  kX  kXkXf :X            :X:X  kXkXO :X  xXxXxXxXxXxXxXxXxXxXxXxXxXxXxXxXxXxXxXxXxXxXxXxXxX",
"xXxXxXxXxXxXxXxXxXxXxXxXxXxXxXxXxXxX      kXkX#.:X:Xg kXkXkX  :X:Xw kXkXV   xXxXxXxXxXxXxXxXxXxXxXxXxXxXxXxXxXxXxXxXxXxXxXxXxXxX",
"xXxXxXxXxXxXxXxXxXxXxXxXxXxXxXxXxXxX  v.v.  W   @.    kXkXkXh     K   <.v.Z xXxXxXxXxXxXxXxXxXxXxXxXxXxXxXxXxXxXxXxXxXxXxXxXxXxX",
"xXxXxXxXxXxXxXxXxXxXxXxXxXxXxXxXxXxX  U.d.v.v.v.v.v.    =.9 Y i.v.v.v.f.(.}.7 xXxXxXxXxXxXxXxXxXxXxXxXxXxXxXxXxXxXxXxXxXxXxXxXxX",
"xXxXxXxXxXxXxXxXxXxXxXxXxXxXxXxXxX  g.R.}.{.+ k.v.v.v.v.v.v.v.v.p.{ {.}.r v._   xXxXxXxXxXxXxXxXxXxXxXxXxXxXxXxXxXxXxXxXxXxXxXxX",
"xXxXxXxXxXxXxXxXxXxXxXxXxXxXxXxXxX..# v.v I.}.}.}.`.L.V.B.D.}.}.}.}.8.z.j.Z.}.  xXxXxXxXxXxXxXxXxXxXxXxXxXxXxXxXxXxXxXxXxXxXxXxX",
"xXxXxXxXxXxXxXxXxXxXxXxXxXxXxXxXxXs.}.~.:.v.v.a.> 7.A.J.K.F.5.3 d.v.j.N.}.S.v.I xXxXxXxXxXxXxXxXxXxXxXxXxXxXxXxXxXxXxXxXxXxXxXxX",
"xXxXxXxXxXxXxXxXxXxXxXxXxXxXxXxXxXy.v.( }.{.u h.v.v.v.v.v.v.v.v.U T.}.}.% v.;.xXxXxXxXxXxXxXxXxXxXxXxXxXxXxXxXxXxXxXxXxXxXxXxXxX",
"xXxXxXxXxXxXxXxXxXxXxXxXxXxXxXxXxXxX1   c.d }.}.}.}.}.H.{.{.}.}.}.G.c v.  m xXxXxXxXxXxXxXxXxXxXxXxXxXxXxXxXxXxXxXxXxXxXxXxXxXxX",
"xXxXxXxXxXxXxXxXxXxXxXxXxXxXxXxXxXxXxXxX>.v.v.a.- C._.[.).Y.9.v x.    n xXxXxXxXxXxXxXxXxXxXxXxXxXxXxXxXxXxXxXxXxXxXxXxXxXxXxXxX",
"xXxXxXxXxXxXxXxXxXxXxXxXxXxXxXxXxXxXxXxXxX    -.                  k < 3XxXxXxXxXxXxXxXxXxXxXxXxXxXxXxXxXxXxXxXxXxXxXxXxXxXxXxXxX",
"xXxXxXxXxXxXxXxXxXxXxXxXxXxXxXxXxXxXxXxXxXH 3X  0X0X8X#Xw.t.9X0XqX$X$.3Xs xXxXxXxXxXxXxXxXxXxXxXxXxXxXxXxXxXxXxXxXxXxXxXxXxXxXxX",
"xXxXxXxXxXxXxXxXxXxXxXxXxXxXxXxXxXxXxXxXq 3X3X<X3X5X0X0X0X0X0X0Xq.3X3X3X3Xm.xXxXxXxXxXxXxXxXxXxXxXxXxXxXxXxXxXxXxXxXxXxXxXxXxXxX",
"xXxXxXxXxXxXxXxXxXxXxXxXxXxXxXxXxXxXxXxXj 3X3X3X-X0X0X0X0X0X0X0X0X3X3X3X3X&XxXxXxXxXxXxXxXxXxXxXxXxXxXxXxXxXxXxXxXxXxXxXxXxXxXxX",
"xXxXxXxXxXxXxXxXxXxXxXxXxXxXxXxXxXxXxXsX  aXX 3XX 0X6X0X0X0X0XX 4X&.3XM.P 3XxXxXxXxXxXxXxXxXxXxXxXxXxXxXxXxXxXxXxXxXxXxXxXxXxXxX",
"xXxXxXxXxXxXxXxXxXxXxXxXxXxXxXxXxXxXxXxXxXxXoX3Xr..X>X0X@XX 0X1X3XOX3Xo xXxX2.xXxXxXxXxXxXxXxXxXxXxXxXxXxXxXxXxXxXxXxXxXxXxXxXxX",
"xXxXxXxXxXxXxXxXxXxXxXxXxXxXxXxXxXxXxXxXxXxX3X3X3X3X3X7X=X3X%X;X3X3X3Xe.xXxXxXxXxXxXxXxXxXxXxXxXxXxXxXxXxXxXxXxXxXxXxXxXxXxXxXxX",
"xXxXxXxXxXxXxXxXxXxXxXxXxXxXxXxXxXxXxXxXxXo 3X%.pXX 3X  3X3X,X+X3X2X3X3XxXxXxXxXxXxXxXxXxXxXxXxXxXxXxXxXxXxXxXxXxXxXxXxXxXxXxXxX",
"xXxXxXxXxXxXxXxXxXxXxXxXxXxXxXxXxXxXxXxXxX  4.xXxX! 3X3X*X0.3X3X3XxXL 3Xo xXxXxXxXxXxXxXxXxXxXxXxXxXxXxXxXxXxXxXxXxXxXxXxXxXxXxX",
"xXxXxXxXxXxXxXxXxXxXxXxXxXxXxXxXxXxXxXxXxXxXxXxXxXxX3X3Xo xX X3X3XxXxXxXuXxXxXxXxXxXxXxXxXxXxXxXxXxXxXxXxXxXxXxXxXxXxXxXxXxXxXxX",
"xXxXxXxXxXxXxXxXxXxXxXxXxXxXxXxXxXxXxXxXxXxXxXxXxXxXXX&.xXxXxX3X|.xXxXxXxXxXxXxXxXxXxXxXxXxXxXxXxXxXxXxXxXxXxXxXxXxXxXxXxXxXxXxX",
"xXxXxXxXxXxXxXxXxXxXxXxXxXxXxXxXxXxXxXxXxXxXxXxXxXxXn.fXxXxXxXxX  xXxXxXxXxXxXxXxXxXxXxXxXxXxXxXxXxXxXxXxXxXxXxXxXxXxXxXxXxXxXxX"
};
