/* XPM */
static char *_090_c96830a7351e758150417b765f9a5028b43cf92fd3c04700d9704f08fb8a318e[] = {
/* columns rows colors chars-per-pixel */
"64 64 186 2 ",
"   c #000000",
".  c #0B0302",
"X  c #0A0C04",
"o  c #04090D",
"O  c #0B0A0B",
"+  c #070802",
"@  c #120202",
"#  c #170806",
"$  c #171504",
"%  c #050C14",
"&  c #0D0F10",
"*  c #1D0D13",
"=  c #08131F",
"-  c #141818",
";  c #2C0606",
":  c #200404",
">  c #380707",
",  c #28131C",
"<  c #192005",
"1  c #1B2308",
"2  c #3E3309",
"3  c #312814",
"4  c #09192A",
"5  c #081727",
"6  c #0B1E32",
"7  c #0C2137",
"8  c #202020",
"9  c gray21",
"0  c #4F0B0A",
"q  c #720E0C",
"w  c #403508",
"e  c #432A1C",
"r  c #4D2B1A",
"t  c #592C16",
"y  c #5A351F",
"u  c #632017",
"i  c #613C1B",
"p  c #7D3D1C",
"a  c #432E24",
"s  c #45292B",
"d  c #573829",
"f  c #4A2E34",
"g  c #543630",
"h  c #643924",
"j  c #693823",
"k  c #743826",
"l  c #783633",
"z  c #7C650E",
"x  c #5B473E",
"c  c #754529",
"v  c #694C33",
"b  c #755437",
"n  c #7B7B23",
"m  c #0E2944",
"M  c #123355",
"N  c #14385D",
"B  c #153E66",
"V  c #17426D",
"C  c #184673",
"Z  c #174571",
"A  c #414141",
"S  c #664C45",
"D  c #634F56",
"F  c #705459",
"G  c #67555C",
"H  c #6F6F6F",
"J  c #8F0F0E",
"K  c #A21111",
"L  c #AD1212",
"P  c #BC1414",
"I  c #872E26",
"U  c #C31414",
"Y  c #DE1617",
"T  c #D31516",
"R  c #E31616",
"E  c #EB1817",
"W  c #EC1718",
"Q  c #F51718",
"!  c #F51818",
"~  c #FC1919",
"^  c #8B4924",
"/  c #8D542F",
"(  c #94552A",
")  c #9F5C2F",
"_  c #88483B",
"`  c #8A533A",
"'  c #945331",
"]  c #9D5D30",
"[  c #974828",
"{  c #A25A2F",
"}  c #B04C38",
"|  c #A15C33",
" . c #AC5E35",
".. c #A76239",
"X. c #B16739",
"o. c #BB763C",
"O. c #C5532D",
"+. c #C66C39",
"@. c #C4713E",
"#. c #D87D3C",
"$. c #DE6937",
"%. c #9C534D",
"&. c #845856",
"*. c #A84F41",
"=. c #AC594A",
"-. c #B35449",
";. c #9A6D4B",
":. c #9F6A59",
">. c #856D5B",
",. c #A86845",
"<. c #B56E49",
"1. c #BB6B46",
"2. c #BB724C",
"3. c #BE7648",
"4. c #AE6859",
"5. c #BB685B",
"6. c #B76A5C",
"7. c #B97153",
"8. c #BA735A",
"9. c #9B6F69",
"0. c #C65D55",
"q. c #C6694A",
"w. c #C67547",
"e. c #D97649",
"r. c #D97957",
"t. c #CC6853",
"y. c #E97B42",
"u. c #F07B4C",
"i. c #E97D58",
"p. c #EB6C53",
"a. c #EB7465",
"s. c #BA9812",
"d. c #ADAD31",
"f. c #D7B016",
"g. c #D8813C",
"h. c #E5803F",
"j. c #A0CF16",
"k. c #FECF16",
"l. c #E4E43F",
"z. c #CB8041",
"x. c #D48443",
"c. c #DE844E",
"v. c #D78447",
"b. c #CE8156",
"n. c #D88454",
"m. c #E48643",
"M. c #E78B49",
"N. c #F18649",
"B. c #F58B4B",
"V. c #E68B52",
"C. c #F48456",
"Z. c #F78D56",
"A. c #F3875A",
"S. c #F78D5D",
"D. c #EF985F",
"F. c #F4935B",
"G. c #F79B5D",
"H. c #F6A35C",
"J. c #D58766",
"K. c #CD986E",
"L. c #D3946B",
"P. c #F18962",
"I. c #F39562",
"U. c #F69A62",
"Y. c #F5A265",
"T. c #F7A568",
"R. c #F3B17F",
"E. c #FDFD45",
"W. c #F2F242",
"Q. c #DE6393",
"!. c #E66798",
"~. c #E46697",
"^. c #1CCFFD",
"/. c gray61",
"(. c #A5A5A5",
"). c #AEA0A5",
"_. c gray74",
"`. c #F5BC8F",
"'. c #DFBFA1",
"]. c #9EF8F8",
"[. c #A1FDFD",
"{. c #DFD1D6",
"}. c #E5DAD9",
"|. c #FCFCFC",
" X c #F7F2F5",
".X c None",
/* pixels */
".X.X.X.X.X.X.X.X.X.X.X.X.X.X.X.X.X.X.X.X.X.X.X.X.X.X.X.X.X.X    .X.X.X.X.X.X.X.X.X.X.X.X.X.X.X.X.X.X.X.X.X.X.X.X.X.X.X.X.X.X.X.X",
".X.X.X.X.X.X.X.X.X.X.X.X.X.X.X.X.X.X.X.X.X.X.X.X.X.X.X.X  ; ~ ~   .X.X.X.X.X.X.X.X.X.X.X.X.X.X.X.X.X.X.X.X.X.X.X.X.X.X.X.X.X.X.X",
".X.X.X.X.X.X.X.X.X.X.X.X.X.X.X.X.X.X.X.X.X.X.X.X.X.X.X  ~ ~ ~ ~ ~ > .X.X.X.X.X.X.X.X.X.X.X.X.X.X.X.X.X.X.X.X.X.X.X.X.X.X.X.X.X.X",
".X.X.X.X.X.X.X.X.X.X.X.X.X.X.X.X.X.X.X.X.X.X.X.X.X.X  ~ ~ ~ ~ ~ {.G D )..X.X.X.X.X.X.X.X.X.X.X.X.X.X.X.X.X.X.X.X.X.X.X.X.X.X.X.X",
".X.X.X.X.X.X.X.X.X.X.X.X.X.X.X.X.X.X.X.X.X.X.X.X.X  ~ ~ ~ ~ ~ f F f f v S x }..X.X.X.X.X.X.X.X.X.X.X.X.X.X.X.X.X.X.X.X.X.X.X.X.X",
".X.X.X.X.X.X.X.X.X.X.X.X.X.X.X.X.X.X.X.X.X.X.X.X            f g 3 d x v v a S .X.X.X.X.X.X.X.X.X.X.X.X.X.X.X.X.X.X.X.X.X.X.X.X.X",
".X.X.X.X.X.X.X.X.X.X.X.X.X.X.X.X.X.X.X.X.X.X.X    |.|.^.^.|.6.7.%.,.1.1.L.'.>.a .X.X.X.X.X.X.X.X.X.X.X.X.X.X.X.X.X.X.X.X.X.X.X.X",
".X.X.X.X.X.X.X.X.X.X.X.X.X.X.X.X.X.X.X.X.X.X.X            &.r.i.i.C.B.`.`.L.S 3 .X.X.X.X.X.X.X.X.X.X.X.X.X.X.X.X.X.X.X.X.X.X.X.X",
".X.X.X.X.X.X.X.X.X.X.X.X.X.X.X.X.X.X.X.X.X.X    |.^.^.|.|.4.r.C.A.Z.G.T.T.L.;.g .X.X.X.X.X.X.X.X.X.X.X.X.X.X.X.X.X.X.X.X.X.X.X.X",
".X.X.X.X.X.X.X.X.X.X.X.X.X.X.X.X.X.X.X.X.X/.              5.r.A.P.F.U.Y.G.3.;.e .X.X.X.X.X.X.X.X.X.X.X.X.X.X.X.X.X.X.X.X.X.X.X.X",
".X.X.X.X.X.X.X.X.X.X.X.X.X.X.X.X.X.X.X.X.X    ^.^..X|.^.^.t.i.S.F.T.H.B.m.| / e .X.X.X.X.X.X.X.X.X.X.X.X.X.X.X.X.X.X.X.X.X.X.X.X",
".X.X.X.X.X.X.X.X.X.X.X.X.X.X.X.X.X.X.X.X9 ^.^.|.|.        6.P.I.U.Y.G.B.v...c r   .X.X.X.X.X.X.X.X.X.X.X.X.X.X.X.X.X.X.X.X.X.X.X",
".X.X.X.X.X.X.X.X.X.X.X.X.X.X.X.X.X.X.X.X+         W Q ~  Xl _ P.Z.I.F.M.g.( y y   .X.X.X.X.X.X.X.X.X.X.X.X.X.X.X.X.X.X.X.X.X.X.X",
".X.X.X.X.X.X.X.X.X.X.X.X.X.X.X.X.X.X.X_.. ~ ~ ~ ~ ~ ~ ~ :._ <.r.C.w.v.@.+.] y r ~   .X.X.X.X.X.X.X.X.X.X.X.X.X.X.X.X.X.X.X.X.X.X",
".X.X.X.X.X.X.X.X.X.X.X.X.X.X.X.X.X.X.X  ~ ~ ~ ~ ~ ~ ~ ~ 4.-.t.q.C.+.^ @.#.) y c ~   .X.X.X.X.X.X.X.X.X.X.X.X.X.X.X.X.X.X.X.X.X.X",
".X.X.X.X.X.X.X.X.X.X.X.X.X.X.X.X.X.X.X  ~ ~ ~ ~ ~ ~ ~ ~ 8.} t.e.u.e. .+.m.| h k ~ R   .X.X.X.X.X.X.X.X.X.X.X.X.X.X.X.X.X.X.X.X.X",
".X.X.X.X.X.X.X.X.X.X.X.X.X.X.X.X.X.X  ~ ~ ~ ~ ~ ~ ~ ~ ~ 0.p.e.e.y.C.Z.N.y.( h [ ~ ~ O .X.X.X.X.X.X.X.X.X.X.X.X.X.X.X.X.X.X.X.X.X",
".X.X.X.X.X.X.X.X.X.X.X.X.X.X.X.X.X.X  ~ ~ ~ ~ ~ ~ ~ ~ ~ 0.a.%.i.e.M.G.N.h.c r O.~ ~   .X.X.X.X.X.X.X.X.X.X.X.X.X.X.X.X.X.X.X.X.X",
".X.X.X.X.X.X.X.X.X.X.X.X.X.X.X.X.X.X  ~ ~ ~ ~ ~ ~ ~ ~ ~ 5.*.3 j r b e.m.g. .p $.~ ~   .X.X.X.X.X.X.X.X.X.X.X.X.X.X.X.X.X.X.X.X.X",
".X.X.X.X.X.X.X.X.X.X.X.X.X.X.X.X.X  ~ ~ ~ ~ ~ ~ ~ ~ ~ ~ 9.<.i u l -.i #.g.X.] ~ ~ ~ ~   .X.X.X.X.X.X.X.X.X.X.X.X.X.X.X.X.X.X.X.X",
".X.X.X.X.X.X.X.X.X.X.X.X.X.X.X.X.X  ~ ~ ~ ~ ~ ~ ~ ~ ~ ~   r.,.=.I *.1.v.o.X.c ~ ~ ~ ~   .X.X.X.X.X.X.X.X.X.X.X.X.X.X.X.X.X.X.X.X",
".X.X.X.X.X.X.X.X.X.X.X.X.X.X.X.X.X  ~ ~ ~ ~ ~ ~ ~ ~ ~ ~ Q <.5.J.t.q.@.x.o.<.~ ~ ~ ~ ~   .X.X.X.X.X.X.X.X.X.X.X.X.X.X.X.X.X.X.X.X",
".X.X.X.X.X.X.X.X.X.X.X.X.X.X.X.X.X  ~ ~ ~ ~ ~ ~ ~ ~ ~ ~ ~ 4.7.w.n.v.x.z.X./ ~ ~ ~ ~ ~   .X.X.X.X.X.X.X.X.X.X.X.X.X.X.X.X.X.X.X.X",
".X.X.X.X.X.X.X.X.X.X.X.X.X.X.X.X  Q ~ ~ ~ ~ ~ ~ ~ ~ ~ ~ ~ ! w.w.c.m.v.X. .~ ~ ~ ~ ~ ~ . .X.X.X.X.X.X.X.X.X.X.X.X.X.X.X.X.X.X.X.X",
".X.X.X.X.X.X.X.X.X.X.X.X.X.X.X    ~ ~ ~ ~ ~ ~ ~ ~ ~ ~ ~ ~ ~ 7.V.V.x.3.| ^ ~ ~ ~ ~ ~ ~ > & .X.X.X.X.X.X.X.X.X.X.X.X.X.X.X.X.X.X.X",
".X.X.X.X.X.X.X.X.X.X.X.X.X.X8 ~   ~ ~ ~ ~ Q ~ ~ ~ ~ ~ ~ ~ ~ k / ' w.' ~ ~ ~ ~ ~ ~ ~ ~ m ~   .X.X.X.X.X.X.X.X.X.X.X.X.X.X.X.X.X.X",
".X.X.X.X.X.X.X.X.X.X.X.X.X(.  ~   C C C C C C C C C C C C C C ' ,.^ C C C C Z Z C C C   ~ ~ 0 .X.X.X.X.X.X.X.X.X.X.X.X.X.X.X.X.X",
".X.X.X.X.X.X.X.X.X.X.X.X.X  ~ ~         - o 6                 @ !                       ~ ~ ~   .X.X.X.X.X.X.X.X.X.X.X.X.X.X.X.X",
".X.X.X.X.X.X.X.X.X.X.X.X> ~ ~ ~   !.!.  [.[.[.O !.!.  [.[.[.[.  ~   [.[.  !.!.!.  [.[.  ~ ~ ~ ~ + .X.X.X.X.X.X.X.X.X.X.X.X.X.X.X",
".X.X.X.X.X.X.X.X.X.X.XA ~ ~ ~ ~   !.!.  [.[.[., !.!.  [.[.[.[.  ~ ~   [.  !.!.!.  [.[.  ~ ~ ~ ~ ~   .X.X.X.X.X.X.X.X.X.X.X.X.X.X",
".X.X.X.X.X.X.X.X.X.X.X  ~ ~ ~ ~   !.!.  [.[.[.  !.!.  [.[.[.[.+ ~ ~   [.  Q.!.!.  [.[.  ~ ~ ~ ~ ~   .X.X.X.X.X.X.X.X.X.X.X.X.X.X",
".X.X.X.X.X.X.X.X.X.X  ~ ~ ~ ~ ~                       * O #     ~ ~                     ~ ~ ~ ~ ~ ~ @ .X.X.X.X.X.X.X.X.X.X.X.X.X",
".X.X.X.X.X.X.X.X.X.X  ~ ~ ~ ~ ~   ].[.  !.!.!.  [.[.+ !.!.!.!.  ~ ~   !.  [.[.[.  !.!.  ~ ~ ~ ~ ~ ~   .X.X.X.X.X.X.X.X.X.X.X.X.X",
".X.X.X.X.X.X.X.X.X+ ~ ~ ~ ~ ~ ~ ~   [.  !.!.!.  [.[.& !.!.!.!.. ~ ~     - [.[.[.  !.!.  ~ ~ ~ ~ ~ ~ ~ ; .X.X.X.X.X.X.X.X.X.X.X.X",
".X.X.X.X.X.X.X.X  ~ ~ ~ ~ ~ ~ ~ ~                             . ~ ~ ~                   ~ ~ ~ ~ ~ ~ ~   .X.X.X.X.X.X.X.X.X.X.X.X",
".X.X.X.X.X.X.X.X  ~ ~ ~ ~ ~ ~ ~ ~   |.|.|.|.|.|.|.|.|.|.|.|.|.; ~ ~ ~   |.|.|.|.|.|.  Q ~ ~ ~ ~ ~ ~ ~ ~ + .X.X.X.X.X.X.X.X.X.X.X",
".X.X.X.X.X.X.X.X. ~ ~ ~ ~ ~ ~ ~ ~                               ~ ~ ~           #   #                   : .X.X.X.X.X.X.X.X.X.X.X",
".X.X.X.X.X.X.X.X  ~ ~ ~ ~ ~ ~       ; ~ ~ ~ ~ ~ ~ ~ ~ ~ ~ ~ ~ ~   ~ ~   Q ~ ~ ~ ~ ~   .X.X.X.X.X.X.X.X.X.X.X.X.X.X.X.X.X.X.X.X.X",
".X.X.X.X.X.X.X.X  ~       &   .X.X.X- ~ ~ ~ ~ ~ ~ ~ ~ ~ ~ ~ ~ ~ ~   ~   ~ ~ ~ ~ ~ !   .X.X.X.X.X.X.X.X.X.X.X.X.X.X.X.X.X.X.X.X.X",
".X.X.X.X.X.X.X.X    .X.X.X.X.X.X.X.X.X+ ~ ~ ~ ~ ~ ~ ~ ~ ~ ~ ~ ~ ~ ~     ~ ~ ~ ~ !   .X.X.X.X.X.X.X.X.X.X.X.X.X.X.X.X.X.X.X.X.X.X",
".X.X.X.X.X.X.X.X.X.X.X.X.X.X.X.X.X.X.X      ~ ~ ~ ~ ~ ~ ~ ~ ~ ~ ~ ~ ~ ~ Q       < .X.X.X.X.X.X.X.X.X.X.X.X.X.X.X.X.X.X.X.X.X.X.X",
".X.X.X.X.X.X.X.X.X.X.X.X.X.X.X.X.X.X.X  [.[.  O       ~ ~ ~ ~ Q !   @     [.  j.  .X.X.X.X.X.X.X.X.X.X.X.X.X.X.X.X.X.X.X.X.X.X.X",
".X.X.X.X.X.X.X.X.X.X.X.X.X.X.X.X.X.X.X.X  [.  [.[.+ j.            j.j.  [.[.  j.  .X.X.X.X.X.X.X.X.X.X.X.X.X.X.X.X.X.X.X.X.X.X.X",
".X.X.X.X.X.X.X.X.X.X.X.X.X.X.X.X.X.X.X.X      [.[.1 j.j.+ [.[.[.  j.j.+ [.[.O   .X.X.X.X.X.X.X.X.X.X.X.X.X.X.X.X.X.X.X.X.X.X.X.X",
".X.X.X.X.X.X.X.X.X.X.X.X.X.X.X.X.X.X.X.X  C C   5   $ +   [.[.[.+     $   7 C @ .X.X.X.X.X.X.X.X.X.X.X.X.X.X.X.X.X.X.X.X.X.X.X.X",
".X.X.X.X.X.X.X.X.X.X.X.X.X.X.X.X.X.X.X.X  R N C C C C C     5 o % M C C C B ~ ~   .X.X.X.X.X.X.X.X.X.X.X.X.X.X.X.X.X.X.X.X.X.X.X",
".X.X.X.X.X.X.X.X.X.X.X.X.X.X.X.X.X.X.X  B W ~ Q   V C C C C C C C C M ; ~ ~ . C ;   .X.X.X.X.X.X.X.X.X.X.X.X.X.X.X.X.X.X.X.X.X.X",
".X.X.X.X.X.X.X.X.X.X.X.X.X.X.X.X.X.X.X>   C O R ~ ~ ~ Q Y K K U Q ~ ~ ~ q V V P ~   .X.X.X.X.X.X.X.X.X.X.X.X.X.X.X.X.X.X.X.X.X.X",
".X.X.X.X.X.X.X.X.X.X.X.X.X.X.X.X.X.X.XN ~ ! 6 C C M   q P Y Y T 0   N C V J ~ P C % .X.X.X.X.X.X.X.X.X.X.X.X.X.X.X.X.X.X.X.X.X.X",
".X.X.X.X.X.X.X.X.X.X.X.X.X.X.X.X.X.X.Xm Z # ~ Q . V C C C C C C Z C % E ~ ~   C 4 .X.X.X.X.X.X.X.X.X.X.X.X.X.X.X.X.X.X.X.X.X.X.X",
".X.X.X.X.X.X.X.X.X.X.X.X.X.X.X.X.X.X.X.X+   C @ ~ ~ ~ ~ ~ Y Q ~ ! ~ ~ T o C   O .X.X.X.X.X.X.X.X.X.X.X.X.X.X.X.X.X.X.X.X.X.X.X.X",
".X.X.X.X.X.X.X.X.X.X.X.X.X.X.X.X.X.X.X.X.X.X6 C C M   L ~ ~ Q W q % C     o .X.X.X.X.X.X.X.X.X.X.X.X.X.X.X.X.X.X.X.X.X.X.X.X.X.X",
".X.X.X.X.X.X.X.X.X.X.X.X.X.X.X.X.X.X.X.X.X.X.X    4                   $ + .X.X.X.X.X.X.X.X.X.X.X.X.X.X.X.X.X.X.X.X.X.X.X.X.X.X.X",
".X.X.X.X.X.X.X.X.X.X.X.X.X.X.X.X.X.X.X.X.X.X.X.X.X$ k.E.l.d.n W.E.1 k.+ .X.X.X.X.X.X.X.X.X.X.X.X.X.X.X.X.X.X.X.X.X.X.X.X.X.X.X.X",
".X.X.X.X.X.X.X.X.X.X.X.X.X.X.X.X.X.X.X.X.X.X.X.X(.(.    l.E.E.E.+ k.H $ .X.X.X.X.X.X.X.X.X.X.X.X.X.X.X.X.X.X.X.X.X.X.X.X.X.X.X.X",
".X.X.X.X.X.X.X.X.X.X.X.X.X.X.X.X.X.X.X.X.X.X.X.X.X.Xk.k.k.l.k.d.f.k.^ .X.X.X.X.X.X.X.X.X.X.X.X.X.X.X.X.X.X.X.X.X.X.X.X.X.X.X.X.X",
".X.X.X.X.X.X.X.X.X.X.X.X.X.X.X.X.X.X.X.X.X.X.X.X.X  9 .Xk.k.w k.k.$ k.+ .X.X.X.X.X.X.X.X.X.X.X.X.X.X.X.X.X.X.X.X.X.X.X.X.X.X.X.X",
".X.X.X.X.X.X.X.X.X.X.X.X.X.X.X.X.X.X.X.X.X.X.X.X.X.X.X.Xs.2 .X.Xk..X.X.X.X.X.X.X.X.X.X.X.X.X.X.X.X.X.X.X.X.X.X.X.X.X.X.X.X.X.X.X",
".X.X.X.X.X.X.X.X.X.X.X.X.X.X.X.X.X.X.X.X.X.X.X.X.X.X.X.X.X.X.X.X.X.X.X.X.X.X.X.X.X.X.X.X.X.X.X.X.X.X.X.X.X.X.X.X.X.X.X.X.X.X.X.X",
".X.X.X.X.X.X.X.X.X.X.X.X.X.X.X.X.X.X.X.X.X.X.X.X.X.X.X.X.X.X.X.X.X.X.X.X.X.X.X.X.X.X.X.X.X.X.X.X.X.X.X.X.X.X.X.X.X.X.X.X.X.X.X.X",
".X.X.X.X.X.X.X.X.X.X.X.X.X.X.X.X.X.X.X.X.X.X.X.X.X.X.X.X.X.X.X.X.X.X.X.X.X.X.X.X.X.X.X.X.X.X.X.X.X.X.X.X.X.X.X.X.X.X.X.X.X.X.X.X",
".X.X.X.X.X.X.X.X.X.X.X.X.X.X.X.X.X.X.X.X.X.X.X.X.X.X.X.X.X.X.X.X.X.X.X.X.X.X.X.X.X.X.X.X.X.X.X.X.X.X.X.X.X.X.X.X.X.X.X.X.X.X.X.X",
".X.X.X.X.X.X.X.X.X.X.X.X.X.X.X.X.X.X.X.X.X.X.X.X.X.X.X.X.X.X.X.X.X.X.X.X.X.X.X.X.X.X.X.X.X.X.X.X.X.X.X.X.X.X.X.X.X.X.X.X.X.X.X.X",
".X.X.X.X.X.X.X.X.X.X.X.X.X.X.X.X.X.X.X.X.X.X.X.X.X.X.X.X.X.X.X.X.X.X.X.X.X.X.X.X.X.X.X.X.X.X.X.X.X.X.X.X.X.X.X.X.X.X.X.X.X.X.X.X"
};
