/* XPM */
static char *_7514_2befec354c66aa6268347b75b2c7baf606f39f7d0bdc4313e95e65d4d7b5475e[] = {
/* columns rows colors chars-per-pixel */
"64 64 201 2 ",
"   c black",
".  c #010000",
"X  c #010100",
"o  c #010101",
"O  c #020201",
"+  c #010102",
"@  c #030102",
"#  c #010202",
"$  c #000203",
"%  c #010203",
"&  c #020202",
"*  c gray1",
"=  c #050101",
"-  c #060101",
";  c #070101",
":  c #040102",
">  c #040203",
",  c #070202",
"<  c #040401",
"1  c #010305",
"2  c #020305",
"3  c #010306",
"4  c #050304",
"5  c #010405",
"6  c #030404",
"7  c #010406",
"8  c #020507",
"9  c #030507",
"0  c #040404",
"q  c gray2",
"w  c #050707",
"e  c #070707",
"r  c #090101",
"t  c #0B0101",
"y  c #090201",
"u  c #080202",
"i  c #0A0302",
"p  c #0E0202",
"a  c #0F0202",
"s  c #080702",
"d  c #0F0404",
"f  c #070802",
"g  c #080A02",
"h  c #080B02",
"j  c #0F0F07",
"k  c #03060A",
"l  c #070B0B",
"z  c #03080C",
"x  c #03080D",
"c  c #04090E",
"v  c #04090F",
"b  c #040A0F",
"n  c gray3",
"m  c #090909",
"M  c #0F080B",
"N  c #0D0A0C",
"B  c #090E0E",
"V  c gray5",
"C  c #110202",
"Z  c #120202",
"A  c #130303",
"S  c #190303",
"D  c #1C0404",
"F  c #1F0505",
"G  c #100D02",
"H  c #11080C",
"J  c #101504",
"K  c #181404",
"L  c #1C1704",
"P  c #040B12",
"I  c #050C13",
"U  c #050D16",
"Y  c #0D0F10",
"T  c #1D0D13",
"R  c #031115",
"E  c #08131F",
"W  c gray7",
"Q  c #111A1A",
"!  c #121B1B",
"~  c #191919",
"^  c #200404",
"/  c #290504",
"(  c #280605",
")  c #2A0605",
"_  c #2B0605",
"`  c #2B0706",
"'  c #2C0605",
"]  c #2D0606",
"[  c #2E0606",
"{  c #310505",
"}  c #310606",
"|  c #330606",
" . c #3E0707",
".. c #3E0807",
"X. c #28131C",
"o. c #192004",
"O. c #192005",
"+. c #1B2308",
"@. c #28280B",
"#. c #3E3309",
"$. c #081624",
"%. c #081727",
"&. c #08192A",
"*. c #09192A",
"=. c #0A1D31",
"-. c #0B1F33",
";. c #0B2036",
":. c #0C2138",
">. c #202020",
",. c #343434",
"<. c gray22",
"1. c #420908",
"2. c #5B0C0B",
"3. c #700D0B",
"4. c #720E0D",
"5. c #730F0D",
"6. c #403508",
"7. c #7C650E",
"8. c #7B7B23",
"9. c #0D2640",
"0. c #0F2C48",
"q. c #103051",
"w. c #113354",
"e. c #123456",
"r. c #133557",
"t. c #14385C",
"y. c #15395E",
"u. c #153D64",
"i. c #153F68",
"p. c #17426D",
"a. c #17436E",
"s. c #17446F",
"d. c #174571",
"f. c #184572",
"g. c #184672",
"h. c #184673",
"j. c #414141",
"k. c #6F6F6F",
"l. c #8F0F0E",
"z. c #A01111",
"x. c #A41011",
"c. c #AD1212",
"v. c #BF1313",
"b. c #B81514",
"n. c #C01313",
"m. c #C51514",
"M. c #D21415",
"N. c #D31616",
"B. c #DD1516",
"V. c #DD1716",
"C. c #DE1617",
"Z. c #DE1717",
"A. c #E11717",
"S. c #E31616",
"D. c #E51616",
"F. c #EE1717",
"G. c #E91817",
"H. c #ED1817",
"J. c #EA1718",
"K. c #EC1718",
"L. c #F31718",
"P. c #F71718",
"I. c #F31818",
"U. c #F51818",
"Y. c #F61818",
"T. c #F81818",
"R. c #F81819",
"E. c #F91919",
"W. c #FA1818",
"Q. c #FA1819",
"!. c #FB1819",
"~. c #FA1919",
"^. c #FB1919",
"/. c #FC1919",
"(. c #BA9812",
"). c #A5A52E",
"_. c #B5B533",
"`. c #D7B016",
"'. c #A0CF16",
"]. c #FECF16",
"[. c #E3E33F",
"{. c #E4E43E",
"}. c #E5E53F",
"|. c #F2F242",
" X c #FDFD45",
".X c #DE6393",
"XX c #E46697",
"oX c #E66798",
"OX c #1BCEFC",
"+X c #1CCFFD",
"@X c gray61",
"#X c #A2A2A2",
"$X c gray65",
"%X c #A7A7A7",
"&X c gray74",
"*X c #9EF8F8",
"=X c #A1FCFC",
"-X c #A1FDFD",
";X c gray99",
":X c #FDFDFD",
">X c None",
/* pixels */
">X>X>X>X>X>X>X>X>X>X>X>X>X>X>X>X>X>X>X>X>X>X>X>X>X>X>X>X>X>X    >X>X>X>X>X>X>X>X>X>X>X>X>X>X>X>X>X>X>X>X>X>X>X>X>X>X>X>X>X>X>X>X",
">X>X>X>X>X>X>X>X>X>X>X>X>X>X>X>X>X>X>X>X>X>X>X>X>X>X>X>X  ` /./.  >X>X>X>X>X>X>X>X>X>X>X>X>X>X>X>X>X>X>X>X>X>X>X>X>X>X>X>X>X>X>X",
">X>X>X>X>X>X>X>X>X>X>X>X>X>X>X>X>X>X>X>X>X>X>X>X>X>X>X  ^././././.} >X>X>X>X>X>X>X>X>X>X>X>X>X>X>X>X>X>X>X>X>X>X>X>X>X>X>X>X>X>X",
">X>X>X>X>X>X>X>X>X>X>X>X>X>X>X>X>X>X>X>X>X>X>X>X>X>X  /././././././.S >X>X>X>X>X>X>X>X>X>X>X>X>X>X>X>X>X>X>X>X>X>X>X>X>X>X>X>X>X",
">X>X>X>X>X>X>X>X>X>X>X>X>X>X>X>X>X>X>X>X>X>X>X>X>X  /./././././././././ >X>X>X>X>X>X>X>X>X>X>X>X>X>X>X>X>X>X>X>X>X>X>X>X>X>X>X>X",
">X>X>X>X>X>X>X>X>X>X>X>X>X>X>X>X>X>X>X>X>X>X>X>X                          >X>X>X>X>X>X>X>X>X>X>X>X>X>X>X>X>X>X>X>X>X>X>X>X>X>X>X",
">X>X>X>X>X>X>X>X>X>X>X>X>X>X>X>X>X>X>X>X>X>X>X    ;X;X+X+X:X:X+X+X;X;X+X+X* >X>X>X>X>X>X>X>X>X>X>X>X>X>X>X>X>X>X>X>X>X>X>X>X>X>X",
">X>X>X>X>X>X>X>X>X>X>X>X>X>X>X>X>X>X>X>X>X>X>X                              >X>X>X>X>X>X>X>X>X>X>X>X>X>X>X>X>X>X>X>X>X>X>X>X>X>X",
">X>X>X>X>X>X>X>X>X>X>X>X>X>X>X>X>X>X>X>X>X>X    ;X+X+X:X;X+X+X:X:XOX+X:X:X    >X>X>X>X>X>X>X>X>X>X>X>X>X>X>X>X>X>X>X>X>X>X>X>X>X",
">X>X>X>X>X>X>X>X>X>X>X>X>X>X>X>X>X>X>X>X>X@X                                R   >X>X>X>X>X>X>X>X>X>X>X>X>X>X>X>X>X>X>X>X>X>X>X>X",
">X>X>X>X>X>X>X>X>X>X>X>X>X>X>X>X>X>X>X>X>X    +X+X>X;X+X+X:X:X+X+X;X;X+X+X;X:Xo >X>X>X>X>X>X>X>X>X>X>X>X>X>X>X>X>X>X>X>X>X>X>X>X",
">X>X>X>X>X>X>X>X>X>X>X>X>X>X>X>X>X>X>X>X,.+X+X:X:X                          +X+X  >X>X>X>X>X>X>X>X>X>X>X>X>X>X>X>X>X>X>X>X>X>X>X",
">X>X>X>X>X>X>X>X>X>X>X>X>X>X>X>X>X>X>X>X5         J././././././././././././.      >X>X>X>X>X>X>X>X>X>X>X>X>X>X>X>X>X>X>X>X>X>X>X",
">X>X>X>X>X>X>X>X>X>X>X>X>X>X>X>X>X>X>X&Xy /./././././././././././././././././././.  >X>X>X>X>X>X>X>X>X>X>X>X>X>X>X>X>X>X>X>X>X>X",
">X>X>X>X>X>X>X>X>X>X>X>X>X>X>X>X>X>X>X  /./././././././././.p         /./././././.  >X>X>X>X>X>X>X>X>X>X>X>X>X>X>X>X>X>X>X>X>X>X",
">X>X>X>X>X>X>X>X>X>X>X>X>X>X>X>X>X>X>X  /././././././././.$.h.-X-X-Xh.  /././././.A.  >X>X>X>X>X>X>X>X>X>X>X>X>X>X>X>X>X>X>X>X>X",
">X>X>X>X>X>X>X>X>X>X>X>X>X>X>X>X>X>X  /././././././././.  h.=X-X-X-X-Xh.  /././././.m >X>X>X>X>X>X>X>X>X>X>X>X>X>X>X>X>X>X>X>X>X",
">X>X>X>X>X>X>X>X>X>X>X>X>X>X>X>X>X>X  /././././././././.2 h.-X-X-X-X-Xh.  /././././.  >X>X>X>X>X>X>X>X>X>X>X>X>X>X>X>X>X>X>X>X>X",
">X>X>X>X>X>X>X>X>X>X>X>X>X>X>X>X>X>X  /././././././././.  h.-X-X-X-X-Xh.  /././././.  >X>X>X>X>X>X>X>X>X>X>X>X>X>X>X>X>X>X>X>X>X",
">X>X>X>X>X>X>X>X>X>X>X>X>X>X>X>X>X  /./././././././././.  h.-X-X-X-X-Xh.  /./././././.  >X>X>X>X>X>X>X>X>X>X>X>X>X>X>X>X>X>X>X>X",
">X>X>X>X>X>X>X>X>X>X>X>X>X>X>X>X>X  /./././././././././.  s.-X-X-X-X-X% z /./././././.& >X>X>X>X>X>X>X>X>X>X>X>X>X>X>X>X>X>X>X>X",
">X>X>X>X>X>X>X>X>X>X>X>X>X>X>X>X>X. /././././././././././.  v -X-X-Xh.  K././././././.  >X>X>X>X>X>X>X>X>X>X>X>X>X>X>X>X>X>X>X>X",
">X>X>X>X>X>X>X>X>X>X>X>X>X>X>X>X>X  /././././././././././.~.  h.h.h.  { /././././././.  >X>X>X>X>X>X>X>X>X>X>X>X>X>X>X>X>X>X>X>X",
">X>X>X>X>X>X>X>X>X>X>X>X>X>X>X>X  U./././././././././././././.  k $ Y././././././././.t >X>X>X>X>X>X>X>X>X>X>X>X>X>X>X>X>X>X>X>X",
">X>X>X>X>X>X>X>X>X>X>X>X>X>X>X    /./././././././././././././././././././././././././...V >X>X>X>X>X>X>X>X>X>X>X>X>X>X>X>X>X>X>X",
">X>X>X>X>X>X>X>X>X>X>X>X>X>X>./.  /.^././././././././././././.  /././././.^./././././.0./.  >X>X>X>X>X>X>X>X>X>X>X>X>X>X>X>X>X>X",
">X>X>X>X>X>X>X>X>X>X>X>X>X%X  /.  h.h.h.h.h.h.h.h.h.h.h.h.h.h.)   h.h.h.h.h.h.h.h.h.h.  /./.2.>X>X>X>X>X>X>X>X>X>X>X>X>X>X>X>X>X",
">X>X>X>X>X>X>X>X>X>X>X>X>X  /./.        Q 8 ;.                Z /.                      /././.  >X>X>X>X>X>X>X>X>X>X>X>X>X>X>X>X",
">X>X>X>X>X>X>X>X>X>X>X>X ./././.  oXoX  -X-X-XM oXoX  -X-X-X-X  /.  -X-X  oXoXoX  -X-X  /./././.e >X>X>X>X>X>X>X>X>X>X>X>X>X>X>X",
">X>X>X>X>X>X>X>X>X>X>Xj././././.  oXoX  -X-X-XX.oXoX  -X-X-X-X@ /./.  -X  oXoXoX  -X-X  /././././.  >X>X>X>X>X>X>X>X>X>X>X>X>X>X",
">X>X>X>X>X>X>X>X>X>X>X  /./././.  oXoX  -X-X-X  oXoX  -X-X-X-X: /./.  -X  .XoXoX  -X-X  /././././.  >X>X>X>X>X>X>X>X>X>X>X>X>X>X",
">X>X>X>X>X>X>X>X>X>X  /././././.                      T N H   6 /./.                    /./././././.Z >X>X>X>X>X>X>X>X>X>X>X>X>X",
">X>X>X>X>X>X>X>X>X>X  /././././.  *X-X  oXoXoX  -X-X4 oXoXoXoX= /./.  oX  -X-X-X  oXoX  /./././././.  >X>X>X>X>X>X>X>X>X>X>X>X>X",
">X>X>X>X>X>X>X>X>X, /././././././.  -X  oXoXoX  -X-XY oXoXoXoXt /./.    ! -X-X-X  oXXX  /././././././._ >X>X>X>X>X>X>X>X>X>X>X>X",
">X>X>X>X>X>X>X>X  /./././././././.                            ; /././.  &               /././././././.  >X>X>X>X>X>X>X>X>X>X>X>X",
">X>X>X>X>X>X>X>X  /./././././././.  ;X;X;X;X;X;X;X;X;X;X;X;X;X' /././.  ;X;X;X;X;X;X  E././././././././.0 >X>X>X>X>X>X>X>X>X>X>X",
">X>X>X>X>X>X>X>Xi /./././././././.                              /././.          D   A                   F >X>X>X>X>X>X>X>X>X>X>X",
">X>X>X>X>X>X>X>X  /./././././.      [ /././././././././././././.  /./.  ^./././././.  >X>X>X>X>X>X>X>X>X>X>X>X>X>X>X>X>X>X>X>X>X",
">X>X>X>X>X>X>X>X  /.    o W   >X>X>X~ /./././././././././././././.  /.  /././././.Y.  >X>X>X>X>X>X>X>X>X>X>X>X>X>X>X>X>X>X>X>X>X",
">X>X>X>X>X>X>X>X    >X>X>X>X>X>X>X>X>Xq /./././././././././././././.    /./././.P.  >X>X>X>X>X>X>X>X>X>X>X>X>X>X>X>X>X>X>X>X>X>X",
">X>X>X>X>X>X>X>X>X>X>X>X>X>X>X>X>X>X>X      /././././././././././././././.      o.>X>X>X>X>X>X>X>X>X>X>X>X>X>X>X>X>X>X>X>X>X>X>X",
">X>X>X>X>X>X>X>X>X>X>X>X>X>X>X>X>X>X>X  -X-X  l       /./.!.Q.T.L.  a     -X  '.  >X>X>X>X>X>X>X>X>X>X>X>X>X>X>X>X>X>X>X>X>X>X>X",
">X>X>X>X>X>X>X>X>X>X>X>X>X>X>X>X>X>X>X>X  -X  -X-Xf '.            '.'.  -X-XO '.  >X>X>X>X>X>X>X>X>X>X>X>X>X>X>X>X>X>X>X>X>X>X>X",
">X>X>X>X>X>X>X>X>X>X>X>X>X>X>X>X>X>X>X>X      -X-X+.'.'.g -X-X-X  '.'.w -X-XB   >X>X>X>X>X>X>X>X>X>X>X>X>X>X>X>X>X>X>X>X>X>X>X>X",
">X>X>X>X>X>X>X>X>X>X>X>X>X>X>X>X>X>X>X>X  h.h.  E   O.    -X-X-Xh     J   :.h.C >X>X>X>X>X>X>X>X>X>X>X>X>X>X>X>X>X>X>X>X>X>X>X>X",
">X>X>X>X>X>X>X>X>X>X>X>X>X>X>X>X>X>X>X>X  D.t.h.h.h.h.h.    %.9 U q.h.h.h.y.T./.7 >X>X>X>X>X>X>X>X>X>X>X>X>X>X>X>X>X>X>X>X>X>X>X",
">X>X>X>X>X>X>X>X>X>X>X>X>X>X>X>X>X>X>X  u.H./.^.+ a.h.h.h.h.h.h.h.h.w.] ^./.r h.(   >X>X>X>X>X>X>X>X>X>X>X>X>X>X>X>X>X>X>X>X>X>X",
">X>X>X>X>X>X>X>X>X>X>X>X>X>X>X>X>X>X>X| # h.c S./././.W.Z.x.z.m././././.4.d.p.v./.  >X>X>X>X>X>X>X>X>X>X>X>X>X>X>X>X>X>X>X>X>X>X",
">X>X>X>X>X>X>X>X>X>X>X>X>X>X>X>X>X>X>Xr./.I.=.h.h.e.> 3.b.V.C.M.1.3 t.h.p.l./.n.h.P >X>X>X>X>X>X>X>X>X>X>X>X>X>X>X>X>X>X>X>X>X>X",
">X>X>X>X>X>X>X>X>X>X>X>X>X>X>X>X>X>X>X9.h.^ /.^.u i.h.h.h.h.h.h.h.h.I G././.% h.*.>X>X>X>X>X>X>X>X>X>X>X>X>X>X>X>X>X>X>X>X>X>X>X",
">X>X>X>X>X>X>X>X>X>X>X>X>X>X>X>X>X>X>X>X1   g.d /././././.B.^.^./././.N.x h.  n >X>X>X>X>X>X>X>X>X>X>X>X>X>X>X>X>X>X>X>X>X>X>X>X",
">X>X>X>X>X>X>X>X>X>X>X>X>X>X>X>X>X>X>X>X>X>X-.h.h.e.- c.E.~.R.F.5.c f.    b >X>X>X>X>X>X>X>X>X>X>X>X>X>X>X>X>X>X>X>X>X>X>X>X>X>X",
">X>X>X>X>X>X>X>X>X>X>X>X>X>X>X>X>X>X>X>X>X>X>X    &.                  j < >X>X>X>X>X>X>X>X>X>X>X>X>X>X>X>X>X>X>X>X>X>X>X>X>X>X>X",
">X>X>X>X>X>X>X>X>X>X>X>X>X>X>X>X>X>X>X>X>X>X>X>X>XG ]. X}.).8.|. X@.].s >X>X>X>X>X>X>X>X>X>X>X>X>X>X>X>X>X>X>X>X>X>X>X>X>X>X>X>X",
">X>X>X>X>X>X>X>X>X>X>X>X>X>X>X>X>X>X>X>X>X>X>X>X$X#XX X [. X X XX ].k.L >X>X>X>X>X>X>X>X>X>X>X>X>X>X>X>X>X>X>X>X>X>X>X>X>X>X>X>X",
">X>X>X>X>X>X>X>X>X>X>X>X>X>X>X>X>X>X>X>X>X>X>X>X>X>X].].].{.]._.`.].7.>X>X>X>X>X>X>X>X>X>X>X>X>X>X>X>X>X>X>X>X>X>X>X>X>X>X>X>X>X",
">X>X>X>X>X>X>X>X>X>X>X>X>X>X>X>X>X>X>X>X>X>X>X>X>X  <.>X].].6.].].K ].o >X>X>X>X>X>X>X>X>X>X>X>X>X>X>X>X>X>X>X>X>X>X>X>X>X>X>X>X",
">X>X>X>X>X>X>X>X>X>X>X>X>X>X>X>X>X>X>X>X>X>X>X>X>X>X>X>X(.#.>X>X].>X>X>X>X>X>X>X>X>X>X>X>X>X>X>X>X>X>X>X>X>X>X>X>X>X>X>X>X>X>X>X",
">X>X>X>X>X>X>X>X>X>X>X>X>X>X>X>X>X>X>X>X>X>X>X>X>X>X>X>X>X>X>X>X>X>X>X>X>X>X>X>X>X>X>X>X>X>X>X>X>X>X>X>X>X>X>X>X>X>X>X>X>X>X>X>X",
">X>X>X>X>X>X>X>X>X>X>X>X>X>X>X>X>X>X>X>X>X>X>X>X>X>X>X>X>X>X>X>X>X>X>X>X>X>X>X>X>X>X>X>X>X>X>X>X>X>X>X>X>X>X>X>X>X>X>X>X>X>X>X>X",
">X>X>X>X>X>X>X>X>X>X>X>X>X>X>X>X>X>X>X>X>X>X>X>X>X>X>X>X>X>X>X>X>X>X>X>X>X>X>X>X>X>X>X>X>X>X>X>X>X>X>X>X>X>X>X>X>X>X>X>X>X>X>X>X",
">X>X>X>X>X>X>X>X>X>X>X>X>X>X>X>X>X>X>X>X>X>X>X>X>X>X>X>X>X>X>X>X>X>X>X>X>X>X>X>X>X>X>X>X>X>X>X>X>X>X>X>X>X>X>X>X>X>X>X>X>X>X>X>X",
">X>X>X>X>X>X>X>X>X>X>X>X>X>X>X>X>X>X>X>X>X>X>X>X>X>X>X>X>X>X>X>X>X>X>X>X>X>X>X>X>X>X>X>X>X>X>X>X>X>X>X>X>X>X>X>X>X>X>X>X>X>X>X>X",
">X>X>X>X>X>X>X>X>X>X>X>X>X>X>X>X>X>X>X>X>X>X>X>X>X>X>X>X>X>X>X>X>X>X>X>X>X>X>X>X>X>X>X>X>X>X>X>X>X>X>X>X>X>X>X>X>X>X>X>X>X>X>X>X"
};
