/* XPM */
static char *_759_82acc5f7b0cc7a41dbec030755430fc02b1723f3289ca01a83e143e897fc77d1[] = {
/* columns rows colors chars-per-pixel */
"64 64 191 2 ",
"   c #000000",
".  c #0B0302",
"X  c #0B0C03",
"o  c #04090D",
"O  c #0B0A0B",
"+  c #070802",
"@  c #120202",
"#  c #170806",
"$  c #171504",
"%  c #050C14",
"&  c #0D0F10",
"*  c #1D0D13",
"=  c #141717",
"-  c #08131F",
";  c #2C0606",
":  c #200404",
">  c #380707",
",  c #28131C",
"<  c #192005",
"1  c #1B2308",
"2  c #3E3309",
"3  c #31290F",
"4  c #09192A",
"5  c #081727",
"6  c #0B1E32",
"7  c #0C2137",
"8  c #232323",
"9  c gray21",
"0  c #4F0B0A",
"q  c #720E0C",
"w  c #432A1C",
"e  c #4D2B1A",
"r  c #592C16",
"t  c #5A351F",
"y  c #403508",
"u  c #632017",
"i  c #6F3D1C",
"p  c #442B28",
"a  c #573829",
"s  c #4A2E34",
"d  c #543630",
"f  c #643924",
"g  c #693823",
"h  c #743826",
"j  c #783633",
"k  c #515117",
"l  c #61611B",
"z  c #7C650E",
"x  c #5B473E",
"c  c #754529",
"v  c #694C33",
"b  c #755437",
"n  c #7B7B23",
"m  c #0E2944",
"M  c #123355",
"N  c #14385D",
"B  c #153E66",
"V  c #17426D",
"C  c #184673",
"Z  c #174571",
"A  c #464646",
"S  c gray35",
"D  c #664C45",
"F  c #634F56",
"G  c #6C555B",
"H  c #6F6F6F",
"J  c #8F0F0E",
"K  c #A21111",
"L  c #AD1212",
"P  c #BC1414",
"I  c #872E26",
"U  c #C31414",
"Y  c #DE1617",
"T  c #D31516",
"R  c #E31616",
"E  c #EB1817",
"W  c #EC1718",
"Q  c #F51718",
"!  c #F51818",
"~  c #FC1919",
"^  c #8B4924",
"/  c #8D542F",
"(  c #94552A",
")  c #9F5C2F",
"_  c #88483B",
"`  c #8A533A",
"'  c #945331",
"]  c #9D5D30",
"[  c #974828",
"{  c #A25A2F",
"}  c #A15C33",
"|  c #AC5E35",
" . c #B04C38",
".. c #A76239",
"X. c #B16739",
"o. c #BB763C",
"O. c #C5532D",
"+. c #C66C39",
"@. c #C4713E",
"#. c #D87D3C",
"$. c #DE6937",
"%. c #905652",
"&. c #A84F41",
"*. c #AC594A",
"=. c #B35449",
"-. c #9A6D4B",
";. c #926C5A",
":. c #A86845",
">. c #B56E49",
",. c #BB6B46",
"<. c #BB724C",
"1. c #BE7648",
"2. c #AE6859",
"3. c #BB685B",
"4. c #B76A5C",
"5. c #B97153",
"6. c #BA735A",
"7. c #9B6F69",
"8. c #C65D55",
"9. c #C6694A",
"0. c #C67547",
"q. c #D97649",
"w. c #D97957",
"e. c #CC6853",
"r. c #E97B42",
"t. c #F07B4C",
"y. c #E97D58",
"u. c #EB6C53",
"i. c #EB7465",
"p. c #9D8011",
"a. c #BC9A13",
"s. c #B79615",
"d. c #A3A32E",
"f. c #AEAE31",
"g. c #B5B533",
"h. c #CBA515",
"j. c #C6A216",
"k. c #D7B016",
"l. c #D8813C",
"z. c #E5803F",
"x. c #A0CF16",
"c. c #F6C816",
"v. c #FECF16",
"b. c #D1D13C",
"n. c #E4E43F",
"m. c #CB8041",
"M. c #D48443",
"N. c #DE844E",
"B. c #D78447",
"V. c #CE8156",
"C. c #D88454",
"Z. c #E48643",
"A. c #E78B49",
"S. c #F3884A",
"D. c #E68B52",
"F. c #F48456",
"G. c #F78D56",
"H. c #F3875A",
"J. c #F78D5D",
"K. c #EF985F",
"L. c #F4935B",
"P. c #F79B5D",
"I. c #F6A35C",
"U. c #D58766",
"Y. c #D0966D",
"T. c #F39562",
"R. c #F69A62",
"E. c #F18962",
"W. c #F5A265",
"Q. c #F7A568",
"!. c #F3B17F",
"~. c #FDFD45",
"^. c #F2F242",
"/. c #DE6393",
"(. c #E66798",
"). c #E46697",
"_. c #1CCFFD",
"`. c gray51",
"'. c #9D9D9D",
"]. c #A5A5A5",
"[. c #AEA0A5",
"{. c gray72",
"}. c #F5BC8F",
"|. c #DFBFA1",
" X c #9EF8F8",
".X c #A1FDFD",
"XX c #DFD1D6",
"oX c #E5DAD9",
"OX c #FCFCFC",
"+X c #F7F2F5",
"@X c None",
/* pixels */
"@X@X@X@X@X@X@X@X@X@X@X@X@X@X@X@X@X@X@X@X@X@X@X@X@X@X@X@X    @X@X@X@X@X@X@X@X@X@X@X@X@X@X@X@X@X@X@X@X@X@X@X@X@X@X@X@X@X@X@X@X@X@X",
"@X@X@X@X@X@X@X@X@X@X@X@X@X@X@X@X@X@X@X@X@X@X@X@X@X@X  ; ~ ~   @X@X@X@X@X@X@X@X@X@X@X@X@X@X@X@X@X@X@X@X@X@X@X@X@X@X@X@X@X@X@X@X@X",
"@X@X@X@X@X@X@X@X@X@X@X@X@X@X@X@X@X@X@X@X@X@X@X@X@X  ~ ~ ~ ~ ~ ; @X@X@X@X@X@X@X@X@X@X@X@X@X@X@X@X@X@X@X@X@X@X@X@X@X@X@X@X@X@X@X@X",
"@X@X@X@X@X@X@X@X@X@X@X@X@X@X@X@X@X@X@X@X@X@X@X@X  ~ ~ ~ ~ ~ XXG F [.@X@X@X@X@X@X@X@X@X@X@X@X@X@X@X@X@X@X@X@X@X@X@X@X@X@X@X@X@X@X",
"@X@X@X@X@X@X@X@X@X@X@X@X@X@X@X@X@X@X@X@X@X@X@X  ~ ~ ~ ~ ~ s G s 9 D D D oX@X@X@X@X@X@X@X@X@X@X@X@X@X@X@X@X@X@X@X@X@X@X@X@X@X@X@X",
"@X@X@X@X@X@X@X@X@X@X@X@X@X@X@X@X@X@X@X@X@X@X            s d p d v v v 3 D @X@X@X@X@X@X@X@X@X@X@X@X@X@X@X@X@X@X@X@X@X@X@X@X@X@X@X",
"@X@X@X@X@X@X@X@X@X@X@X@X@X@X@X@X@X@X@X@X@X    OXOX_._.OX4.6.%.:.:.,.Y.|.;.p @X@X@X@X@X@X@X@X@X@X@X@X@X@X@X@X@X@X@X@X@X@X@X@X@X@X",
"@X@X@X@X@X@X@X@X@X@X@X@X@X@X@X@X@X@X@X@X@X            %.w.y.y.t.G.!.}.Y.b w @X@X@X@X@X@X@X@X@X@X@X@X@X@X@X@X@X@X@X@X@X@X@X@X@X@X",
"@X@X@X@X@X@X@X@X@X@X@X@X@X@X@X@X@X@X@X@X    OX_._.OXOX2.w.F.H.G.L.W.W.Y.-.a @X@X@X@X@X@X@X@X@X@X@X@X@X@X@X@X@X@X@X@X@X@X@X@X@X@X",
"@X@X@X@X@X@X@X@X@X@X@X@X@X@X@X@X@X@X@X'.              4.w.H.J.L.P.W.R.1.-.w @X@X@X@X@X@X@X@X@X@X@X@X@X@X@X@X@X@X@X@X@X@X@X@X@X@X",
"@X@X@X@X@X@X@X@X@X@X@X@X@X@X@X@X@X@X@X    _._.@XOX_._.e.y.J.L.Q.I.S.Z.} ` p @X@X@X@X@X@X@X@X@X@X@X@X@X@X@X@X@X@X@X@X@X@X@X@X@X@X",
"@X@X@X@X@X@X@X@X@X@X@X@X@X@X@X@X@X@X9 _._.OXOX        4.E.R.T.W.I.S.z...c e   @X@X@X@X@X@X@X@X@X@X@X@X@X@X@X@X@X@X@X@X@X@X@X@X@X",
"@X@X@X@X@X@X@X@X@X@X@X@X@X@X@X@X@X@X+         W ~ ~ +Xj %.H.H.L.L.A.#.( f t   @X@X@X@X@X@X@X@X@X@X@X@X@X@X@X@X@X@X@X@X@X@X@X@X@X",
"@X@X@X@X@X@X@X@X@X@X@X@X@X@X@X@X@X{.. ~ ~ ~ ~ ~ ~ ~ 7._ ,.q.D.0.N.@.+.] t e ~   @X@X@X@X@X@X@X@X@X@X@X@X@X@X@X@X@X@X@X@X@X@X@X@X",
"@X@X@X@X@X@X@X@X@X@X@X@X@X@X@X@X@X  ~ ~ ~ ~ ~ ~ ~ ~ 2.=.0.9.F.+.^ @.#.) t c ~   @X@X@X@X@X@X@X@X@X@X@X@X@X@X@X@X@X@X@X@X@X@X@X@X",
"@X@X@X@X@X@X@X@X@X@X@X@X@X@X@X@X@X  ~ ~ ~ ~ ~ ~ ~ ~ 3. .e.u.t.q...+.Z.) t i ~ R   @X@X@X@X@X@X@X@X@X@X@X@X@X@X@X@X@X@X@X@X@X@X@X",
"@X@X@X@X@X@X@X@X@X@X@X@X@X@X@X@X  ~ ~ ~ ~ ~ ~ ~ ~ ~ 8.u.q.q.r.t.G.S.z.( g [ ~ ~ O @X@X@X@X@X@X@X@X@X@X@X@X@X@X@X@X@X@X@X@X@X@X@X",
"@X@X@X@X@X@X@X@X@X@X@X@X@X@X@X@X  ~ ~ ~ ~ ~ ~ ~ ~ ~ 8.i.%.w.q.Z.P.S.z.c e O.~ ~   @X@X@X@X@X@X@X@X@X@X@X@X@X@X@X@X@X@X@X@X@X@X@X",
"@X@X@X@X@X@X@X@X@X@X@X@X@X@X@X@X  ~ ~ ~ ~ ~ ~ ~ ~ ~ 3.&.w c w b q.z.#.} i $.~ ~   @X@X@X@X@X@X@X@X@X@X@X@X@X@X@X@X@X@X@X@X@X@X@X",
"@X@X@X@X@X@X@X@X@X@X@X@X@X@X@X  ~ ~ ~ ~ ~ ~ ~ ~ ~ ~ 7.,.u u j :.g l.#.X.| ~ ~ ~ ~   @X@X@X@X@X@X@X@X@X@X@X@X@X@X@X@X@X@X@X@X@X@X",
"@X@X@X@X@X@X@X@X@X@X@X@X@X@X@X  ~ ~ ~ ~ ~ ~ ~ ~ ~ ~   V.:.*.I &.@.B.@.X.c ~ ~ ~ ~   @X@X@X@X@X@X@X@X@X@X@X@X@X@X@X@X@X@X@X@X@X@X",
"@X@X@X@X@X@X@X@X@X@X@X@X@X@X@X  ~ ~ ~ ~ ~ ~ ~ ~ ~ ~ ~ >.3.w.9.9.0.M.o.1.~ ~ ~ ~ ~   @X@X@X@X@X@X@X@X@X@X@X@X@X@X@X@X@X@X@X@X@X@X",
"@X@X@X@X@X@X@X@X@X@X@X@X@X@X@X  ~ ~ ~ ~ ~ ~ ~ ~ ~ ~ ~ 7.5.0.C.B.l.l.../ ~ ~ ~ ~ ~   @X@X@X@X@X@X@X@X@X@X@X@X@X@X@X@X@X@X@X@X@X@X",
"@X@X@X@X@X@X@X@X@X@X@X@X@X@X  ! ~ ~ ~ ~ ~ ~ ~ ~ ~ ~ ~ ~ 0.0.D.B.M.X...~ ~ ~ ~ ~ ~ . @X@X@X@X@X@X@X@X@X@X@X@X@X@X@X@X@X@X@X@X@X@X",
"@X@X@X@X@X@X@X@X@X@X@X@X@X    ~ ~ ~ ~ ~ ~ ~ ~ ~ ~ ~ ~ ~ 5.D.N.V.1.] ^ ~ ~ ~ ~ ~ ~ > & @X@X@X@X@X@X@X@X@X@X@X@X@X@X@X@X@X@X@X@X@X",
"@X@X@X@X@X@X@X@X@X@X@X@X8 ~   ~ ~ ~ ~ ~ ~ ~ ~ ~ ~ ~ ~ ~ h ( ' 0.( ! ~ ~ ~ ~ ~ ~ ~ m ~   @X@X@X@X@X@X@X@X@X@X@X@X@X@X@X@X@X@X@X@X",
"@X@X@X@X@X@X@X@X@X@X@X].  ~   C C C C C C C C C C C C C C ' :.^ C C C C C C C C C   ~ ~ 0 @X@X@X@X@X@X@X@X@X@X@X@X@X@X@X@X@X@X@X",
"@X@X@X@X@X@X@X@X@X@X@X  ~ ~         = + 7                 @ ~                       ~ ~ ~   @X@X@X@X@X@X@X@X@X@X@X@X@X@X@X@X@X@X",
"@X@X@X@X@X@X@X@X@X@X> ~ ~ ~   (.(.  .X.X.XO (.(.  .X.X.X.X  ~   .X.X  (.(.(.  .X.X  ~ ~ ~ ~ + @X@X@X@X@X@X@X@X@X@X@X@X@X@X@X@X@X",
"@X@X@X@X@X@X@X@X@XA ~ ~ ~ ~   (.(.  .X.X.X, (.(.  .X.X.X.X  ~ ~   .X  (.(.(.  .X.X  ~ ~ ~ ~ ~   @X@X@X@X@X@X@X@X@X@X@X@X@X@X@X@X",
"@X@X@X@X@X@X@X@X@X  ~ ~ ~ ~   (.(.  .X.X.X  (.(.  .X.X.X.X  ~ ~   .X  /.(.(.  .X.X  ~ ~ ~ ~ ~   @X@X@X@X@X@X@X@X@X@X@X@X@X@X@X@X",
"@X@X@X@X@X@X@X@X  ~ ~ ~ ~ ~                       * O O   . ~ ~                     ~ ~ ~ ~ ~ ~ @ @X@X@X@X@X@X@X@X@X@X@X@X@X@X@X",
"@X@X@X@X@X@X@X@X  ~ ~ ~ ~ ~    X.X  (.(.(.  .X.X  (.(.(.(.  ~ ~   (.  .X.X.X  (.(.  ~ ~ ~ ~ ~ ~   @X@X@X@X@X@X@X@X@X@X@X@X@X@X@X",
"@X@X@X@X@X@X@X. ~ ~ ~ ~ ~ ~ ~   .X  (.(.(.  .X.X& (.(.).(.. ~ ~     = .X.X.X  (.).  ~ ~ ~ ~ ~ ~ ~ ; @X@X@X@X@X@X@X@X@X@X@X@X@X@X",
"@X@X@X@X@X@X  ~ ~ ~ ~ ~ ~ ~ ~                             . ~ ~ ~                   ~ ~ ~ ~ ~ ~ ~   @X@X@X@X@X@X@X@X@X@X@X@X@X@X",
"@X@X@X@X@X@X  ~ ~ ~ ~ ~ ~ ~ ~   OXOXOXOXOXOXOXOXOXOXOXOXOX; ~ ~ ~   OXOXOXOXOXOX  ~ ~ ~ ~ ~ ~ ~ ~ Q + @X@X@X@X@X@X@X@X@X@X@X@X@X",
"@X@X@X@X@X@X. ~ ~ ~ ~ ~ ~ ~ ~                               ~ ~ ~           #   @                   : @X@X@X@X@X@X@X@X@X@X@X@X@X",
"@X@X@X@X@X@X  ~ ~ ~ ~ ~ ~       ; ~ ~ ~ ~ ~ ~ ~ ~ ~ ~ ~ ~ ~   ~ ~   ~ ~ ~ ~ ~ ~   @X@X@X@X@X@X@X@X@X@X@X@X@X@X@X@X@X@X@X@X@X@X@X",
"@X@X@X@X@X@X  ~       &   @X@X@X= ~ ~ ~ ~ ~ ~ ~ ~ ~ ~ ~ ~ ~ ~   ~   ~ ~ ~ ~ ~ Q   @X@X@X@X@X@X@X@X@X@X@X@X@X@X@X@X@X@X@X@X@X@X@X",
"@X@X@X@X@X@X    @X@X@X@X@X@X@X@X@X+ ~ ~ ~ ~ ~ ~ ~ ~ ~ ~ ~ ~ ~ ~     ~ ~ ~ ~ Q   @X@X@X@X@X@X@X@X@X@X@X@X@X@X@X@X@X@X@X@X@X@X@X@X",
"@X@X@X@X@X@X@X@X@X@X@X@X@X@X@X@X@X      ~ ~ ~ ~ ~ ~ ~ ~ ~ ~ ~ ~ ~ ~ ~       < @X@X@X@X@X@X@X@X@X@X@X@X@X@X@X@X@X@X@X@X@X@X@X@X@X",
"@X@X@X@X@X@X@X@X@X@X@X@X@X@X@X@X@X  .X.X  O       ~ ~ ~ Q ~ Q   @     .X  x.  @X@X@X@X@X@X@X@X@X@X@X@X@X@X@X@X@X@X@X@X@X@X@X@X@X",
"@X@X@X@X@X@X@X@X@X@X@X@X@X@X@X@X@X@X  .X  .X.X+ x.            x.x.  .X.X  x.  @X@X@X@X@X@X@X@X@X@X@X@X@X@X@X@X@X@X@X@X@X@X@X@X@X",
"@X@X@X@X@X@X@X@X@X@X@X@X@X@X@X@X@X@X      .X.X1 x.x.+ .X.X.X  x.x.+ .X.X&   @X@X@X@X@X@X@X@X@X@X@X@X@X@X@X@X@X@X@X@X@X@X@X@X@X@X",
"@X@X@X@X@X@X@X@X@X@X@X@X@X@X@X@X@X@X  C C   -   <     .X.X.X+     $   7 C @ @X@X@X@X@X@X@X@X@X@X@X@X@X@X@X@X@X@X@X@X@X@X@X@X@X@X",
"@X@X@X@X@X@X@X@X@X@X@X@X@X@X@X@X@X@X  R N C C C C C     5 o % M C C Z B Q ~ + @X@X@X@X@X@X@X@X@X@X@X@X@X@X@X@X@X@X@X@X@X@X@X@X@X",
"@X@X@X@X@X@X@X@X@X@X@X@X@X@X@X@X@X  B W ~ ~   V C C C C C C C C M ; ~ ~ . C ;   @X@X@X@X@X@X@X@X@X@X@X@X@X@X@X@X@X@X@X@X@X@X@X@X",
"@X@X@X@X@X@X@X@X@X@X@X@X@X@X@X@X@X>   C o R ~ ~ ~ ~ Y K K U ~ ~ ~ ~ q Z V P Q   @X@X@X@X@X@X@X@X@X@X@X@X@X@X@X@X@X@X@X@X@X@X@X@X",
"@X@X@X@X@X@X@X@X@X@X@X@X@X@X@X@X@XM ~ ! 6 C C M   q P Y Y T 0   N C V J ~ U C % @X@X@X@X@X@X@X@X@X@X@X@X@X@X@X@X@X@X@X@X@X@X@X@X",
"@X@X@X@X@X@X@X@X@X@X@X@X@X@X@X@X@Xm C : ~ ~ . V C C C C C C Z Z % E ~ ~   C 4 @X@X@X@X@X@X@X@X@X@X@X@X@X@X@X@X@X@X@X@X@X@X@X@X@X",
"@X@X@X@X@X@X@X@X@X@X@X@X@X@X@X@X@X@X+   C . ~ ~ ~ ~ ~ Y ~ ~ ~ ~ ~ T o C   O @X@X@X@X@X@X@X@X@X@X@X@X@X@X@X@X@X@X@X@X@X@X@X@X@X@X",
"@X@X@X@X@X@X@X@X@X@X@X@X@X@X@X@X@X@X@X@X6 C C M   L ! ~ Q W q o C     o @X@X@X@X@X@X@X@X@X@X@X@X@X@X@X@X@X@X@X@X@X@X@X@X@X@X@X@X",
"@X@X@X@X@X@X@X@X@X@X@X@X@X@X@X@X@X@X@X@X@X    4                   X + v.@X@X@X@X@X@X@X@X@X@X@X@X@X@X@X@X@X@X@X@X@X@X@X@X@X@X@X@X",
"@X@X@X@X@X@X@X@X@X@X@X@X@X@X@X@X@X@X@X@X@XX v.  ~.~.^.d.l n ^.~.~.f.3 v.+ @X@X@X@X@X@X@X@X@X@X@X@X@X@X@X@X@X@X@X@X@X@X@X@X@X@X@X",
"@X@X@X@X@X@X@X@X@X@X@X@X@X@X@X@X@X@X@X@X+ v.v.c.v.b.~.~.~.~.~.~.k v.v.v.v.S @X@X@X@X@X@X@X@X@X@X@X@X@X@X@X@X@X@X@X@X@X@X@X@X@X@X",
"@X@X@X@X@X@X@X@X@X@X@X@X@X@X@X@X@X@X@X@XX v.v.v.h.~.~.~.~.~.~.~.^.v.v.v.v.j.@X@X@X@X@X@X@X@X@X@X@X@X@X@X@X@X@X@X@X@X@X@X@X@X@X@X",
"@X@X@X@X@X@X@X@X@X@X@X@X@X@X@X@X@X@X@X].  ].  v.  ~.n.~.~.~.~.  b.2 v.H $ v.@X@X@X@X@X@X@X@X@X@X@X@X@X@X@X@X@X@X@X@X@X@X@X@X@X@X",
"@X@X@X@X@X@X@X@X@X@X@X@X@X@X@X@X@X@X@X@X@X@Xa.v.l s.c.~.d.  ~.c.v.s.v.  @X@X8 @X@X@X@X@X@X@X@X@X@X@X@X@X@X@X@X@X@X@X@X@X@X@X@X@X",
"@X@X@X@X@X@X@X@X@X@X@X@X@X@X@X@X@X@X@X@X@X@Xv.v.v.v.v.n.h.v.g.k.v.v.v.z @X@X@X@X@X@X@X@X@X@X@X@X@X@X@X@X@X@X@X@X@X@X@X@X@X@X@X@X",
"@X@X@X@X@X@X@X@X@X@X@X@X@X@X@X@X@X@X@X@X@X  v.3 '.  v.  v.v.c.a.v.v.v.v.@X@X@X@X@X@X@X@X@X@X@X@X@X@X@X@X@X@X@X@X@X@X@X@X@X@X@X@X",
"@X@X@X@X@X@X@X@X@X@X@X@X@X@X@X@X@X@X@X@X@X  9 @X@X= v.v.h.y v.v.v.@X$ v.+ @X@X@X@X@X@X@X@X@X@X@X@X@X@X@X@X@X@X@X@X@X@X@X@X@X@X@X",
"@X@X@X@X@X@X@X@X@X@X@X@X@X@X@X@X@X@X@X@X@X@X@X@X@X@Xv.v.  @Xs.v.v.@X@X@X`.@X@X@X@X@X@X@X@X@X@X@X@X@X@X@X@X@X@X@X@X@X@X@X@X@X@X@X",
"@X@X@X@X@X@X@X@X@X@X@X@X@X@X@X@X@X@X@X@X@X@X@X@X@X@Xa.2 @X@X@Xv.p.@X@X@X@X@X@X@X@X@X@X@X@X@X@X@X@X@X@X@X@X@X@X@X@X@X@X@X@X@X@X@X",
"@X@X@X@X@X@X@X@X@X@X@X@X@X@X@X@X@X@X@X@X@X@X@X@X@X@XA {.@X@X@X@X  @X@X@X@X@X@X@X@X@X@X@X@X@X@X@X@X@X@X@X@X@X@X@X@X@X@X@X@X@X@X@X"
};
