/* XPM */
static char *_4751_b447b80aa4692ce07537df2728291f62b318152c2538a6e5233e208225a53009[] = {
/* columns rows colors chars-per-pixel */
"64 64 9 1 ",
"  c black",
". c gray1",
"X c #2E080F",
"o c #2E0810",
"O c #4A0C18",
"+ c #697D20",
"@ c #DE1039",
"# c white",
"$ c None",
/* pixels */
"$$$$$$$$$$$$$$$$$$$$$$$$$$$$$$$$$$$$$$$$$$$$$$$$$$$$$$$$$$$$$$$$",
"$$$$$$$$$$$$$$$$$$$$$$$$$$$$$$$$$$$$$$$$$$$$$$$$$$$$$$$$$$$$$$$$",
"$$$$$$$$$$$$$$$$$$$$$$$$$$$$$$$$$$$$$$$$$$  $$$$$$$$$$$$$$$$$$$$",
"$$$$$$$$$$$$$$$$$$$$$$$$$$$$$$$$$$$$$$$$ X  $$$$$$$$$$$$$$$$    ",
"$$$$$$$$$$$$$$$$$$$$$$$$$$$$$$$$$$$    $$  o $$$$$$$$$$$$$$$    ",
"$$$$$$$$$$$$$$$$$$$$$$$$$$$$$$$$$$   OOO O   $$$$$$$$$$$        ",
"$$$$$$$$$$$$$$$$$$$$$$$$$$$$$$$$$  OOOOOOOOO  $$$$$$$$$ OOOO    ",
"$$$$$$$$$$$$$$$$$$$$$$$$$$$$$$   ..OOOOOOOO  @  $$$$$$  OOOO  $$",
"$$$$$$$$$$$$$$$$$$$$$$$$$$$$$  oo.OOO   OOO @@@@ $$$$  OOOOO  $$",
"$$$$$$$$$$$$$$$$$$$$$$$$$$$$  ooo.OOO@@@   @@@ @ $$$ OOOOOOO   $",
"$$$$$$$$$$$$$$$$$$$$$$$$$$$$  .oo.OO @@@@  @@@@@     OOOOOOOOO $",
"$$$$$$$$$$$$$$$$$$$$$$$$$$$$ O.o..O @@@ @  @@@@@ OOOOOOOOOOOO  $",
"$$$$$$$$$$$$$$$$$$$$$$$$$$$  O.o.OO @@@@@@OO    OOOOOOOOOOOOO $$",
"$$$$$$$$$$$$$$$$$$$$$$$$$$$ OO .OOOO @@@@ OOO OOOOOOOOOOOOO  $$$",
"$$$$$$$$$$$$$$$$$$$$$$$$$$$  O OOOOOO    OOOOOOOOOOOOOOOO    $$$",
"$$$$$$$$$$$$$$$$$$$$$$$$$$$  O OOOOOOOOOOOOOOOOOOOOOOOO  $###$$$",
"$$$$$$$$$$$$$$$$     $$$$$$$ O OOOOOOOOOOOOOOOOOOOOOOO  #$###$$$",
"$$$$$   $        OO+    $$$$ O OOOOOOOOOOO  OOOOOO    ###$###$$$",
"$$$$ $$   OO+++OOOO++OO      O OOOOOOOOOO $       ####$##$$#$$$$",
"$$$ $   OOOO+++OOOO++OO+++    OOOOOOOOOOO $$$$$###$###$##$$#$$$$",
"$  $$ OOOOOO+++OOOO+OOO+++OOO OOOOOOOOOOO $$$$$###$###$$#$$#$$$$",
"$ $$  OOOOOO+++OOOOOOOO+++OOO  OOOOOOOOOO $$$$$$#$$$#$$$#$$#$$$$",
"$$$$ OOOOOOO++OOOOOOOOO++OOOOO  OOOOOOOOO $$$$$$#$$$#$$$#$$$$$$$",
"$$$  OOOOOOO++OOOOOOOOO++OOOOOO  OOOOOOOO $$$$$$#$$$#$$$#$$$$$$$",
"$$$ OOOOOOOO++OOOOOOOOO++OOOOOOO OOOOOOOO $$$$$$#$$$#$$$#$$$$$$$",
"$$  OOOOOOOO++OOOOOOOOO++OOOOOOO   OOOOOO $$$$$$$$$$$$$$$$$$$$$$",
"$$ OOOOOOOOO++OOOOOOOOO+OOOOOOOOO $ OOOOO $$$$$$$$$$$$$$$$$$$$$$",
"$$ OOOOOOOOO+OOOOOOOOOO+OOOOOOOOO $$ OOOO $$$$$$$$$$$$$$$$$$$$$$",
"$$ OOOOOOOOO+OOOOOOOOOO+OOOOOOOOO $$$ OOOO$$$$$#$$$$$$$$$$$$$$$$",
"$$ OOOOOOOOOOOOOOOOOOOO+OOOOOOOO  $$$ OOO  $$$##$$$$$$$$$$$$$$$$",
"$ OOOOOOOOOOOOOOOOOOOOOOOOOOOOOO $$$$ OOOOO ###$$$#$$$$$$$$$$$$$",
"$  OOOOOOOOOOOOOOO+OOOOOOOOOOOOO $$$$ OOOOOOO##$$$#$$$$$$$$$$$$$",
"$$ OOOOOO+OOOOOOOO++OOOOOOOOOOOO $$$$ OOOOOO   $$##$$$$$$$$$$$$$",
"$$ OOOOOO+OOOOOOOO++OOOOOOOO+OO $$$$$$  OOOOOO  ##$$$$$$$$$$$$$$",
"$$$ OOOOO++OOOOOOO++OOOOOOOO+OO $$$$$$  OOOOOOO  ##$$$$$$$$$$$$$",
"$$$ OOOOO++OOOOOOO++OOOOOOOO++O $$$$$$ $    OOOO  $$$$$$$$$$$$$$",
"$$$  OOOO++OOOOOOO+++OOOOOOO++  $$$$$$$$$          $$$$$$$$$$$$$",
"$$$$ OOOO+++OOOOOO+++OOOOOOO++ $$$$$$$$$$$$$$    $$$$$$$$$$$$$$$",
"$$$$$ OOO+++OOOOOO+++OOOOOOO+  $$$$$$$$$$$$$$$$$$$$$$$$$$$$$$$$$",
"$$$$$$  O+++OOOOOO++++OOOOO   $$$$$$$$$$$$$$$$$$$$$$$$$$$$$$$$$$",
"$$$$$$$                       $$$$$$$$$$$$$$$$$$$$$$$$$$$$$$$$$$",
"$$$$$$$ $$$$$$$$$$$$$$$$$$$$$ $$$$$$$$$$$$$$$$$$$$$$$$$$$$$$$$$$",
"$$$$$$  $$$$$$$$$$$$$$$$$$$$$ $$$$$$$$$$$$$$$$$$$$$$$$$$$$$$$$$$",
"$$$$$$ $ $$$$$$$$$$$$$$$$$$$$  $$$$$$$$$$$$$$$$$$$$$$$$$$$$$$$$$",
"$$$$$$ $ $$$$$$$$$$$$$$$$$$$ $ $$$$$$$$$$$$$$$$$$$$$$$$$$$$$$$$$",
"$$$$$$ $ $$$$$$$$$$$$$$$$$$$ $ $$$$$$$$$$$$$$$$$$$$$$$$$$$$$$$$$",
"$$$$$ $$ $$$$$$$$$$$$$$$$$$$ $ $$$$$$$$$$$$$$$$$$$$$$$$$$$$$$$$$",
"$$$$$ $$ $$$$$$$$$$$$$$$$$$$ $$ $$$$$$$$$$$$$$$$$$$$$$$$$$$$$$$$",
"$$$$$ $$ $$$$$$$$$$$$$$$$$$$ $$ $$$$$$$$$$$$$$$$$$$$$$$$$$$$$$$$",
"$$$$$ $$$ $$$$$$$$$$$$$$$$$ $$$ $$$$$$$$$$$$$$$$$$$$$$$$$$$$$$$$",
"$$$$ $$$$ $$$$$$$$$$$$$$$$$ $$$$ $$$$$$$$$$$$$$$$$$$$$$$$$$$$$$$",
"$$$$ $$$$ $$$$$$$$$$$$$$$$$ $$$$ $$$$$$$$$$$$$$$$$$$$$$$$$$$$$$$",
"$$$$$$$$$$$$$$$$$$$$$$$$$$$$$$$$$$$$$$$$$$$$$$$$$$$$$$$$$$$$$$$$",
"$$$$$$$$$$$$$$$$$$$$$$$$$$$$$$$$$$$$$$$$$$$$$$$$$$$$$$$$$$$$$$$$",
"$$$$$$$$$$$$$$$$$$$$$$$$$$$$$$$$$$$$$$$$$$$$$$$$$$$$$$$$$$$$$$$$",
"$$$$$$$$$$$$$$$$$$$$$$$$$$$$$$$$$$$$$$$$$$$$$$$$$$$$$$$$$$$$$$$$",
"$$$$$$$$$$$$$$$$$$$$$$$$$$$$$$$$$$$$$$$$$$$$$$$$$$$$$$$$$$$$$$$$",
"$$$$$$$$$$$$$$$$$$$$$$$$$$$$$$$$$$$$$$$$$$$$$$$$$$$$$$$$$$$$$$$$",
"$$$$$$$$$$$$$$$$$$$$$$$$$$$$$$$$$$$$$$$$$$$$$$$$$$$$$$$$$$$$$$$$",
"$$$$$$$$$$$$$$$$$$$$$$$$$$$$$$$$$$$$$$$$$$$$$$$$$$$$$$$$$$$$$$$$",
"$$$$$$$$$$$$$$$$$$$$$$$$$$$$$$$$$$$$$$$$$$$$$$$$$$$$$$$$$$$$$$$$",
"$$$$$$$$$$$$$$$$$$$$$$$$$$$$$$$$$$$$$$$$$$$$$$$$$$$$$$$$$$$$$$$$",
"$$$$$$$$$$$$$$$$$$$$$$$$$$$$$$$$$$$$$$$$$$$$$$$$$$$$$$$$$$$$$$$$",
"$$$$$$$$$$$$$$$$$$$$$$$$$$$$$$$$$$$$$$$$$$$$$$$$$$$$$$$$$$$$$$$$"
};
