/* XPM */
static char *_1209_017da5de50e046713ece14359d512ff66f9bf4505ab0196aa53e8d9fa1887322[] = {
/* columns rows colors chars-per-pixel */
"64 64 8 1 ",
"  c black",
". c gray1",
"X c #2E0810",
"o c #4A0C18",
"O c #697D20",
"+ c #DE1039",
"@ c white",
"# c None",
/* pixels */
"################################################################",
"################################################################",
"################################################################",
"################################################################",
"################################################################",
"################################################################",
"################################################################",
"############################### ################################",
"#################.############# ################################",
"################# ############# ################################",
"################# ############# ################################",
"################# ############# ################################",
"################# ############# ################################",
"################# ############# ################################",
"#################   ##########   ###############################",
"################# X ########## X ###############################",
"################# X  ########  X ###############################",
"#################  X ######## XX ###############################",
"################## X  ######  XX ###############################",
"################## XX ###### XXX ###############################",
"################## XX #      XXX ###############################",
"################## X   ooooo     ###############################",
"##################   ooooooooooo   #############################",
"################## ooooooooooooooo  ############################",
"#################   oooo   oooooooo ############################",
"   ############# +++ oo +++ ooooooo  ###########################",
"         ###### +++++  +++++ ooooooo #####################   ###",
"    oooo  ##### + +++  + +++ ooooooo ####################### ###",
"    ooooo   ### +++++  +++++ ooooooo ####################### ###",
"##  ooooooo      +++ oo +++ oooooooo ######################  ###",
"##  ooooooooooooo   oooo   ooooooooo ###################### ####",
"##  ooooooooooooooooooooooooooooooo ######################  ####",
"## oooooooooooooooooooooooooooooooo ###################### #####",
"##  ooooooooooooooooooooooooooooooo #######     #########  #####",
"###   oooooooooooooooo   oooooooooo ####    Ooo        #  ######",
"#####      ooooooooo   # oooooooooo      ooOOooooOOOoo   #######",
"#####@@@#@           ### ooooooooo    OOOooOOooooOOOoooo   #####",
"#####@@@#@@@#@@@#@@@###  ooooooooo oooOOOoooOooooOOOoooooo #####",
"######@@##@@#@@@#@@@### ooooooooo ooooOOOooooooooOOOoooooo  ####",
"######@###@@#@@@##@#### oooooooo  oooooOOoooooooooOOooooooo ####",
"######@###@###@###@#### ooooooo  ooooooOOoooooooooOOooooooo  ###",
"######@###@###@####### ooooooo  oooooooOOoooooooooOOoooooooo ###",
"######@###@###@###@### ooooo    oooooooOOoooooooooOOoooooooo  ##",
"######@######@###@@@#  ooooo # oooooooooOoooooooooOOooooooooo ##",
"#############@@##@@@  ooooo ## oooooooooOooooooooooOooooooooo ##",
"#############@@@#   oooooo  ## oooooooooOooooooooooOooooooooo ##",
"#############@@   oooooooo ###  ooooooooOoooooooooooooooooooo ##",
"#############   ooooooooo  #### oooooooooooooooooooooooooooooo #",
"############   ooooooooo  ##### oooooooooooooOooooooooooooooo  #",
"##############           ###### ooooooooooooOOooooooooOoooooo ##",
"################################ ooOooooooooOOooooooooOoooooo ##",
"################################ ooOooooooooOOoooooooOOooooo ###",
"################################ oOOooooooooOOoooooooOOooooo ###",
"################################  OOoooooooOOOoooooooOOoooo  ###",
"################################# OOoooooooOOOooooooOOOoooo ####",
"#############################      OoooooooOOOooooooOOOooo #####",
"###########################   ####   oooooOOOOooooooOOOo  ######",
"##########################  ######                       #######",
"#########################  ######  ################## ### ######",
"########################  ####### ################### ### ######",
"######################## ######## ################### ### ######",
"#######################  ######## ################### #### #####",
"####################### ######### ################### ####  ####",
"######################  ######### ###################  ####  ###"
};
