/* XPM */
static char *_403_0159bac8a72e4530cf9bd11a42c8a6c443b9fd126435a3d46db521c1d0346b5b[] = {
/* columns rows colors chars-per-pixel */
"64 64 9 1 ",
"  c black",
". c gray1",
"X c #2E080F",
"o c #2E0810",
"O c #4A0C18",
"+ c #697D20",
"@ c #DE1039",
"# c white",
"$ c None",
/* pixels */
"$$$$$$$$$$$$$$$$$$$$$$$$$$$$$$$$$$$$$$$$$$$$$$$$$$$$$$$$$$$$$$$$",
"$$$$$$$$$$$$$$$$$$$$$$$$$$$$$$$$$$$$$$$$$$$$$$$$$$$$$$$$$$$$$$$$",
"$$$$$$$$$$$$$$$$$$$$  $$$$$$$$$$$$$$$$$$$$$$$$$$$$$$$$$$$$$$$$$$",
"    $$$$$$$$$$$$$$$$  X $$$$$$$$$$$$$$$$$$$$$$$$$$$$$$$$$$$$$$$$",
"    $$$$$$$$$$$$$$$ o  $$    $$$$$$$$$$$$$$$$$$$$$$$$$$$$$$$$$$$",
"        $$$$$$$$$$$   O OOO   $$$$$$$$$$$$$$$$$$$$$$$$$$$$$$$$$$",
"    OOOO $$$$$$$$$  OOOOOOOOO  $$$$$$$$$$$$$$$$$$$$$$$$$$$$$$$$$",
"$$  OOOO  $$$$$$  @  OOOOOOOO..   $$$$$$$$$$$$$$$$$$$$$$$$$$$$$$",
"$$  OOOOO  $$$$ @@@@ OOO   OOO.oo  $$$$$$$$$$$$$$$$$$$$$$$$$$$$$",
"$   OOOOOOO $$$ @ @@@   @@@OOO.ooo  $$$$$$$$$$$$$$$$$$$$$$$$$$$$",
"$ OOOOOOOOO     @@@@@  @@@@ OO.oo.  $$$$$$$$$$$$$$$$$$$$$$$$$$$$",
"$  OOOOOOOOOOOO @@@@@  @ @@@ O..o.O $$$$$$$$$$$$$$$$$$$$$$$$$$$$",
"$$ OOOOOOOOOOOOO    OO@@@@@@ OO.o.O  $$$$$$$$$$$$$$$$$$$$$$$$$$$",
"$$$  OOOOOOOOOOOOO OOO @@@@ OOOO. OO $$$$$$$$$$$$$$$$$$$$$$$$$$$",
"$$$    OOOOOOOOOOOOOOOO    OOOOOO O  $$$$$$$$$$$$$$$$$$$$$$$$$$$",
"$$$###$  OOOOOOOOOOOOOOOOOOOOOOOO O  $$$$$$$$$$$$$$$$$$$$$$$$$$$",
"$$$###$#  OOOOOOOOOOOOOOOOOOOOOOO O $$$$$$$     $$$$$$$$$$$$$$$$",
"$$$###$###    OOOOOO  OOOOOOOOOOO O $$$$    +OO        $   $$$$$",
"$$$$#$$##$####       $ OOOOOOOOOO O      OO++OOOO+++OO   $$ $$$$",
"$$$$#$$##$###$###$$$$$ OOOOOOOOOOO    +++OO++OOOO+++OOOO   $ $$$",
"$$$$#$$#$$###$###$$$$$ OOOOOOOOOOO OOO+++OOO+OOOO+++OOOOOO $$  $",
"$$$$#$$#$$$#$$$#$$$$$$ OOOOOOOOOO  OOO+++OOOOOOOO+++OOOOOO  $$ $",
"$$$$$$$#$$$#$$$#$$$$$$ OOOOOOOOO  OOOOO++OOOOOOOOO++OOOOOOO $$$$",
"$$$$$$$#$$$#$$$#$$$$$$ OOOOOOOO  OOOOOO++OOOOOOOOO++OOOOOOO  $$$",
"$$$$$$$#$$$#$$$#$$$$$$ OOOOOOOO OOOOOOO++OOOOOOOOO++OOOOOOOO $$$",
"$$$$$$$$$$$$$$$$$$$$$$ OOOOOO   OOOOOOO++OOOOOOOOO++OOOOOOOO  $$",
"$$$$$$$$$$$$$$$$$$$$$$ OOOOO $ OOOOOOOOO+OOOOOOOOO++OOOOOOOOO $$",
"$$$$$$$$$$$$$$$$$$$$$$ OOOO $$ OOOOOOOOO+OOOOOOOOOO+OOOOOOOOO $$",
"$$$$$$$$$$$$$$$$#$$$$$OOOO $$$ OOOOOOOOO+OOOOOOOOOO+OOOOOOOOO $$",
"$$$$$$$$$$$$$$$$##$$$  OOO $$$  OOOOOOOO+OOOOOOOOOOOOOOOOOOOO $$",
"$$$$$$$$$$$$$#$$$### OOOOO $$$$ OOOOOOOOOOOOOOOOOOOOOOOOOOOOOO $",
"$$$$$$$$$$$$$#$$$##OOOOOOO $$$$ OOOOOOOOOOOOO+OOOOOOOOOOOOOOO  $",
"$$$$$$$$$$$$$##$$   OOOOOO $$$$ OOOOOOOOOOOO++OOOOOOOO+OOOOOO $$",
"$$$$$$$$$$$$$$##  OOOOOO  $$$$$$ OO+OOOOOOOO++OOOOOOOO+OOOOOO $$",
"$$$$$$$$$$$$$##  OOOOOOO  $$$$$$ OO+OOOOOOOO++OOOOOOO++OOOOO $$$",
"$$$$$$$$$$$$$$  OOOO    $ $$$$$$ O++OOOOOOOO++OOOOOOO++OOOOO $$$",
"$$$$$$$$$$$$$          $$$$$$$$$  ++OOOOOOO+++OOOOOOO++OOOO  $$$",
"$$$$$$$$$$$$$$$    $$$$$$$$$$$$$$ ++OOOOOOO+++OOOOOO+++OOOO $$$$",
"$$$$$$$$$$$$$$$$$$$$$$$$$$$$$$$$$  +OOOOOOO+++OOOOOO+++OOO $$$$$",
"$$$$$$$$$$$$$$$$$$$$$$$$$$$$$$$$$$   OOOOO++++OOOOOO+++O  $$$$$$",
"$$$$$$$$$$$$$$$$$$$$$$$$$$$$$$$$$$                       $$$$$$$",
"$$$$$$$$$$$$$$$$$$$$$$$$$$$$$$$$$$ $$$$$$$$$$$$$$$$$$$$$ $$$$$$$",
"$$$$$$$$$$$$$$$$$$$$$$$$$$$$$$$$$$ $$$$$$$$$$$$$$$$$$$$$  $$$$$$",
"$$$$$$$$$$$$$$$$$$$$$$$$$$$$$$$$$  $$$$$$$$$$$$$$$$$$$$ $ $$$$$$",
"$$$$$$$$$$$$$$$$$$$$$$$$$$$$$$$$$ $ $$$$$$$$$$$$$$$$$$$ $ $$$$$$",
"$$$$$$$$$$$$$$$$$$$$$$$$$$$$$$$$$ $ $$$$$$$$$$$$$$$$$$$ $ $$$$$$",
"$$$$$$$$$$$$$$$$$$$$$$$$$$$$$$$$$ $ $$$$$$$$$$$$$$$$$$$ $$ $$$$$",
"$$$$$$$$$$$$$$$$$$$$$$$$$$$$$$$$ $$ $$$$$$$$$$$$$$$$$$$ $$ $$$$$",
"$$$$$$$$$$$$$$$$$$$$$$$$$$$$$$$$ $$ $$$$$$$$$$$$$$$$$$$ $$ $$$$$",
"$$$$$$$$$$$$$$$$$$$$$$$$$$$$$$$$ $$$ $$$$$$$$$$$$$$$$$ $$$ $$$$$",
"$$$$$$$$$$$$$$$$$$$$$$$$$$$$$$$ $$$$ $$$$$$$$$$$$$$$$$ $$$$ $$$$",
"$$$$$$$$$$$$$$$$$$$$$$$$$$$$$$$ $$$$ $$$$$$$$$$$$$$$$$ $$$$ $$$$",
"$$$$$$$$$$$$$$$$$$$$$$$$$$$$$$$$$$$$$$$$$$$$$$$$$$$$$$$$$$$$$$$$",
"$$$$$$$$$$$$$$$$$$$$$$$$$$$$$$$$$$$$$$$$$$$$$$$$$$$$$$$$$$$$$$$$",
"$$$$$$$$$$$$$$$$$$$$$$$$$$$$$$$$$$$$$$$$$$$$$$$$$$$$$$$$$$$$$$$$",
"$$$$$$$$$$$$$$$$$$$$$$$$$$$$$$$$$$$$$$$$$$$$$$$$$$$$$$$$$$$$$$$$",
"$$$$$$$$$$$$$$$$$$$$$$$$$$$$$$$$$$$$$$$$$$$$$$$$$$$$$$$$$$$$$$$$",
"$$$$$$$$$$$$$$$$$$$$$$$$$$$$$$$$$$$$$$$$$$$$$$$$$$$$$$$$$$$$$$$$",
"$$$$$$$$$$$$$$$$$$$$$$$$$$$$$$$$$$$$$$$$$$$$$$$$$$$$$$$$$$$$$$$$",
"$$$$$$$$$$$$$$$$$$$$$$$$$$$$$$$$$$$$$$$$$$$$$$$$$$$$$$$$$$$$$$$$",
"$$$$$$$$$$$$$$$$$$$$$$$$$$$$$$$$$$$$$$$$$$$$$$$$$$$$$$$$$$$$$$$$",
"$$$$$$$$$$$$$$$$$$$$$$$$$$$$$$$$$$$$$$$$$$$$$$$$$$$$$$$$$$$$$$$$",
"$$$$$$$$$$$$$$$$$$$$$$$$$$$$$$$$$$$$$$$$$$$$$$$$$$$$$$$$$$$$$$$$",
"$$$$$$$$$$$$$$$$$$$$$$$$$$$$$$$$$$$$$$$$$$$$$$$$$$$$$$$$$$$$$$$$"
};
