/* XPM */
static char *_239_583a2a224a91c6392f8afc55bd5c367fd6c869a4fceaf2538cda50ff51cd2b58[] = {
/* columns rows colors chars-per-pixel */
"64 64 6 1 ",
"  c black",
". c #2E0810",
"X c #4A0C18",
"o c #697D20",
"O c white",
"+ c None",
/* pixels */
"++++++++++++++++++++++++++++++++++++++++++++++++++++++++++++++++",
"++++++++++++++++++++++++++++++++++++++++++++++++++++++++++++++++",
"++++++++++++++++++++++++++++++++++++++++++++++++++++++++++++++++",
"++++++++++++++++++++++++++++++++++++++++++++++++++++++++++++++++",
"++++++++++++++++++++++++++++++++++++++++++++++++++++++++++++++++",
"++++++++++++++++++++++++++++++++++++++++++++++++++++++++++++++++",
"++++++++++++++++++++++++++++++++++++++++++++++++++++++++++++++++",
"++++++++++++++++++++++++++++++++++++++++++++++++++++++++++++++++",
"++++++++++++++++++++++++++++++++++++++++++++++++++++++++++++++++",
"++++++++++++++++++++++++++++++++++++++++++++++++++++++++++++++++",
"++++++++++++++++++++++++++++++++++++++++++++++++++++++++++++++++",
"++++++++++++++++++++++++++++++++++++++++++++++++++++++++++++++++",
"++++++++++++++++++++++++++++++++++++++++++++++++++++++++++++++++",
"++++++++++++++++++++++++++++++++++++++++++++++++++++++++++++++++",
"++++++++++++++++++++++++++++++++++++++++++++++++++++++++++++++++",
"++++++++++++++++++++++++++++++++++++++++++++++++++++++++++++++++",
"++++++++++++++++++++++++++++++++++++++++++++++++++++++++++++++++",
"++++++++++++++++++++++++++++++++++++++++++++++++++++++++++++++++",
"++++++++++++++++++++++++++++++++++++++++++++++++++++++++++++++++",
"++++++++++++++++++++++++++++++++++++++++++++++++++++++++++++++++",
"++++++++++++++++++++++++++++++++++++++++++++++++++++++++++++++++",
"++++++++++++++++++++++++++++++++++++++++++++++++++++++++++++++++",
"++++++++++++++++++++++++++++++++++++++++++++++++++++++++++++++++",
"++++++++++++++++++++++++++++++++++++++++++++++++++++++++++++++++",
"++++++++++++++++++++++++++++++++++++++++++++++++++++++++++++++++",
"++++++++++++++++++++++++++++++++++++++++++++++++++++++++++++++++",
"++++++++++++++++++++++++++++++++++++++++++++++++++++++++++++++++",
"++++++++++++++++++++++++++++++++++++++++++++++++++++++++++++++++",
"++++++++++++++++++++++++++++++++++++++++++++++++++++++++++++++++",
"++++++++++++++++++++++++++++++++++++++++++++++++++++++++++++++++",
"++++++++++++++++++++++++++++++++++++++++++++++++++++++++++++++++",
"++++++++++++++++++++++++++++++++++++++++++++++++++++++++++++++++",
"++++++++++++++++++++++++++++++++++++++++++++++++++++++++++++++++",
"++++++++++++++++++++++++++++++++++++++++++++++++++++++++++++++++",
"++++++++++++++++++++++++++++++++++++++++++++++++++++++++++++++++",
"++++++++++++++++++++++++++++++++++++++++++++++++++++++++++++++++",
"++++++++++++++++++++++++++++++++++++++++++++++++++++++++++++++++",
"++++++++++++++++++++++++++++++++++++++++++++++++++++++++++++++++",
"++++++++++++++++++++++++++++++++++++++++++++++++++++++++++++++++",
"+++++++++++++++++++++++++++++++++++++++++++     ++++++++++++++++",
"++++++++++++++++++++++++++++++++++++++++    oXX        +++++++++",
"++++++++++++++++++++++++++++    ++++     XoooXXoooXXoo   +++++++",
"+++++++++++++++++++++++++++  ..      ... XXoooXXooXXoooo   +++++",
"+++++++++++++++++++++++++++    XXXXX  .. XXoooXXoXXXXooo   +++++",
"++++++++++++++++++++++++++   XXXXXXXX ..   XooXXXXXXXoooX   ++++",
"++++++++++++++++++++++++++ XXXXXXXXXX  . X  XoXXXXXXXXooXX  ++++",
"+++++++++++++++++++++++++   XXXX   XXX . XX XoXXXXXXXXXoXX   +++",
"++++++++   +++++++++++++  X  XX  X  XX   XX  oXXXXXXXXXoXX X +++",
"++++++++         ++++++  XXX    XXX  XX XXXX XXXXXXXXXooXX X  ++",
"++++++++    XXXX  +++++ XXXXX  XXXXX XXXXXXX XXXXXXXXXoXX  XX ++",
"++++++++    XXXXX   +++ XXXX    XXX  XXXXXXX XXXXXXXXXXX  XXX ++",
"++++++++++  XXXXXXX       X  XX  X  XXXXXXXX XXXXXXXXXX  XXXX ++",
"++++++++++  XXXXXXXXXXXXX   XXXX   XXXXXXXXX XXXXXXXXXXXXXXXX ++",
"++++++++++  XXXXXXXXXXXXXXXXXXXXXXXXXXXXXXX XXXXXXXXXXXXXXXXXX +",
"++++++++++ XXXXXXXXXXXXXXXXXXXXXXXXXXXXXXXX XXXXXXXXXXXXXXXXX  +",
"++++++++++  XXXXXXXXXXXXXXXXXXXXXXXXXXXXXXX XXXXXXXXXXXXXXXXX ++",
"+++++++++++   XXXXXXXXXXXXXXXX   XXXXXXXXXX XXXXXXXXXXXXXXXXX ++",
"++++++++++++O      XXXXXXXXX   XXXXXXXXXXXX XXXXoXXXoXXXXXXX +++",
"++++++++++++OO+OOO           XXXXXXXXXXXXX  XXXXoXXXooXXXXXX +++",
"++++++++++++OO+O+OO++ XXXXXXXXXXXXXXXXXXXX XXXXXoXXXoo  XXX  +++",
"+++++++++++++++O+++++   XXXXXXXXXXXXXXXX   XXXXooXXXo    XX ++++",
"+++++++++++++++++++++++  XXXXXXXXXXXXXX  .  XXXooXXX  ..   +++++",
"++++++++++++++++++++++++   XXXXXXXXXXXX ... XXoooXX  ...  ++++++",
"++++++++++++++++++++++++++                                ++++++"
};
