/* XPM */
static char *_399_666442804f7b886dfeb1ce93027e880cbe4a583ae6c6a97e39da5ad0d4bb1741[] = {
/* columns rows colors chars-per-pixel */
"64 64 7 1 ",
"  c black",
". c #AD3975",
"X c #A892A8",
"o c #BAA7BA",
"O c #C2B1C2",
"+ c white",
"@ c None",
/* pixels */
"@@@@@@@@@@@@@@@@@@@@@@@@@@@@@@@@@@@@@@@@@@@@@@@@@@@@@@@@@@@@@@@@",
"@@@@@@@@@@@@@@@@@@@@@@@@@@@@@@@@@@@@@@@@@@@@@@@@@@@@@@@@@@@@@@@@",
"@@@@@@@@@@@@@@@@@@@@@@@@@@@@@@@@@@@@@@@@@@@@@@@@@@@@@@@@@@@@@@@@",
"@@@@@@@@@@@@@@@@@@@@@@@@@@@@@@@@@@@@@@@@@@@@@@@@@@@@@@@@@@@@@@@@",
"@@@@@@@@@@@@@@@@@@@@@@@@@@@@@@@@@@@@@@@@@@@@@@@@@@@@@@@@@@@@@@@@",
"@@@@@@@@@@@@@@@@@@@@@@@@@@@@@@@     @@@@@@  @@@@@@@@@@@@@@@@@@@@",
"@@@@@@@@@@@@@@@@@@@@@@@@@@@@@@@ XXX      @ X  @@@@@@@@@@@@@@@@@@",
"@@@@@@@@@@@@@@@@@@@@@@@@@@@@@@@ XXX OOOOO   X @@@@@@@@@@@@@@@@@@",
"@@@@@@@@@@@@@@@@@@@@@@@@@@@@@   XX  OOOOOOO   @@@@@@@@@@@@@@@@@@",
"@@@@@@@@@@@@@@@@@@@@@@@@@@@@  O XX OOOOOOOOOO @@@@@@@@@@@@@@@@@@",
"@@@@@@@@@@@@@@@@@@@@@@@@@@@@ OO X  OO   OOOO   @@@@@@@@@@@@@@@@@",
"@@@@@@@@@@@@@@@@@@@@@@@@@@@  OO X OO +++ OO +++ @@@@@@@@@@@@@   ",
"@@@@@@@@@@@@@@@@@@@@@@@@@@@ OOO   O +++++  +++++ @@@@@@         ",
"@@@@@@@@@@@@@@@@@@@@@@@@@@@ OOO  OO +++++  +++++ @@@@@  OOOO    ",
"@@@@@@@@@@@@@@@@@@@@@@@@@@@ OOO  OO ++ ++  ++ ++ @@@   OOOOO    ",
"@@@@@@@@@@@@@@@@@@@@@@@@@@@ OOOOOOOO +++ OO +++      OOOOOOO  @@",
"@@@@@@@@@@@@@@@@@@@@@@@@@@@ OOOOOOOOO   OOOO   OOOOOOOOOOOOO  @@",
"@@@   @@@@@@@@@@@@@@@@@@@@@@ OOOOOOOOOOOOOOOOOOOOOOOOOOOOOOO  @@",
"@@  @ @@@@@@@@@@@@@@@@@@@@@@ OOOOOOOOOOOOOOOOOOOOOOOOOOOOOOOO @@",
"@@ @@   @@@@@@@@     @@@@@@@ OOOOOOOOOOOOOOOOOOOOOOOOOOOOOOO  @@",
"@  @@@@ @        ooo    @@@@ OOOOOOOOOO   OOOOOOOOOOOOOOOO   @@@",
"@ @@@@    ooooooooooooo      OOOOOOOOOO @   OOOOOOOOO      @@@@@",
"  @@@   ooooooooooooooooooo   OOOOOOOOO @@@           +@+++@@@@@",
"@@@@@ ooooo...ooooooooooooooo OOOOOOOOO  @@@+++@+++@+++@+++@@@@@",
"@@@@  oooo.....ooooooooooooooo OOOOOOOOO    +++ +++ ++  ++@@@@@@",
"@@@@ ooooo.....ooooooooooooooo  OOOOOOOOOOOOO+OO+++O++OOO+@@@@@@",
"@@@  ooooo.....oooooooooooooooo  OOOOOOOOOOOOOOOO+OOO+OOO @@@@@@",
"@@@ ooo.ooo...oooooooooooooooooo  OOOOOOOOOOOOOOOOOOOOOO  @@@@@@",
"@@  oo...ooooooooooooooooooooooo         OOOOOOOOOOOOO   @@@@@@@",
"@@ oooo.ooooooooooooooooooooooooo @@@@@@      OOOOO    @@@@@@@@@",
"@@ oooooooooooooooooooooooooooooo @@@@@@@@@@@       @@@@@@@@@@@@",
"@@ oooooooooooooooooooooooooooooo @@@@@@@@@@@@@@@@@@@@@@@@@@@@@@",
"@@ ooooooooooooooooooooooooooooo  @@@@@@@@@@@@@@@@@@@@@@@@@@@@@@",
"@ oooooooooooooooooooooooooooooo @@@@@@@@@@@@@@@@@@@@@@@@@@@@@@@",
"@  ooooooooooooooooooooooooooooo @@@@@@@@@@@@@@@@@@@@@@@@@@@@@@@",
"@@ ooooooooooooooooooooooooooooo @@@@@@@@@@@@@@@@@@@@@@@@@@@@@@@",
"@@ oooooooooooooooooooooooooooo @@@@@@@@@@@@@@@@@@@@@@@@@@@@@@@@",
"@@@ ooooooooooooooooooooooooooo @@@@@@@@@@@@@@@@@@@@@@@@@@@@@@@@",
"@@@ ooooooooooooooooooooooooooo @@@@@@@@@@@@@@@@@@@@@@@@@@@@@@@@",
"@@@  ooooooooooooooooooooooooo  @@@@@@@@@@@@@@@@@@@@@@@@@@@@@@@@",
"@@@@ ooooooooooooooooooooooooo @@@@@@@@@@@@@@@@@@@@@@@@@@@@@@@@@",
"@@@@@ ooooooooooooooooooooooo  @@@@@@@@@@@@@@@@@@@@@@@@@@@@@@@@@",
"@@@@@@  ooooooooooooooooooo    @@@@@@@@@@@@@@@@@@@@@@@@@@@@@@@@@",
"@@@@@@                         @@@@@@@@@@@@@@@@@@@@@@@@@@@@@@@@@",
"@@@@@@ @@ @@@@@@@@@@@@@@@@@@@ @ @@@@@@@@@@@@@@@@@@@@@@@@@@@@@@@@",
"@@@@@@ @@ @@@@@@@@@@@@@@@@@@@ @ @@@@@@@@@@@@@@@@@@@@@@@@@@@@@@@@",
"@@@@@@ @@  @@@@@@@@@@@@@@@@@@ @@ @@@@@@@@@@@@@@@@@@@@@@@@@@@@@@@",
"@@@@@  @@@ @@@@@@@@@@@@@@@@@@ @@ @@@@@@@@@@@@@@@@@@@@@@@@@@@@@@@",
"@@@@@ @@@@ @@@@@@@@@@@@@@@@@@ @@@ @@@@@@@@@@@@@@@@@@@@@@@@@@@@@@",
"@@@@@ @@@@  @@@@@@@@@@@@@@@@@ @@@ @@@@@@@@@@@@@@@@@@@@@@@@@@@@@@",
"@@@@@ @@@@@ @@@@@@@@@@@@@@@@@ @@@ @@@@@@@@@@@@@@@@@@@@@@@@@@@@@@",
"@@@@@ @@@@@ @@@@@@@@@@@@@@@@@ @@@ @@@@@@@@@@@@@@@@@@@@@@@@@@@@@@",
"@@@@@@@@@@@@@@@@@@@@@@@@@@@@@@@@@@@@@@@@@@@@@@@@@@@@@@@@@@@@@@@@",
"@@@@@@@@@@@@@@@@@@@@@@@@@@@@@@@@@@@@@@@@@@@@@@@@@@@@@@@@@@@@@@@@",
"@@@@@@@@@@@@@@@@@@@@@@@@@@@@@@@@@@@@@@@@@@@@@@@@@@@@@@@@@@@@@@@@",
"@@@@@@@@@@@@@@@@@@@@@@@@@@@@@@@@@@@@@@@@@@@@@@@@@@@@@@@@@@@@@@@@",
"@@@@@@@@@@@@@@@@@@@@@@@@@@@@@@@@@@@@@@@@@@@@@@@@@@@@@@@@@@@@@@@@",
"@@@@@@@@@@@@@@@@@@@@@@@@@@@@@@@@@@@@@@@@@@@@@@@@@@@@@@@@@@@@@@@@",
"@@@@@@@@@@@@@@@@@@@@@@@@@@@@@@@@@@@@@@@@@@@@@@@@@@@@@@@@@@@@@@@@",
"@@@@@@@@@@@@@@@@@@@@@@@@@@@@@@@@@@@@@@@@@@@@@@@@@@@@@@@@@@@@@@@@",
"@@@@@@@@@@@@@@@@@@@@@@@@@@@@@@@@@@@@@@@@@@@@@@@@@@@@@@@@@@@@@@@@",
"@@@@@@@@@@@@@@@@@@@@@@@@@@@@@@@@@@@@@@@@@@@@@@@@@@@@@@@@@@@@@@@@",
"@@@@@@@@@@@@@@@@@@@@@@@@@@@@@@@@@@@@@@@@@@@@@@@@@@@@@@@@@@@@@@@@",
"@@@@@@@@@@@@@@@@@@@@@@@@@@@@@@@@@@@@@@@@@@@@@@@@@@@@@@@@@@@@@@@@"
};
