/* XPM */
static char *_517_2a98d285440a4032dc54ef9fc33a10986606036d5a38906d5961024c6f35e3e9[] = {
/* columns rows colors chars-per-pixel */
"64 64 7 1 ",
"  c black",
". c #AD3975",
"X c #A892A8",
"o c #BAA7BA",
"O c #C2B1C2",
"+ c white",
"@ c None",
/* pixels */
"@@@@@@@@@@@@@@@@@@@@@@@@@@@@@@@@@@@@@@@@@@@@@@@@@@@@@@@@@@@@@@@@",
"@@@@@@@@@@@@@@@@@@@@@@@@@@@@@@@@@@@@@@@@@@@@@@@@@@@@@@@@@@@@@@@@",
"@@@@@@@@@@@@@@@@@@@@@@@@@@@@@@@@@@@@@@@@@@@@@@@@@@@@@@@@@@@@@@@@",
"@@@@@@@@@@@@@@@@@@@@@@@@@@@@@@@@@@@@@@@@@@@@@@@@@@@@@@@@@@@@@@@@",
"@@@@@@@@@@@@@@@@@@@@@@@@@@@@@@@@@@@@@@@@@@@@@@@@@@@@@@@@@@@@@@@@",
"@@@@@@@@@@@@@@@@@@@@@@@@@@@@@@@@@@@@@@@@@@@@@@@@@@@@@@@@@@@@@@@@",
"@@@@@@@@@@@@@@@@@@@@@@@@@@@@@@@@@@@@@@@@@@@@@@@@@@@@@@@@@@@@@@@@",
"@@@@@@@@@@@@@@@@@@@@@@@@@@@@@@@@@@@@@@@@@@@@@@@@@@@@@@@@@@@@@@@@",
"@@@@@@@@@@@@@@@@@@@@@@@@@@@@@@@@@@@@@@@@@@@@@@@@@@@@@@@@@@@@@@@@",
"@@@@@@@@@@@@@@@@@@@@@@@@@@@@@@@@@@@@@@@@@@@@@@@@@@@@@@@@@@@@@@@@",
"@@@@@@@@@@@@@@@@@@@@@@@@@@@@@@@@@@@@@@@@@@@@@@@@@@@@@@@@@@@@@@@@",
"@@@@@@@@@@@@@@@@@@@@@@@@@@@@@@@@@@@@@@@@@@@@@@@@@@@@@@@@@@@@@@@@",
"@@@@@@@@@@@@@@@@@@@@@@@@@@@@@@@@ @@@@@@@@@@@@@@@@@@@@@@@@@@@@@@@",
"@@@@@@@@@@@@@@@@@@@@@@@@@@@@@@@@ @@@@@@@@@@@@@ @@@@@@@@@@@@@@@@@",
"@@@@@@@@@@@@@@@@@@@@@@@@@@@@@@@   @@@@@@@@@@   @@@@@@@@@@@@@@@@@",
"@@@@@@@@@@@@@@@@@@@@@@@@@@@@@@@ X @@@@@@@@@@ X @@@@@@@@@@@@@@@@@",
"@@@@@@@@@@@@@@@@@@@@@@@@@@@@@@@ X  @@@@@@@@  X @@@@@@@@@@@@@@@@@",
"@@@@@@@@@@@@@@@@@@@@@@@@@@@@@@@ XX @@@@@@@@ X  @@@@@@@@@@@@@@@@@",
"@@@@@@@@@@@@@@@@@@@@@@@@@@@@@@@ XX  @@@@@@  X @@@@@@@@@@@@@@@@@@",
"@@@@@@@@@@@@@@@@@@@@@@@@@@@@@@@ XXX @@@@@@ XX @@@@@@@@@@@@@@@@@@",
"@@@@@@@@@@@@@@@@@@@@@@@@@@@@@@@ XXX      @ XX @@@@@@@@@@@@@@@@@@",
"@@@@@@@@@@@@@@@@@@@@@@@@@@@@@@@     OOOOO   X @@@@@@@@@@@@@@@@@@",
"@@@@@@@@@@@@@@@@@@@@@@@@@@@@@   OOOOOOOOOOO   @@@@@@@@@@@@@@@@@@",
"@@@@@@@@@@@@@@@@@@@@@@@@@@@@  OOOOOOOOOOOOOOO @@@@@@@@@@@@@@@@@@",
"@@@@@@@@@@@@@@@@@@@@@@@@@@@@ OOOOOOOO   OOOO   @@@@@@@@@@@@@@@@@",
"@@@@@@@@@@@@@@@@@@@@@@@@@@@  OOOOOOO +++ OO +++ @@@@@@@@@@@@@   ",
"@@@  @@@@@@@@@@@@@@@@@@@@@@ OOOOOOO +++++  +++++ @@@@@@         ",
"@@@ @@@@@@@@@@@@@@@@@@@@@@@ OOOOOOO +++ +  +++ + @@@@@  OOOO    ",
"@@@ @@@@@@@@@@@@@@@@@@@@@@@ OOOOOOO +++++  +++++ @@@   OOOOO    ",
"@@@  @@@@@@@@@@@@@@@@@@@@@@ OOOOOOOO +++ OO +++      OOOOOOO  @@",
"@@@@ @@@@@@@@@@@@@@@@@@@@@@ OOOOOOOOO   OOOO   OOOOOOOOOOOOO  @@",
"@@@@  @@@@@@@@@@@@@@@@@@@@@@ OOOOOOOOOOOOOOOOOOOOOOOOOOOOOOO  @@",
"@@@@@ @@@@@@@@@@@@@@@@@@@@@@ OOOOOOOOOOOOOOOOOOOOOOOOOOOOOOOO @@",
"@@@@@  @@@@@@@@@     @@@@@@@ OOOOOOOOOOOOOOOOOOOOOOOOOOOOOOO  @@",
"@@@@@@  @        ooo    @@@@ OOOOOOOOOO   OOOOOOOOOOOOOOOO   @@@",
"@@@@@@@   ooooooooooooo      OOOOOOOOOO @   OOOOOOOOO      @@@@@",
"@@@@@   ooooooooooooooooooo   OOOOOOOOO @@@           +@+++@@@@@",
"@@@@@ ooooo...ooooooooooooooo OOOOOOOOO  @@@+++@+++@+++@+++@@@@@",
"@@@@  oooo.....ooooooooooooooo OOOOOOOOO @@@+++@+++@++@@++@@@@@@",
"@@@@ ooooo.....ooooooooooooooo  OOOOOOOO @@@@+@@+++@++@@@+@@@@@@",
"@@@  ooooo.....oooooooooooooooo  OOOOOOO @@@@@@@@+@@@+@@@@@@@@@@",
"@@@ ooo.ooo...oooooooooooooooooo  OOOOOOO @@@@@@@@@@@@@@@@@@@@@@",
"@@  oo...ooooooooooooooooooooooo    OOOOO @@@+@@@@@@@@@@@@@@@@@@",
"@@ oooo.ooooooooooooooooooooooooo @ OOOOO  @+++@@@+@@@@@@@@@@@@@",
"@@ oooooooooooooooooooooooooooooo @@ OOOOO  +++@@++@@@@@@@@@@@@@",
"@@ oooooooooooooooooooooooooooooo @@  OOOOOO   @+++@@@@@@@@@@@@@",
"@@ ooooooooooooooooooooooooooooo  @@@ OOOOOOOO   ++@@@@@@@@@@@@@",
"@ oooooooooooooooooooooooooooooo @@@@  OOOOOOOOO   @@@@@@@@@@@@@",
"@  ooooooooooooooooooooooooooooo @@@@@  OOOOOOOOO   @@@@@@@@@@@@",
"@@ ooooooooooooooooooooooooooooo @@@@@@           @@@@@@@@@@@@@@",
"@@ oooooooooooooooooooooooooooo @@@@@@@@@@@@@@@@@@@@@@@@@@@@@@@@",
"@@@ ooooooooooooooooooooooooooo @@@@@@@@@@@@@@@@@@@@@@@@@@@@@@@@",
"@@@ ooooooooooooooooooooooooooo @@@@@@@@@@@@@@@@@@@@@@@@@@@@@@@@",
"@@@  ooooooooooooooooooooooooo  @@@@@@@@@@@@@@@@@@@@@@@@@@@@@@@@",
"@@@@ ooooooooooooooooooooooooo @@@@@@@@@@@@@@@@@@@@@@@@@@@@@@@@@",
"@@@@@ ooooooooooooooooooooooo      @@@@@@@@@@@@@@@@@@@@@@@@@@@@@",
"@@@@@@  ooooooooooooooooooo   @@@@   @@@@@@@@@@@@@@@@@@@@@@@@@@@",
"@@@@@@@                       @@@@@@  @@@@@@@@@@@@@@@@@@@@@@@@@@",
"@@@@@@ @@@ @@@@@@@@@@@@@@@@@@  @@@@@@  @@@@@@@@@@@@@@@@@@@@@@@@@",
"@@@@@@ @@@ @@@@@@@@@@@@@@@@@@@ @@@@@@@  @@@@@@@@@@@@@@@@@@@@@@@@",
"@@@@@@ @@@ @@@@@@@@@@@@@@@@@@@ @@@@@@@@ @@@@@@@@@@@@@@@@@@@@@@@@",
"@@@@@ @@@@ @@@@@@@@@@@@@@@@@@@ @@@@@@@@  @@@@@@@@@@@@@@@@@@@@@@@",
"@@@@  @@@@ @@@@@@@@@@@@@@@@@@@ @@@@@@@@@ @@@@@@@@@@@@@@@@@@@@@@@",
"@@@  @@@@  @@@@@@@@@@@@@@@@@@@ @@@@@@@@@  @@@@@@@@@@@@@@@@@@@@@@"
};
