/* XPM */
static char *_9363_699be0614d27ded2aaaef222f9f7f470d3a2d8e34e49adea9a57dbe231653a53[] = {
/* columns rows colors chars-per-pixel */
"64 64 7 1 ",
"  c black",
". c #AD3975",
"X c #A892A8",
"o c #BAA7BA",
"O c #C2B1C2",
"+ c white",
"@ c None",
/* pixels */
"@@@@@@@@@@@@@@@@@@@@@@@@@@@@@@@@@@@@@@@@@@@@@@@@@@@@@@@@@@@@@@@@",
"@@@@@@@@@@@@@@@@@@@@@@@@@@@@@@@@@@@@@@@@@@@@@@@@@@@@@@@@@@@@@@@@",
"@@@@@@@@@@@@@@@@@@@@@@@@@@@@@@@@@@@@@@@@@@@@@@@@@@@@@@@@@@@@@@@@",
"@@@@@@@@@@@@@@@@@@@@@@@@@@@@@@@@@@@@@@@@@@@@@@@@@@@@@@@@@@@@@@@@",
"@@@@@@@@@@@@@@@@@@@@@@@@@@@@@@@@@@@@@@@@@@@@@@@@@@@@@@@@@@@@@@@@",
"@@@@@@@@@@@@@@@@@@@@@@@@@@@@@@@@@@@@@@@@@@@@@@@@@@@@@@@@@@@@@@@@",
"@@@@@@@@@@@@@@@@@@@@@@@@@@@@@@@@@@@@@@@@@@@@@@@@@@@@@@@@@@@@@@@@",
"@@@@@@@@@@@@@@@@@@@@@@@@@@@@@@@@@@@@@@@@@@@@@@@@@@@@@@@@@@@@@@@@",
"@@@@@@@@@@@@@@@@@@@@@@@@@@@@@@@@@@@@@@@@@@@@@@@@@@@@@@@@@@@@@@@@",
"@@@@@@@@@@@@@@@@@@@@@@@@@@@@@@@@@@@@@@@@@@@@@@@@@@@@@@@@@@@@@@@@",
"@@@@@@@@@@@@@@@@@@@@@@@@@@@@@@@@@@@@@@@@@@@@@@@@@@@@@@@@@@@@@@@@",
"@@@@@@@@@@@@@@@@@@@@@@@@@@@@@@@@@@@@@@@@@@@@@@@@@@@@@@@@@@@@@@@@",
"@@@@@@@@@@@@@@@@@@@@@@@@@@@@@@@ @@@@@@@@@@@@@@@@@@@@@@@@@@@@@@@@",
"@@@@@@@@@@@@@@@@@ @@@@@@@@@@@@@ @@@@@@@@@@@@@@@@@@@@@@@@@@@@@@@@",
"@@@@@@@@@@@@@@@@@   @@@@@@@@@@   @@@@@@@@@@@@@@@@@@@@@@@@@@@@@@@",
"@@@@@@@@@@@@@@@@@ X @@@@@@@@@@ X @@@@@@@@@@@@@@@@@@@@@@@@@@@@@@@",
"@@@@@@@@@@@@@@@@@ X  @@@@@@@@  X @@@@@@@@@@@@@@@@@@@@@@@@@@@@@@@",
"@@@@@@@@@@@@@@@@@  X @@@@@@@@ XX @@@@@@@@@@@@@@@@@@@@@@@@@@@@@@@",
"@@@@@@@@@@@@@@@@@@ X  @@@@@@  XX @@@@@@@@@@@@@@@@@@@@@@@@@@@@@@@",
"@@@@@@@@@@@@@@@@@@ XX @@@@@@ XXX @@@@@@@@@@@@@@@@@@@@@@@@@@@@@@@",
"@@@@@@@@@@@@@@@@@@ XX @      XXX @@@@@@@@@@@@@@@@@@@@@@@@@@@@@@@",
"@@@@@@@@@@@@@@@@@@ X   OOOOO     @@@@@@@@@@@@@@@@@@@@@@@@@@@@@@@",
"@@@@@@@@@@@@@@@@@@   OOOOOOOOOOO   @@@@@@@@@@@@@@@@@@@@@@@@@@@@@",
"@@@@@@@@@@@@@@@@@@ OOOOOOOOOOOOOOO  @@@@@@@@@@@@@@@@@@@@@@@@@@@@",
"@@@@@@@@@@@@@@@@@   OOOO   OOOOOOOO @@@@@@@@@@@@@@@@@@@@@@@@@@@@",
"   @@@@@@@@@@@@@ +++ OO +++ OOOOOOO  @@@@@@@@@@@@@@@@@@@@@@@@@@@",
"         @@@@@@ +++++  +++++ OOOOOOO @@@@@@@@@@@@@@@@@@@@@@  @@@",
"    OOOO  @@@@@ + +++  + +++ OOOOOOO @@@@@@@@@@@@@@@@@@@@@@@ @@@",
"    OOOOO   @@@ +++++  +++++ OOOOOOO @@@@@@@@@@@@@@@@@@@@@@@ @@@",
"@@  OOOOOOO      +++ OO +++ OOOOOOOO @@@@@@@@@@@@@@@@@@@@@@  @@@",
"@@  OOOOOOOOOOOOO   OOOO   OOOOOOOOO @@@@@@@@@@@@@@@@@@@@@@ @@@@",
"@@  OOOOOOOOOOOOOOOOOOOOOOOOOOOOOOO @@@@@@@@@@@@@@@@@@@@@@  @@@@",
"@@ OOOOOOOOOOOOOOOOOOOOOOOOOOOOOOOO @@@@@@@@@@@@@@@@@@@@@@ @@@@@",
"@@  OOOOOOOOOOOOOOOOOOOOOOOOOOOOOOO @@@@@@@     @@@@@@@@@  @@@@@",
"@@@   OOOOOOOOOOOOOOOO   OOOOOOOOOO @@@@    ooo        @  @@@@@@",
"@@@@@      OOOOOOOOO   @ OOOOOOOOOO      ooooooooooooo   @@@@@@@",
"@@@@@+++@+           @@@ OOOOOOOOO   ooooooooooooooooooo   @@@@@",
"@@@@@+++@+++@+++@+++@@@  OOOOOOOOO ooooooooooooooo...ooooo @@@@@",
"@@@@@@++@@++@+++@+++@@@ OOOOOOOOO ooooooooooooooo.....oooo  @@@@",
"@@@@@@+@@@++@+++@@+@@@@ OOOOOOOO  ooooooooooooooo.....ooooo @@@@",
"@@@@@@@@@@+@@@+@@@@@@@@ OOOOOOO  oooooooooooooooo.....ooooo  @@@",
"@@@@@@@@@@@@@@@@@@@@@@ OOOOOOO  oooooooooooooooooo...ooo.ooo @@@",
"@@@@@@@@@@@@@@@@@@+@@@ OOOOO    ooooooooooooooooooooooo...oo  @@",
"@@@@@@@@@@@@@+@@@+++@  OOOOO @ ooooooooooooooooooooooooo.oooo @@",
"@@@@@@@@@@@@@++@@+++  OOOOO @@ oooooooooooooooooooooooooooooo @@",
"@@@@@@@@@@@@@+++@   OOOOOO  @@ oooooooooooooooooooooooooooooo @@",
"@@@@@@@@@@@@@++   OOOOOOOO @@@  ooooooooooooooooooooooooooooo @@",
"@@@@@@@@@@@@@   OOOOOOOOO  @@@@ oooooooooooooooooooooooooooooo @",
"@@@@@@@@@@@@   OOOOOOOOO  @@@@@ ooooooooooooooooooooooooooooo  @",
"@@@@@@@@@@@@@@           @@@@@@ ooooooooooooooooooooooooooooo @@",
"@@@@@@@@@@@@@@@@@@@@@@@@@@@@@@@@ oooooooooooooooooooooooooooo @@",
"@@@@@@@@@@@@@@@@@@@@@@@@@@@@@@@@ ooooooooooooooooooooooooooo @@@",
"@@@@@@@@@@@@@@@@@@@@@@@@@@@@@@@@ ooooooooooooooooooooooooooo @@@",
"@@@@@@@@@@@@@@@@@@@@@@@@@@@@@@@@  ooooooooooooooooooooooooo  @@@",
"@@@@@@@@@@@@@@@@@@@@@@@@@@@@@@@@@ ooooooooooooooooooooooooo @@@@",
"@@@@@@@@@@@@@@@@@@@@@@@@@@@@@      ooooooooooooooooooooooo @@@@@",
"@@@@@@@@@@@@@@@@@@@@@@@@@@@   @@@@   ooooooooooooooooooo  @@@@@@",
"@@@@@@@@@@@@@@@@@@@@@@@@@@  @@@@@@                       @@@@@@@",
"@@@@@@@@@@@@@@@@@@@@@@@@@  @@@@@@  @@@@@@@@@@@@@@@@@@ @@@ @@@@@@",
"@@@@@@@@@@@@@@@@@@@@@@@@  @@@@@@@ @@@@@@@@@@@@@@@@@@@ @@@ @@@@@@",
"@@@@@@@@@@@@@@@@@@@@@@@@ @@@@@@@@ @@@@@@@@@@@@@@@@@@@ @@@ @@@@@@",
"@@@@@@@@@@@@@@@@@@@@@@@  @@@@@@@@ @@@@@@@@@@@@@@@@@@@ @@@@ @@@@@",
"@@@@@@@@@@@@@@@@@@@@@@@ @@@@@@@@@ @@@@@@@@@@@@@@@@@@@ @@@@  @@@@",
"@@@@@@@@@@@@@@@@@@@@@@  @@@@@@@@@ @@@@@@@@@@@@@@@@@@@  @@@@  @@@"
};
