/* XPM */
static char *_30_92cd85cfbeadde8b9487e149833d971107c6a2bbe512eaafbad9a0bda280176d[] = {
/* columns rows colors chars-per-pixel */
"64 64 8 1 ",
"  c #0D2B45",
". c #203C56",
"X c #544E68",
"o c #8D697A",
"O c #D08159",
"+ c #FFAA5E",
"@ c #FFD4A3",
"# c #FFECD6",
/* pixels */
"++++++++@+@oX.XX  X.. .ooooooooo..  .XOOOOOOOO++++oXO@OoooooO@@+",
"##+@@@@@@@+Oo...  .ooOOOOOoOOOOOOOOOOOOOOOOOOOOOOO+@@#@@@@@#@###",
"@@@@@+@++@@+@ooo..OOOOOOOooOOOOOOOooOOOOoOOOOOOOOO@+@@@@@@@@@@@@",
"@@@@@@@@@+++@OoX..OOooooooooOOOOOOOOOOOOOOOOOOOOO+++++@+++@@@@@@",
"@@@@@@##@@#+@@o...OooooooooooOOOOOOOOOOOOOOOO++++++++++@@+@@@@@@",
"##@@@@@@@#O@+@oX..OoooooooooOOOOooooooOOOOOOOO+++@@@@@@+@@@@@@@@",
"+++++++++O+++@oX..OoooooooooOOooOOOOOoo+O+++++O+++#+++##########",
"+++++++++O++@@o...OOooooooooXoooooooooooOOOOOOOOO++++++@oo++++++",
"++++++++++++@@o...OOoooooooooooXooooooooOOOOOOOO++++++++@@o+++++",
"+++++++++++++@o...oOooooooooXXOXXooooooooOOOOOOO++++++++++++++++",
"++++O+++++O++@o...oOoooooooooooooooooooooOOOOOO+++++++++++++++++",
"++++O+++++++@@o.X.OOooooooooooooooooooooOOOOOOO+++++++++++++++++",
"++++++++++++@@o...OOooooooooooooooooooooooOooOOO++++++++++++++++",
"+++++OO+++++@@o...OOOooooooooooooooooooooooOOOOOOO++++++++++++++",
"+++++++OOOO@@OoX..OXXXXXXXoooooXXXXXXXooooOOOO++++OOOO+++OO+++O+",
"+O+OOOOOOOOO@ooX...XXXXXXoXXXXXXXXXXXXXXXXooooOOOOOOOOOOOOOOOOOO",
"oOOOOOOOOOooooo....XX..XXXX.XXXX..X.XXXXXXXXooOOOoooOoOOOOOOOOOO",
"oooooooooooooOoXXXXXXXXXXX....................XXXXXXXooooooooooo",
".oooooooooooOOoXXXXXXXXXXXX.....................XXXXXXoooooooooo",
".oooOOOoooXooooooXoooooooOXXX...XX..XXX..XXXXX.....XXXXXXooXXXXX",
".XXXXXooooXXXXooXXXXoXXXXXX..........XXX...........XXXXXXXXXXXXX",
".++++++++++++++++++++++++oX.X..XoO+++++++++++oXo++++ooXXXXXXXXo+",
"O+++++++oXX++O+O++o+++++++o. X.XO+++++O+++O+++o+++++++oXo+++++++",
"O+++OOOOOOOOOOOOOOOOO+O++++.X..O+O++OOOOOOOOOOOO++OOO+++++OO+O++",
"OOOO+OOOOOOOOOOOOOOOOOOOO+O.X..O+OOOOOOOOOOOOOOOOOOOOOOOOOOOOOOO",
"ooOOOOOOOOOOOOOOOOOOOOOOOO+. ..+OOOOOOOOOOOOOOOOOOOOOOOOOOOOOOOO",
"OOOOOOOOOOOOOOOOOOOOOOOOOO+....+OOOOOOOOOOOOOOOOOOOOOOOOOOOOOOOO",
"OOOOOOOOOOOOOOOOOOOOOOOOO++....+OOOOOOOOooOO+oOOOOOOOOOOOOOOOOOO",
"OOOOOOOOOOOOOOOOOOOOOOOOO++....++OOOOOOO+XoOO+OOOOOOOOOOOOOOOOOO",
"OOOOOOOOOOOOOOOooOOOOOOOOO+. ..O+OOOOOOOo+OOOOOOOOOOOOOOOOOOOOOO",
"OOOOOOOOOOOOOOOOOOOOOOOOo++.X..o+OOOOOOOOOOOOOOOOOOOOOOOOOOOOOOO",
"OOOOOOOOOOOOOOOOOOOOOOOOOO+X...O+OOOOOOOOOOOOOOOOOOOOOOOOOOOOOOO",
"OOOOOOOOOOOOOOOOOOOOOOOOOO+X...OOOOOOOOOOOOOOOOOOOOOOOOOOOOOOOOO",
"OOOOOOOOOOOOOOOOOOOOOOOOO++X...++OOOOOOOOOOOOOOOOOOOOOOOOOOOOOOO",
"OOOOOOOOOOOOOOOOOOOOOooOO++X  .++OOoOOOOOOOOOOOOOOOOOOOOOOOOOOOO",
"OOOooOoooOOOOOOOOOOooooooo+.  .+ooooOOOOOOOOOOOooooOOOOOOooooOOO",
"OoooooooooOoooooooooooooooX.. .oooooooooooooooOOOooooOoooooooooo",
"oooooXoooooooooooooooooooXXX. .XXXXoooooXXoooooooooooooooXXXXXXX",
"XXXXXXXXXXXXXX.XXXXXXXXXXXXX  ....XXXXXXX.............XXXXXXXXXX",
".XXXXXXXXXXXXXXX.XXXXXXXXoXX.                       ..XXXXXXXoXX",
".XXXXooXXXXXXXXXXXX.XoooXXX...           ...X  ....  XXXooXXoXXX",
".......X.X.......... .....                  .X   ...............",
"..XoOOOOOOOOoOXOoXXoOOXXOoooo. .ooooooXXX..  .   XooXX.X...XoOOO",
"OOOOOOOOOXOOOOoOOOOOOOOOOooooooooXooooooooo. . ..OOOOOOOOOOOOOOO",
"OOOOoooXoooooooXXooOOOoooooooXoooXXXXoooooo. . ..OOOOOOooOoOOOoO",
"OoooooooooooooooooooooooXXXXXXXXXXXXXXXXXXoX . .XOoooooooooooooo",
"ooooooooooooooooooooooooXXXXXXXXXXXXXXXXXXoX . .Xooooooooooooooo",
"ooooooooooooooooooo.XXXXXXXXXXXXXXXXXXXXXXoo . .oOoooooooooooooo",
"oooooooooooooooooooXXXXXXXXXXXXXXXXXXXXXXXXo  ..oOoooooooooooooo",
"oooooooooooooooooooXXXXXXXXXXXXXXXXo..XXXXoo   .OOoooooXoooooooo",
"oooooooooooooooXoooXoXXXXXXXXXXXXXXXXXXXXXXo   .OooooooXoooooooo",
"oooooooooooooooXoooooXXXXXXXXXXXXXXXXXXXXXXX . .Oooooooooooooooo",
"ooooooooooooooooooooXXXXXXXXXXXXXXXXXXXXXXXo . .OOoooooooooooooo",
"ooooooooooooooooooXXXXXXXXXXXXXXXXXXXXXXXXoo . .oOoXoo.ooooooooo",
"oooooooooXooooXoXX.XXXXXXXXXXXXXXXXXXXXXXXoo . .OOooooXooooooooo",
"ooooooooXooooXXoXXXXXXXXXXXXXXXXXXXXXXXXXXoo .  oOoooXoooooooooo",
"oooooooooooooXo.XXXXXXXXXXXXXXXXXXXXXXX.XXoo    oOoooooooooooooo",
"XoooXXXoooooXXX..XXX.XXX...X......X.......oo .  o.XoX.ooXXXoXXXo",
"X.XXXXXXXXXXX......XX. .....X..............o    .... .XXXXXX....",
"...   ..........   ..     ..... ..........        ........ .....",
".                                            .                  ",
"                                     .     ...       .          ",
"  ..  ...... .   .     X.. .    ... .     ...X      .     ....  ",
"              ..            ...........X..oXXXX.. ..X.    ....  "
};
