/* XPM */
static char *_7781_4723c3b2e58a71df84a042fde8f1f5b50d245a72a9b76c9dec9c36265d6c4593[] = {
/* columns rows colors chars-per-pixel */
"64 64 226 2 ",
"   c black",
".  c #1A0B08",
"X  c #30140F",
"o  c #351817",
"O  c #2D1717",
"+  c #3C261A",
"@  c #381E21",
"#  c #3B2426",
"$  c #401C14",
"%  c #501B0D",
"&  c #4E2218",
"*  c #462A18",
"=  c #572916",
"-  c #56341C",
";  c #4F200F",
":  c #63341C",
">  c #6C3418",
",  c #75351A",
"<  c #682B12",
"1  c #452A25",
"2  c #472928",
"3  c #4D3328",
"4  c #593926",
"5  c #4A2F36",
"6  c #4D3639",
"7  c #533334",
"8  c #573A39",
"9  c #532B25",
"0  c #682B27",
"q  c #6A3524",
"w  c #663925",
"e  c #753A28",
"r  c #643730",
"t  c #733E35",
"y  c #5B422C",
"u  c #564522",
"i  c #5A4338",
"p  c #67422A",
"a  c #774626",
"s  c #654837",
"d  c #774835",
"f  c #76553A",
"g  c #6D513D",
"h  c #563D42",
"j  c #7A3D46",
"k  c #5D4647",
"l  c #614D41",
"z  c #7A4A44",
"x  c #6C5547",
"c  c #795A45",
"v  c #6A5459",
"b  c #715654",
"n  c #664F57",
"m  c #6E5A61",
"M  c #796667",
"N  c #8D382D",
"B  c #88441E",
"V  c #8C4321",
"C  c #8D4B26",
"Z  c #824C2A",
"A  c #864727",
"S  c #954B26",
"D  c #954B2B",
"F  c #9A4726",
"G  c #8E522A",
"H  c #875129",
"J  c #94522C",
"K  c #98572C",
"L  c #884737",
"P  c #964A39",
"I  c #84553A",
"U  c #9C5B32",
"Y  c #965737",
"T  c #A85B2D",
"R  c #A34D31",
"E  c #A45D34",
"W  c #AB5A39",
"Q  c #B75737",
"!  c #B34E38",
"~  c #9A6239",
"^  c #AA642F",
"/  c #B46328",
"(  c #AC6433",
")  c #A5623B",
"_  c #AD653A",
"`  c #AE693C",
"'  c #A86536",
"]  c #B46A35",
"[  c #B56B3B",
"{  c #B76737",
"}  c #B77238",
"|  c #BC713C",
" . c #A74E1E",
".. c #D1512E",
"X. c #C95638",
"o. c #D35D37",
"O. c #C36C3B",
"+. c #C76B36",
"@. c #D96B3B",
"#. c #CC733B",
"$. c #C7763A",
"%. c #D4753B",
"&. c #DA753E",
"*. c #D37C3D",
"=. c #DA7C3B",
"-. c #D17236",
";. c #E57E3F",
":. c #985746",
">. c #915155",
",. c #8B514A",
"<. c #AA5947",
"1. c #B7584A",
"2. c #B55E54",
"3. c #946949",
"4. c #916E5C",
"5. c #886D57",
"6. c #AC6B42",
"7. c #A86848",
"8. c #BB6B45",
"9. c #B76746",
"0. c #B4724E",
"q. c #B97245",
"w. c #BB6B54",
"e. c #B26853",
"r. c #A97355",
"t. c #BB7551",
"y. c #B67757",
"u. c #A96A51",
"i. c #826C62",
"p. c #9A6567",
"a. c #897477",
"s. c #866D72",
"d. c #AF736E",
"f. c #C55F57",
"g. c #C86947",
"h. c #D5684C",
"j. c #C47444",
"k. c #C77E44",
"l. c #CB7F49",
"z. c #C97748",
"x. c #DB7344",
"c. c #D17E41",
"v. c #D67847",
"b. c #C76A57",
"n. c #D76B57",
"m. c #C17650",
"M. c #CA7957",
"N. c #DA795A",
"B. c #D77656",
"V. c #E47443",
"C. c #E57945",
"Z. c #EC7F45",
"A. c #EA7746",
"S. c #E46E53",
"D. c #E57C55",
"F. c #E97B58",
"G. c #F27755",
"H. c #EB7547",
"J. c #D47060",
"K. c #E97C62",
"L. c #D1813D",
"P. c #E0803D",
"I. c #AD8C6E",
"U. c #CD8142",
"Y. c #CF824E",
"T. c #D48443",
"R. c #DC8245",
"E. c #D4824A",
"W. c #DB854A",
"Q. c #DA894F",
"!. c #D7894C",
"~. c #DC835C",
"^. c #DA8657",
"/. c #C3805D",
"(. c #E38442",
"). c #EA834C",
"_. c #E2884C",
"`. c #EA8748",
"'. c #F38B4B",
"]. c #F18649",
"[. c #F2914E",
"{. c #EB845A",
"}. c #E88857",
"|. c #F48454",
" X c #F68C54",
".X c #F58B5C",
"XX c #F2855A",
"oX c #E69156",
"OX c #F59254",
"+X c #F69B56",
"@X c #F6925D",
"#X c #F69B5E",
"$X c #F6A159",
"%X c #C79875",
"&X c #D0906A",
"*X c #F68D60",
"=X c #F69462",
"-X c #F69B62",
";X c #F79D6C",
":X c #E79266",
">X c #F5A264",
",X c #F6A46D",
"<X c #F7AB6B",
"1X c #E5A47A",
"2X c #F4A874",
"3X c #F6B07D",
"4X c #4064AD",
"5X c #887D80",
"6X c #9A8688",
"7X c #AE9488",
"8X c #A89697",
"9X c #B38B89",
"0X c #B9AAA6",
"qX c #BBA596",
"wX c #D68880",
"eX c #D7B597",
"rX c #F6B688",
"tX c #EBAB87",
"yX c #D6BBAB",
"uX c #CFB0AE",
"iX c #EFB7A8",
"pX c #C9B8C1",
"aX c #E9D1D0",
"sX c #F5DFE2",
"dX c #D4C9C1",
"fX c None",
/* pixels */
"fXfXfXfXfXfXfXfXfXfXfXfXfXfXfXfXfXfXfXfXfXfXfXfXfXfXfX5Xh 5 5 m 5X5Xv v pXfXfXfXfXfXfXfXfXfXfXfXfXfXfXfXfXfXfXfXfXfXfXfXfXfXfXfX",
"fXfXfXfXfXfXfXfXfXfXfXfXfXfXfXfXfXfXfXfXfXfXfXfXfXpX6 5 5X8XM 6X8X8XM M 6X8X6XfXfXfXfXfXfXfXfXfXfXfXfXfXfXfXfXfXfXfXfXfXfXfXfXfX",
"fXfXfXfXfXfXfXfXfXfXfXfXfXfXfXfXfXfXfXfXfXfXfXfXsX# v h O m k k h h 6 k i.qXi.b dXfXfXfXfXfXfXfXfXfXfXfXfXfXfXfXfXfXfXfXfXfXfXfX",
"fXfXfXfXfXfXfXfXfXfXfXfXfXfXfXfXfXfXfXfXfXfXfXfX@ 9 h h # O 5 6 h 7 1 * i y 5.x x 0XfXfXfXfXfXfXfXfXfXfXfXfXfXfXfXfXfXfXfXfXfXfX",
"fXfXfXfXfXfXfXfXfXfXfXfXfXfXfXfXfXfXfXfXfXfXfXn 5 h 7 2 2 2 i 3 y 3 y 4 y p g u + l fXfXfXfXfXfXfXfXfXfXfXfXfXfXfXfXfXfXfXfXfXfX",
"fXfXfXfXfXfXfXfXfXfXfXfXfXfXfXfXfXfXfXfXfXfXfX5 r h 7 7 2 8 i p f x c c f c x i i m 0XfXfXfXfXfXfXfXfXfXfXfXfXfXfXfXfXfXfXfXfXfX",
"fXfXfXfXfXfXfXfXfXfXfXfXfXfXfXfXfXfXfXfXfXfXn z N z t t 8 s d I I I Y r.r.u.I.I.yXI.b aXfXfXfXfXfXfXfXfXfXfXfXfXfXfXfXfXfXfXfXfX",
"fXfXfXfXfXfXfXfXfXfXfXfXfXfXfXfXfXfXfXfXfXa.d 7.b.w.M.e.L a 7.3.6.} 6.k.&X&X&XeXeXi.s 1 fXfXfXfXfXfXfXfXfXfXfXfXfXfXfXfXfXfXfXfX",
"fXfXfXfXfXfXfXfXfXfXfXfXfXfXfXfXfXfXfXfXfX7 e.b.B.N.D.N.9.) B.}.oXoX:X;XoX1XrXtXI.5.u X a.fXfXfXfXfXfXfXfXfXfXfXfXfXfXfXfXfXfXfX",
"fXfXfXfXfXfXfXfXfXfXfXfXfXfXfXfXfXfXfXfXfX,.&XM.B.D.D.F.D.}.XX.X.X=X,XrXrX2X3X1X%X5.u + 2 fXfXfXfXfXfXfXfXfXfXfXfXfXfXfXfXfXfXfX",
"fXfXfXfXfXfXfXfXfXfXfXfXfXfXfXfXfXfXfXfXfXp.M.B.N.D.F.F.F.'.G. X X;X3XrXrX3X3X1XI.c y # 1 fXfXfXfXfXfXfXfXfXfXfXfXfXfXfXfXfXfXfX",
"fXfXfXfXfXfXfXfXfXfXfXfXfXfXfXfXfXfXfXfX9Xd.B.b.N.{.D.|.XX|. X X@X,X,X2X2X<X:X1X&X3.- 3 o 8XfXfXfXfXfXfXfXfXfXfXfXfXfXfXfXfXfXfX",
"fXfXfXfXfXfXfXfXfXfXfXfXfXfXfXfXfXfXfXfXb w.B.B.D.|.XX.X.X X@X#X-X#X-X-X#X-XoXM./.3.f + 3 8 fXfXfXfXfXfXfXfXfXfXfXfXfXfXfXfXfXfX",
"fXfXfXfXfXfXfXfXfXfXfXfXfXfXfXfXfXfXfXfX,.b.B.N.D..X.X*X*X*X#X#X-X$X#XOXOXoXv.j./.~ p 3 # 5 fXfXfXfXfXfXfXfXfXfXfXfXfXfXfXfXfXfX",
"fXfXfXfXfXfXfXfXfXfXfXfXfXfXfXfXfXfXfXfX>.f.N.N.XX*X*X=X@X@X-X<X>X#X+XOXOX`.c.j.' ~ f - 1 k fXfXfXfXfXfXfXfXfXfXfXfXfXfXfXfXfXfX",
"fXfXfXfXfXfXfXfXfXfXfXfXfXfXfXfXfXfXfXfX>.b.n.F.|..X.X*X@X=X>X<X$X+X[.'.`.(.z.{ K f u + + M fXfXfXfXfXfXfXfXfXfXfXfXfXfXfXfXfXfX",
"fXfXfXfXfXfXfXfXfXfXfXfXfXfXfXfXfXfXfXfX>.b.B.K.G..X=X@X=X=X>X<X$X+X'.'.(.&.#.( K d p + o 5XfXfXfXfXfXfXfXfXfXfXfXfXfXfXfXfXfXfX",
"fXfXfXfXfXfXfXfXfXfXfXfXfXfXfXfXfXfXfXfXp.b.N.{.*X*X=X=X=X=X>X<X$X[.'.'.`.%.{ } ~ a 4 * o a.fXfXfXfXfXfXfXfXfXfXfXfXfXfXfXfXfXfX",
"fXfXfXfXfXfXfXfXfXfXfXfXfXfXfXfXfXfXfXfX5X<.J.~.{.=X=X-X=X=X-X>X+X[.'.'.P.=.{ ( H d = * 9 b fXfXfXfXfXfXfXfXfXfXfXfXfXfXfXfXfXfX",
"fXfXfXfXfXfXfXfXfXfXfXfXfXfXfXfXfXfXfXfXp.N L w.:X=X-X-X@X=X-X>X+X`.[.`.P.&.+.T G : 9 & 9 fXfXfXfXfXfXfXfXfXfXfXfXfXfXfXfXfXfXfX",
"fXfXfXfXfXfXfXfXfXfXfXfXfXfXfXfXfXfXfXfXj t 0 q Y ^.=X=X).}.oX,XQ.*.*.R.P.*.+.^ H p u p t fXfXfXfXfXfXfXfXfXfXfXfXfXfXfXfXfXfXfX",
"fXfXfXfXfXfXfXfXfXfXfXfXfXfXfXfXfXfXfXsX,.N 7.N J t.{.*XD.g.:.Y H ^ T #.-.-.+.^ a - p s r fXfXfXfXfXfXfXfXfXfXfXfXfXfXfXfXfXfXfX",
"fXfXfXfXfXfXfXfXfXfXfXfXfXfXfXfXfXfXfXiXN e.M.~.g.g.{.XX{.g._ D U ' | { +.+.-.] a w y c z fXfXfXfXfXfXfXfXfXfXfXfXfXfXfXfXfXfXfX",
"fXfXfXfXfXfXfXfXfXfXfXfXfXfXfXfXfXfXfX5X:.L :.w.g.Q B.).}.v.g.z.Q.k.O.+.+.+.-.] a 4 - ; t fXfXfXfXfXfXfXfXfXfXfXfXfXfXfXfXfXfXfX",
"fXfXfXfXfXfXfXfXfXfXfXfXfXfXfXfXfXfXfXd.<.P % A 9.g.g.{.).&.+.O.^.!.+./ #.#.%.] a p - = :.uXfXfXfXfXfXfXfXfXfXfXfXfXfXfXfXfXfXfX",
"fXfXfXfXfXfXfXfXfXfXfXfXfXfXfXfXfXfXfXy.b.1.1.g.N.g.g.*XC.@.x.W C 8.] / =.*.-.{ Z - q Z N K.fXfXfXfXfXfXfXfXfXfXfXfXfXfXfXfXfXfX",
"fXfXfXfXfXfXfXfXfXfXfXfXfXfXfXfXfXfXfXy.b.! ! h.n.g.S.XXV.V.x.Q T  .+.%.(.%.-.+.A 4 : L f.tXfXfXfXfXfXfXfXfXfXfXfXfXfXfXfXfXfXfX",
"fXfXfXfXfXfXfXfXfXfXfXfXfXfXfXfXfXfXfXd.h.h.S.S.h.g.D.Z.A.A.C.@.{.}.%.v.(.%.&.+.H w q D ..iXfXfXfXfXfXfXfXfXfXfXfXfXfXfXfXfXfXfX",
"fXfXfXfXfXfXfXfXfXfXfXfXfXfXfXfXfXfXfXb.h.S.S.S.g.g.h.C.Z.V.@.*X@.Z.Z.;.(.%.-.{ a - , R g.iXfXfXfXfXfXfXfXfXfXfXfXfXfXfXfXfXfXfX",
"fXfXfXfXfXfXfXfXfXfXfXfXfXfXfXfXfXfXfX2.n.S.G.S.g.g.v.C.Z.).A.G.|. X'.].Z.*.-.] a w A R o.iXfXfXfXfXfXfXfXfXfXfXfXfXfXfXfXfXfXfX",
"fXfXfXfXfXfXfXfXfXfXfXfXfXfXfXfXfXfXfXf.J.G.G.g.9.n.*XC.@.&.x.=X@X#X X].;.T.+.] p w , ! o.aXfXfXfXfXfXfXfXfXfXfXfXfXfXfXfXfXfXfX",
"fXfXfXfXfXfXfXfXfXfXfXfXfXfXfXfXfXfXfXn.J.G.h.w.2.K.{.S.A.V.-.(.>X#X X`.P.P.+.K : - Y X.G.fXfXfXfXfXfXfXfXfXfXfXfXfXfXfXfXfXfXfX",
"fXfXfXfXfXfXfXfXfXfXfXfXfXfXfXfXfXfXfXf.b.n.7.e 0 w.h.z.~.B.l.v. XOX].Z.=.%.O.J : = U o.n.fXfXfXfXfXfXfXfXfXfXfXfXfXfXfXfXfXfXfX",
"fXfXfXfXfXfXfXfXfXfXfXfXfXfXfXfXfXfXfX2.9.1.r 1 o % a : : < Y 6. X XZ.;.P.%.| ^ B < W @.fXfXfXfXfXfXfXfXfXfXfXfXfXfXfXfXfXfXfXfX",
"fXfXfXfXfXfXfXfXfXfXfXfXfXfXfXfXfXfXfXd.1.L 7 2 + 1 I 3 + - p a x.'.(.;.=.-.{ ( T S g.x.fXfXfXfXfXfXfXfXfXfXfXfXfXfXfXfXfXfXfXfX",
"fXfXfXfXfXfXfXfXfXfXfXfXfXfXfXfXfXfXfXd.z.e 2 2 * = G = * * 4 u U R.=.=.c.$.{ ( ^ T N.x.fXfXfXfXfXfXfXfXfXfXfXfXfXfXfXfXfXfXfXfX",
"fXfXfXfXfXfXfXfXfXfXfXfXfXfXfXfXfXfXfX7X9.e w 0 q L 1.P , , A q a } L.L.=.$.] ( ^ ( ~ L fXfXfXfXfXfXfXfXfXfXfXfXfXfXfXfXfXfXfXfX",
"fXfXfXfXfXfXfXfXfXfXfXfXfXfXfXfXfXfXfX7X0.7.Y = e = % 0 0 :.R :.- ^ L.T.L.} _ _ _ U fXfXfXfXfXfXfXfXfXfXfXfXfXfXfXfXfXfXfXfXfXfX",
"fXfXfXfXfXfXfXfXfXfXfXfXfXfXfXfXfXfXfXfXy.~.9.& %X> & & & ; % % H / T.T.$.] ] _ { Y fXfXfXfXfXfXfXfXfXfXfXfXfXfXfXfXfXfXfXfXfXfX",
"fXfXfXfXfXfXfXfXfXfXfXfXfXfXfXfXfXfXfX7X0.M.m.& %X& & & & & & & & !.U.U.} ` { [ 6.: fXfXfXfXfXfXfXfXfXfXfXfXfXfXfXfXfXfXfXfXfXfX",
"fXfXfXfXfXfXfXfXfXfXfXfXfXfXfXfXfXfXfX7Xt.m.m.& & $ $ $ $ $ & & & T.T.U.^ ] } } ~ fXfXfXfXfXfXfXfXfXfXfXfXfXfXfXfXfXfXfXfXfXfXfX",
"fXfXfXfXfXfXfXfXfXfXfXfXfXfXfXfXfXfXfXfXy.~.m.& & $ $ $ $ $ $ & & / T.T.$.` ` _ _ K fXfXfXfXfXfXfXfXfXfXfXfXfXfXfXfXfXfXfXfXfXfX",
"fXfXfXfXfXfXfXfXfXfXfXfXfXfX            4.m.m.& & $ X X X $ $ & & !.U.U.} ` ] [ 6.: fXfXfXfXfXfXfXfXfXfXfXfXfXfXfXfXfXfXfXfXfXfX",
"fXfXfXfXfXfXfXfXfXfX          ..........4.m.m.& $ $ X . X $ $ & & !.U.U.} ] ] [ 6.:       fXfXfXfXfXfXfXfXfXfXfXfXfXfXfXfXfXfXfX",
"fXfXfXfXfXfXfXfXfX    ................    t.m.& $ $ X X X $ $ & W.T.T.U.^ ` ] [ ' ......      fXfXfXfXfXfXfXfXfXfXfXfXfXfXfXfXfX",
"fXfXfXfXfXfXfXfX    ......              ..u.m.& & $ $ $ $ $ $ & T.U.L.q.' } q.` A ..........      fXfXfXfXfXfXfXfXfXfXfXfXfXfXfX",
"fXfXfXfXfXfXfX    ....      fXfXfXfX  ....u./.& & $ $ $ $ $ & & T.c.*.$.' [ } ` Z         ......    fXfXfXfXfXfXfXfXfXfXfXfXfXfX",
"fXfXfXfXfXP.P.P.    P.  fXfXfXfXfX    ....r.t.& & $ $ $ yX$ & & T.c.U.} [ q.9.) >   fXfX      ....    fXfXfXfXfXfXfXfXfXfXfXfXfX",
"fXfXfXfXfXP.fXP.fXP.P.P.fXfXfXfXfX  ......3.6.m.* $ $ $ yX& & & !.$.$.] _ _ W C ..  fXfXfXfX    ..    P.P.P.fXfXfXfXfXfXfXfXfXfX",
"fXfXfXfXfXP.fXP.fXP.P.P.P.fXfXfXfX  ......3.6.m.& & & & yX& & c.!.+.*.] _ <.E D ..  fXfXfXfXfX  (.  P.P.fXP.P.fXfXfXfXfXfXfXfXfX",
"fXfXfXfXfXfXfXP.P.fXP.fXP.fXfXfXfX  ........7.t.h.& & & yX_.R.*.T.T.$._ ' W F , ..  fXfXfXfXfXfXfXP.fXP.fXfXP.fXfXfXfXfXfXfXfXfX",
"fXfXfXfXfXfXfXfXfXfXfXfXfXfXfXfXfX  ........~ t.8.l.R.oX_.`.W.T.k.k._ E U D V D ..  fXfXfXfXfXfXfXP.fXfXP.fXfXfXfXfXfXfXfXfXfXfX",
"fXfXfXfXfXfXfXfXfXfXfXfXfXfXfXfXfX    ......~ t.8.l.E.oX`._.!.U.c.k.( T E D V D     fXfXfXfXfXfXfXP.P.fXfXfXfXfXfXfXfXfXfXfXfXfX",
"fXfXfXfXfXfXfXfXfXfXfXfXfXfXfXfXfXfX  ......Y w.8.E._.oXR._.!.$.j.q.E E S V S ..  fXfXfXfXfXfXfXfXfXfXfXfXfXfXfXfXfXfXfXfXfXfXfX",
"fXfXfXfXfXfXfXfXfXfXfXfXfXfXfXfXfXfX    ....Y y.8.E._.oXW._.!.k.$.q.E U S V S     fXfXfXfXfXfXfXfXfXfXfXfXfXfXfXfXfXfXfXfXfXfXfX",
"fXfXfXfXfXfXfXfXfXfXfXfX                    e u.q.W.^.oXQ.!.U.} q.) K K B F           fXfXfXfXfXfXfXfXfXfXfXfXfXfXfXfXfXfXfXfXfX",
"fXfXfXfXfXfXfXfXfXfXfX    4X4X4X4X4X4X4X4X    I 0.z.l.Y.l.k.( q._ K G C ..  4X4X4X4X      fXfXfXfXfXfXfXfXfXfXfXfXfXfXfXfXfXfXfX",
"fXfXfXfXfXfXfXfXfXfX    4X4X4X4X          4X4XI 0.z.l.Y.k.k.( [ _ K J C           4X4X4X      fXfXfXfXfXfXfXfXfXfXfXfXfXfXfXfXfX",
"fXfXfXfXfXfXfXfXfX    4X4X        fXfXfXfX    e Y U 6.6.q.K T j.U J G     fXfXfX        4X4X  fXfXfXfXfXfXfXfXfXfXfXfXfXfXfXfXfX",
"fXfXfXfXfXfXfXfXfX  4X4X    fXfXfXfXfXfXfXfXfXfXL a Z C S 9.m.{ G fXfXfXfXfXfXfXfXfXfX    4X    fXfXfXfXfXfXfXfXfXfXfXfXfXfXfXfX",
"fXfXfXfXfXfXfXfXfX  4X    fXfXfXfXfXfXfXfXfXfXfXI a A C S 9.m._ G fXfXfXfXfXfXfXfXfXfXfX  4X4X  fXfXfXfXfXfXfXfXfXfXfXfXfXfXfXfX",
"fXfXfXfXfXfXfX          fXfXfXfXfXfXfXfXfXfXfXfXfX:.) 9.8.O._ K fXfXfXfXfXfXfXfXfXfXfXfX              fXfXfXfXfXfXfXfXfXfXfXfXfX",
"fXfXfXfXfX              fXfXfXfXfXfXfXfXfXfXfXfXfXfXJ Y Y J fXfXfXfXfXfXfXfXfXfXfXfXfXfX                fXfXfXfXfXfXfXfXfXfXfXfX",
"fXfXfXfXfX              fXfXfXfXfXfXfXfXfXfXfXfXfXfXfXfXfXfXfXfXfXfXfXfXfXfXfXfXfXfXfXfX                fXfXfXfXfXfXfXfXfXfXfXfX"
};
