/* XPM */
static char *_877_a92cdeb39a57f43284e5ccd516d8066a4bb3d52dc2748a2df21abcc043956457[] = {
/* columns rows colors chars-per-pixel */
"64 64 221 2 ",
"   c black",
".  c #351817",
"X  c #2D1717",
"o  c #3C261A",
"O  c #381E21",
"+  c #3B2426",
"@  c #501B0E",
"#  c #472919",
"$  c #572916",
"%  c #56341C",
"&  c #4F200F",
"*  c #64341C",
"=  c #6C3418",
"-  c #75351A",
";  c #682B12",
":  c #452A25",
">  c #472928",
",  c #4D3328",
"<  c #5D3422",
"1  c #583A27",
"2  c #4A2F36",
"3  c #4D3639",
"4  c #533334",
"5  c #573A39",
"6  c #532B25",
"7  c #682B27",
"8  c #6A3524",
"9  c #663925",
"0  c #753A28",
"q  c #643730",
"w  c #733E35",
"e  c #5B422C",
"r  c #564522",
"t  c #5A4338",
"y  c #67422A",
"u  c #774626",
"i  c #654837",
"p  c #774835",
"a  c #76553A",
"s  c #6D513D",
"d  c #563D42",
"f  c #7A3D46",
"g  c #5D4647",
"h  c #614D41",
"j  c #7A4A44",
"k  c #6C5547",
"l  c #795A45",
"z  c #6A5459",
"x  c #715654",
"c  c #664F57",
"v  c #6E5A61",
"b  c #796667",
"n  c #853B32",
"m  c #9C3324",
"M  c #88441E",
"N  c #A74E1E",
"B  c #834D2A",
"V  c #884625",
"C  c #944B2B",
"Z  c #964A26",
"A  c #89522A",
"S  c #94522C",
"D  c #98572C",
"F  c #894737",
"G  c #964A39",
"H  c #85563A",
"J  c #9C5C32",
"K  c #965838",
"L  c #A85B2D",
"P  c #A34D31",
"I  c #A45D34",
"U  c #AA5938",
"Y  c #B75737",
"T  c #B34E38",
"R  c #99623A",
"E  c #AA642E",
"W  c #B56328",
"Q  c #AC6333",
"!  c #A5623B",
"~  c #AD643B",
"^  c #AE693C",
"/  c #A76436",
"(  c #B46A35",
")  c #B56B3C",
"_  c #B86737",
"`  c #BA713A",
"'  c #D1512E",
"]  c #C95638",
"[  c #D35D37",
"{  c #C36C3B",
"}  c #C76B36",
"|  c #D96B3B",
" . c #C5753B",
".. c #CC733B",
"X. c #C87538",
"o. c #D4753B",
"O. c #DA753E",
"+. c #D37C3D",
"@. c #DA7C3B",
"#. c #D17236",
"$. c #E57E3F",
"%. c #985746",
"&. c #915155",
"*. c #8B514A",
"=. c #AA5947",
"-. c #B85B48",
";. c #B55E54",
":. c #8C6C54",
">. c #AC6A43",
",. c #A86847",
"<. c #BB6B45",
"1. c #B86746",
"2. c #B87248",
"3. c #A96A51",
"4. c #BB6B54",
"5. c #B26853",
"6. c #A97355",
"7. c #BB7351",
"8. c #B77758",
"9. c #826C62",
"0. c #9A6567",
"q. c #866D72",
"w. c #897477",
"e. c #AF736E",
"r. c #C55F57",
"t. c #C46B45",
"y. c #CB6B45",
"u. c #CB6649",
"i. c #CC6C4D",
"p. c #C56647",
"a. c #D5684C",
"s. c #C97A44",
"d. c #C3744C",
"f. c #C97647",
"g. c #DB7344",
"h. c #D37E41",
"j. c #D77847",
"k. c #C76A57",
"l. c #D76B57",
"z. c #C87956",
"x. c #D67355",
"c. c #DB7554",
"v. c #D47459",
"b. c #DA7A5A",
"n. c #D87B57",
"m. c #E47443",
"M. c #E57945",
"N. c #EC7F45",
"B. c #EA7746",
"V. c #E46E53",
"C. c #E47C54",
"Z. c #E77D5A",
"A. c #EA7957",
"S. c #F27755",
"D. c #EB7547",
"F. c #DA7662",
"G. c #CE6E60",
"H. c #E97C62",
"J. c #D1813D",
"K. c #E0803D",
"L. c #AD8C6E",
"P. c #CD8143",
"I. c #CF824E",
"U. c #D48443",
"Y. c #DC8245",
"T. c #D48249",
"R. c #DB834A",
"E. c #D9894E",
"W. c #DC835C",
"Q. c #D98655",
"!. c #C3805D",
"~. c #E38343",
"^. c #EA834C",
"/. c #E2884C",
"(. c #E98749",
"). c #F38B4B",
"_. c #F18649",
"`. c #F2914E",
"'. c #EB845A",
"]. c #E78758",
"[. c #F48454",
"{. c #F68C54",
"}. c #F58B5C",
"|. c #F2855A",
" X c #E69157",
".X c #F59254",
"XX c #F69B56",
"oX c #F6925D",
"OX c #F69B5E",
"+X c #F6A159",
"@X c #CD936D",
"#X c #F58D61",
"$X c #EA9769",
"%X c #F69462",
"&X c #F69B62",
"*X c #F79D6C",
"=X c #E68A65",
"-X c #F5A264",
";X c #F6A46D",
":X c #F7AB6B",
">X c #E5A47A",
",X c #F4A874",
"<X c #F6B07D",
"1X c #4064AD",
"2X c #887D80",
"3X c #9A8688",
"4X c #A89697",
"5X c #B28D89",
"6X c #BBA596",
"7X c #B9AAA6",
"8X c #D68880",
"9X c #D7B597",
"0X c #F6B688",
"qX c #EBAB87",
"wX c #CFB0AE",
"eX c #EFB7A8",
"rX c #C9B8C1",
"tX c #D4C9C1",
"yX c #E9D1D0",
"uX c #F5DFE2",
"iX c None",
/* pixels */
"iXiXiXiXiXiXiXiXiXiXiXiXiXiXiXiXiXiXiXiXiXiXiXiXiXiXiX2Xd 2 + c 2X2Xz z wXiXiXiXiXiXiXiXiXiXiXiXiXiXiXiXiXiXiXiXiXiXiXiXiXiXiXiX",
"iXiXiXiXiXiXiXiXiXiXiXiXiXiXiXiXiXiXiXiXiXiXiXiXiXrX3 2 2X4X2X3X4X4Xb q.3X4X4XiXiXiXiXiXiXiXiXiXiXiXiXiXiXiXiXiXiXiXiXiXiXiXiXiX",
"iXiXiXiXiXiXiXiXiXiXiXiXiXiXiXiXiXiXiXiXiXiXiXiXuX+ z d X z d g d d 3 t b 6Xb k tXiXiXiXiXiXiXiXiXiXiXiXiXiXiXiXiXiXiXiXiXiXiXiX",
"iXiXiXiXiXiXiXiXiXiXiXiXiXiXiXiXiXiXiXiXiXiXiXiXO 6 d d O O 2 3 d 4 : : e y 9.k k 7XiXiXiXiXiXiXiXiXiXiXiXiXiXiXiXiXiXiXiXiXiXiX",
"iXiXiXiXiXiXiXiXiXiXiXiXiXiXiXiXiXiXiXiXiXiXiXc d d 5 > > + 3 1 e , e e r i a 1 o h iXiXiXiXiXiXiXiXiXiXiXiXiXiXiXiXiXiXiXiXiXiX",
"iXiXiXiXiXiXiXiXiXiXiXiXiXiXiXiXiXiXiXiXiXiXiX3 4 5 4 2 > 5 i t a s l l a l k r i v 7XiXiXiXiXiXiXiXiXiXiXiXiXiXiXiXiXiXiXiXiXiX",
"iXiXiXiXiXiXiXiXiXiXiXiXiXiXiXiXiXiXiXiXiXiXc p n F w p q i a a R a K 6.6.3.L.L.wXL.x yXiXiXiXiXiXiXiXiXiXiXiXiXiXiXiXiXiXiXiXiX",
"iXiXiXiXiXiXiXiXiXiXiXiXiXiXiXiXiXiXiXiXiXw.j 3.k.4.k.5.F u ,.,.>.^ >.f.@X@X@X9X9X9.i : iXiXiXiXiXiXiXiXiXiXiXiXiXiXiXiXiXiXiXiX",
"iXiXiXiXiXiXiXiXiXiXiXiXiXiXiXiXiXiXiXiXiX4 5.p.x.b.C.b.1.! n.'.].oX].,X X>X0X>XL.:.t X w.iXiXiXiXiXiXiXiXiXiXiXiXiXiXiXiXiXiXiX",
"iXiXiXiXiXiXiXiXiXiXiXiXiXiXiXiXiXiXiXiXiX*.@Xv.c.C.C.Z.C.].[.{.oXoX;X0X0X,X<XqX@Xl r o > iXiXiXiXiXiXiXiXiXiXiXiXiXiXiXiXiXiXiX",
"iXiXiXiXiXiXiXiXiXiXiXiXiXiXiXiXiXiXiXiXiX0.z.v.b.C.A.Z.C.[.S.{.{.*X<XqX0X<X,X>XL.l e o : iXiXiXiXiXiXiXiXiXiXiXiXiXiXiXiXiXiXiX",
"iXiXiXiXiXiXiXiXiXiXiXiXiXiXiXiXiXiXiXiX5Xe.v.i.b.'.C.[.|.{.{.[.OX;X:X,X,X:X$X>X@X:., r . 4XiXiXiXiXiXiXiXiXiXiXiXiXiXiXiXiXiXiX",
"iXiXiXiXiXiXiXiXiXiXiXiXiXiXiXiXiXiXiXiXx k.v.v.C.|.|.}.}.{.{.OX&XOX&X&XOX&X Xz.!.>.l o , t iXiXiXiXiXiXiXiXiXiXiXiXiXiXiXiXiXiX",
"iXiXiXiXiXiXiXiXiXiXiXiXiXiXiXiXiXiXiXiX*.k.c.x.C.}.}.#X#XoX&X-X&XOXOX.X.X`.T.f.!.R y , + , iXiXiXiXiXiXiXiXiXiXiXiXiXiXiXiXiXiX",
"iXiXiXiXiXiXiXiXiXiXiXiXiXiXiXiXiXiXiXiX&.k.b.Z.|.#X}.%XoXoX&X:X-XOXXX.X.X/.h.t.R R u , + g iXiXiXiXiXiXiXiXiXiXiXiXiXiXiXiXiXiX",
"iXiXiXiXiXiXiXiXiXiXiXiXiXiXiXiXiXiXiXiX&.r.v.Z.[.}.}.#X%X%X-X:X+XXX`.).(.Y.f._ D a y o o b iXiXiXiXiXiXiXiXiXiXiXiXiXiXiXiXiXiX",
"iXiXiXiXiXiXiXiXiXiXiXiXiXiXiXiXiXiXiXiX&.k.v.Z.|.}.}.oXoX&X-X:X+XXX`.).K.O.s.L D p 9 # . 2XiXiXiXiXiXiXiXiXiXiXiXiXiXiXiXiXiXiX",
"iXiXiXiXiXiXiXiXiXiXiXiXiXiXiXiXiXiXiXiX0.k.F.'.}.}.%X%X%X%X-X:XXX`.).).(.O._ ) K u < # @ w.iXiXiXiXiXiXiXiXiXiXiXiXiXiXiXiXiXiX",
"iXiXiXiXiXiXiXiXiXiXiXiXiXiXiXiXiXiXiXiXe.=.v.W.#X#X&X&X%X%X&X-XXX`.).).K.@._ Q A p # # > v iXiXiXiXiXiXiXiXiXiXiXiXiXiXiXiXiXiX",
"iXiXiXiXiXiXiXiXiXiXiXiXiXiXiXiXiXiXiXiX0.n *.4.=X$X&X%XoX%X&X-X`.`.).(.K.@.} E A 9 % # 6 iXiXiXiXiXiXiXiXiXiXiXiXiXiXiXiXiXiXiX",
"iXiXiXiXiXiXiXiXiXiXiXiXiXiXiXiXiXiXiXiXf 7 6 w K W.$X%X].]. X*X X+.J.~.K.+.} E A y r y w iXiXiXiXiXiXiXiXiXiXiXiXiXiXiXiXiXiXiX",
"iXiXiXiXiXiXiXiXiXiXiXiXiXiXiXiXiXiXiXuXf G ,.M S d.|.}.C.y.%.K u E L ..#.#.} E u % y i q iXiXiXiXiXiXiXiXiXiXiXiXiXiXiXiXiXiXiX",
"iXiXiXiXiXiXiXiXiXiXiXiXiXiXiXiXiXiXiXeXn 5.v.W.p.i.'.}.|.t.U D J / ` _ } } #.` u < e l j iXiXiXiXiXiXiXiXiXiXiXiXiXiXiXiXiXiXiX",
"iXiXiXiXiXiXiXiXiXiXiXiXiXiXiXiXiXiXiX2X%.F %.4.p.Y c.C.^.h.y.f.E.s.{ { } } #.( u < % & w iXiXiXiXiXiXiXiXiXiXiXiXiXiXiXiXiXiXiX",
"iXiXiXiXiXiXiXiXiXiXiXiXiXiXiXiXiXiXiXe.=.*.@ 0 1.i.p.}.B.g.{ t.Q.E.} W ....#.( u y % $ %.wXiXiXiXiXiXiXiXiXiXiXiXiXiXiXiXiXiXiX",
"iXiXiXiXiXiXiXiXiXiXiXiXiXiXiXiXiXiXiX8.k.-.p.p.c.u.y.}.M.| o.U A <.( W +.+.#.` B % 9 B m F.iXiXiXiXiXiXiXiXiXiXiXiXiXiXiXiXiXiX",
"iXiXiXiXiXiXiXiXiXiXiXiXiXiXiXiXiXiXiX8.i.T T a.x.u.c.[.$.m.j.Y L N { o.~.o.| } B < 8 C r.qXiXiXiXiXiXiXiXiXiXiXiXiXiXiXiXiXiXiX",
"iXiXiXiXiXiXiXiXiXiXiXiXiXiXiXiXiXiXiX8.a.a.V.V.a.i.g.S.B.B.m.| '.^.O.j.~.#.O.} A < 8 C ] eXiXiXiXiXiXiXiXiXiXiXiXiXiXiXiXiXiXiX",
"iXiXiXiXiXiXiXiXiXiXiXiXiXiXiXiXiXiXiXk.l.V.V.V.u.p.g.B.N.m.m.}.| N.N.$.~.o.#._ u * = G | eXiXiXiXiXiXiXiXiXiXiXiXiXiXiXiXiXiXiX",
"iXiXiXiXiXiXiXiXiXiXiXiXiXiXiXiXiXiXiX;.l.V.S.V.p.p.i.M.N.^.m.S.{.{._._.~.+.#._ u 9 V P ] eXiXiXiXiXiXiXiXiXiXiXiXiXiXiXiXiXiXiX",
"iXiXiXiXiXiXiXiXiXiXiXiXiXiXiXiXiXiXiXr.F.S.S.p.<.b.#XD.| g.g.&XoXOX.X_.$.U.} ( 9 9 - T } yXiXiXiXiXiXiXiXiXiXiXiXiXiXiXiXiXiXiX",
"iXiXiXiXiXiXiXiXiXiXiXiXiXiXiXiXiXiXiXG.l.H.u.r.;.F.|.m.D.M.#.M.-XoX).(.$.Y.} D 9 % K ] S.iXiXiXiXiXiXiXiXiXiXiXiXiXiXiXiXiXiXiX",
"iXiXiXiXiXiXiXiXiXiXiXiXiXiXiXiXiXiXiXr.k.l.,.0 6 4.y.f.W.n.f.U.{.oX_.N.$.+.{ S * $ I [ G.iXiXiXiXiXiXiXiXiXiXiXiXiXiXiXiXiXiXiX",
"iXiXiXiXiXiXiXiXiXiXiXiXiXiXiXiXiXiXiX;.-.-.q : # @ V 9 * * K >.{.{.N.$.@.#._ E M ; U | iXiXiXiXiXiXiXiXiXiXiXiXiXiXiXiXiXiXiXiX",
"iXiXiXiXiXiXiXiXiXiXiXiXiXiXiXiXiXiXiXe.1.F 4 > + # a % # # y u j.).~.$.@...{ Q I Z y.| iXiXiXiXiXiXiXiXiXiXiXiXiXiXiXiXiXiXiXiX",
"iXiXiXiXiXiXiXiXiXiXiXiXiXiXiXiXiXiXiXe.i.0 > > # $ S $ # # % r J K.@.@.+. ._ Q L L Q.j.iXiXiXiXiXiXiXiXiXiXiXiXiXiXiXiXiXiXiXiX",
"iXiXiXiXiXiXiXiXiXiXiXiXiXiXiXiXiXiXiX5X2.0 9 9 7 F r.n - - n * u ` J.J.+. .( Q Q U R F iXiXiXiXiXiXiXiXiXiXiXiXiXiXiXiXiXiXiXiX",
"iXiXiXiXiXiXiXiXiXiXiXiXiXiXiXiXiXiXiX5X2.,.G $ 9 $ @ 0 7 %.G =.% E P.J.J.` ( ~ ~ I iXiXiXiXiXiXiXiXiXiXiXiXiXiXiXiXiXiXiXiXiXiX",
"iXiXiXiXiXiXiXiXiXiXiXiXiXiXiXiXiXiXiXiX8.W.2.%.@X= @ & @ @ @ @ A W U.U. .( ^ ~ ) D iXiXiXiXiXiXiXiXiXiXiXiXiXiXiXiXiXiXiXiXiXiX",
"iXiXiXiXiXiXiXiXiXiXiXiXiXiXiXiXiXiXiXiX:.z.8.z.-.;.F.G.p.p.u.$X .E.P.P.` ) ( ( >.* iXiXiXiXiXiXiXiXiXiXiXiXiXiXiXiXiXiXiXiXiXiX",
"iXiXiXiXiXiXiXiXiXiXiXiXiXiXiXiXiXiXiXiXiX7.!.d.1.F.b.i.c.c.c.].E.U.U.P.E Q ` ) R iXiXiXiXiXiXiXiXiXiXiXiXiXiXiXiXiXiXiXiXiXiXiX",
"iXiXiXiXiXiXiXiXiXiXiXiXiXiXiXiXiXiXiXiXiX6.z.2.1.x.x.H.#XC.j./.J.J.P. .^ ) ` ^ B iXiXiXiXiXiXiXiXiXiXiXiXiXiXiXiXiXiXiXiXiXiXiX",
"iXiXiXiXiXiXiXiXiXiXiXiXiXiX              6.8.7.>.i.d.z.].R.R.U.U.J.U.` ) 1.) ! = iXiXiXiXiXiXiXiXiXiXiXiXiXiXiXiXiXiXiXiXiXiXiX",
"iXiXiXiXiXiXiXiXiXiX          ' ' ' ' ' ' :.>.7.f.t.z.Q.n.T.M.+.E.X. .( ~ U I A           iXiXiXiXiXiXiXiXiXiXiXiXiXiXiXiXiXiXiX",
"iXiXiXiXiXiXiXiXiX    ' ' ' ' ' ' ' '     ' ! d.f.t.f.T.]./.~.s.T.U. .Q / U C - ' ' ' '       iXiXiXiXiXiXiXiXiXiXiXiXiXiXiXiXiX",
"iXiXiXiXiXiXiXiX    ' ' '               ' ' R 7.<.I.R.]././.R.P.P.s._ I I C m Z   ' ' ' ' '       iXiXiXiXiXiXiXiXiXiXiXiXiXiXiX",
"iXiXiXiXiXiXiX    ' '       iXiXiXiX  ' ' ' K 8.<.T./. XY./.U.P.2.2.E J C V Z '           ' ' '     iXiXiXiXiXiXiXiXiXiXiXiXiXiX",
"iXiXiXiXiXK.K.K.    K.  iXiXiXiXiX    ' ' ' u 3.2.U. X XE.E.P.` ` ! D D M Z ' ' '   iXiX      ' '     iXiXiXiXiXiXiXiXiXiXiXiXiX",
"iXiXiXiXiXK.iXK.iXK.K.K.iXiXiXiXiX  ' ' ' ' ' H 5.f.s.T.s.s.Q ) ~ D A Z ' ' ' ' '   iXiXiXiX    '     K.K.K.iXiXiXiXiXiXiXiXiXiX",
"iXiXiXiXiXK.iXK.iXK.K.K.K.iXiXiXiX  ' ' ' ' ' 0 K R >.>.2.D I d.R S S ' ' ' ' ' '   iXiXiXiXiX  K.  K.K.iXK.K.iXiXiXiXiXiXiXiXiX",
"iXiXiXiXiXiXiXK.K.iXK.iXK.iXiXiXiX  ' ' ' ' ' ' H u B V Z 2.f.~ A ' ' ' ' ' ' ' '   iXiXiXiXiXiXiXK.iXK.iXiXK.iXiXiXiXiXiXiXiXiX",
"iXiXiXiXiXiXiXiXiXiXiXiXiXiXiXiXiX  ' ' ' ' ' ' ' K ! <.<.t.~ S ' ' ' ' ' ' ' ' '   iXiXiXiXiXiXiXK.iXiXK.iXiXiXiXiXiXiXiXiXiXiX",
"iXiXiXiXiXiXiXiXiXiXiXiXiXiXiXiXiX    ' ' ' ' ' ' ' C K K S ' ' ' ' ' ' ' ' ' '     iXiXiXiXiXiXiXK.K.iXiXiXiXiXiXiXiXiXiXiXiXiX",
"iXiXiXiXiXiXiXiXiXiXiXiXiXiXiXiXiXiX  ' ' ' ' ' ' ' ' ' ' ' ' ' ' ' ' ' ' ' ' '   iXiXiXiXiXiXiXiXiXiXiXiXiXiXiXiXiXiXiXiXiXiXiX",
"iXiXiXiXiXiXiXiXiXiXiXiXiXiXiXiXiXiX    ' ' ' ' ' ' ' ' ' ' ' ' ' ' ' ' ' ' '     iXiXiXiXiXiXiXiXiXiXiXiXiXiXiXiXiXiXiXiXiXiXiX",
"iXiXiXiXiXiXiXiXiXiXiXiX                    ' ' ' ' ' ' ' ' ' ' ' ' ' ' ' '           iXiXiXiXiXiXiXiXiXiXiXiXiXiXiXiXiXiXiXiXiX",
"iXiXiXiXiXiXiXiXiXiXiX    1X1X1X1X1X1X1X1X      ' ' ' ' ' ' ' ' ' ' ' ' '   1X1X1X1X      iXiXiXiXiXiXiXiXiXiXiXiXiXiXiXiXiXiXiX",
"iXiXiXiXiXiXiXiXiXiX    1X1X1X1X          1X1X1X      ' ' ' ' ' ' ' ' '           1X1X1X      iXiXiXiXiXiXiXiXiXiXiXiXiXiXiXiXiX",
"iXiXiXiXiXiXiXiXiX    1X1X        iXiXiXiX      1X1X      ' '             iXiXiX        1X1X  iXiXiXiXiXiXiXiXiXiXiXiXiXiXiXiXiX",
"iXiXiXiXiXiXiXiXiX  1X1X    iXiXiXiXiXiXiXiXiXiX      1X        iXiXiXiXiXiXiXiXiXiXiX    1X    iXiXiXiXiXiXiXiXiXiXiXiXiXiXiXiX",
"iXiXiXiXiXiXiXiXiX  1X    iXiXiXiXiXiXiXiXiXiXiXiXiXiXiXiXiXiXiXiXiXiXiXiXiXiXiXiXiXiXiX  1X1X  iXiXiXiXiXiXiXiXiXiXiXiXiXiXiXiX",
"iXiXiXiXiXiXiX          iXiXiXiXiXiXiXiXiXiXiXiXiXiXiXiXiXiXiXiXiXiXiXiXiXiXiXiXiXiXiXiX              iXiXiXiXiXiXiXiXiXiXiXiXiX",
"iXiXiXiXiX              iXiXiXiXiXiXiXiXiXiXiXiXiXiXiXiXiXiXiXiXiXiXiXiXiXiXiXiXiXiXiXiX                iXiXiXiXiXiXiXiXiXiXiXiX",
"iXiXiXiXiX              iXiXiXiXiXiXiXiXiXiXiXiXiXiXiXiXiXiXiXiXiXiXiXiXiXiXiXiXiXiXiXiX                iXiXiXiXiXiXiXiXiXiXiXiX"
};
